<svg xmlns="http://www.w3.org/2000/svg" width="6" height="10" viewBox="0 0 6 10" fill="none">
<path d="M0.279314 9.7194C0.100415 9.54166 4.0657e-07 9.30123 3.95615e-07 9.05062C3.84661e-07 8.80001 0.100415 8.55958 0.279313 8.38184L3.67957 4.97628L0.279313 1.61816C0.100415 1.44042 5.24533e-08 1.19999 4.14987e-08 0.94938C3.05441e-08 0.698767 0.100415 0.458337 0.279313 0.280601C0.368606 0.191688 0.474841 0.121116 0.59189 0.0729554C0.708939 0.0247951 0.834485 -3.64765e-08 0.961285 -4.20191e-08C1.08809 -4.75617e-08 1.21363 0.0247951 1.33068 0.0729554C1.44773 0.121116 1.55396 0.191688 1.64326 0.280601L5.71588 4.30276C5.80591 4.39095 5.87736 4.49587 5.92613 4.61147C5.97489 4.72706 6 4.85105 6 4.97628C6 5.10151 5.97489 5.2255 5.92613 5.3411C5.87736 5.4567 5.80591 5.56162 5.71588 5.64981L1.64326 9.7194C1.55396 9.80831 1.44773 9.87888 1.33068 9.92704C1.21363 9.9752 1.08809 10 0.961286 10C0.834485 10 0.708939 9.9752 0.59189 9.92704C0.474842 9.87888 0.368607 9.80831 0.279314 9.7194Z" fill="#1774D8"/>
</svg>