<svg xmlns="http://www.w3.org/2000/svg" width="16" height="16" viewBox="0 0 16 16" fill="none">
<path d="M11.1463 6.18621C11.0279 6.06694 10.8676 6 10.7005 6C10.5334 6 10.3731 6.06694 10.2546 6.18621L7.98427 8.45305L5.74552 6.18621C5.62703 6.06694 5.46674 6 5.29967 6C5.13259 6 4.97231 6.06694 4.85382 6.18621C4.79454 6.24574 4.74749 6.31656 4.71539 6.39459C4.68328 6.47263 4.66675 6.55632 4.66675 6.64086C4.66675 6.72539 4.68328 6.80909 4.71539 6.88712C4.74749 6.96515 4.79454 7.03598 4.85382 7.0955L7.53526 9.81059C7.59405 9.8706 7.66399 9.91824 7.74106 9.95075C7.81812 9.98326 7.90078 10 7.98427 10C8.06776 10 8.15042 9.98326 8.22748 9.95075C8.30455 9.91824 8.37449 9.8706 8.43329 9.81059L11.1463 7.0955C11.2056 7.03598 11.2527 6.96515 11.2848 6.88712C11.3169 6.80909 11.3334 6.72539 11.3334 6.64086C11.3334 6.55632 11.3169 6.47263 11.2848 6.39459C11.2527 6.31656 11.2056 6.24574 11.1463 6.18621Z" fill="black"/>
</svg>