<svg width="24" height="24" viewBox="0 0 24 24" fill="none" xmlns="http://www.w3.org/2000/svg">
<path fill-rule="evenodd" clip-rule="evenodd" d="M4.29032 4.84411C4.20826 4.81906 4.08884 4.8102 3.4918 4.8102H2.86123C2.38559 4.8102 2 4.40501 2 3.90518C2 3.40535 2.38559 3.00016 2.86123 3.00016H3.4918L3.58884 3.00008C4.03129 2.99952 4.42056 2.99904 4.77065 3.10587C5.46936 3.31907 6.04726 3.83739 6.35741 4.529C6.42469 4.67905 6.47423 4.83989 6.51437 5.01132H18.2767L18.3018 5.01131C18.714 5.01131 19.0605 5.0113 19.3433 5.02881C19.6352 5.04688 19.9235 5.08617 20.2032 5.19609C21.1564 5.57073 21.838 6.46366 21.9793 7.5228C22.0207 7.83355 21.9947 8.13777 21.9481 8.44117C21.9031 8.73507 21.8279 9.09053 21.7385 9.51327L21.733 9.53907L21.1266 12.4068L21.1028 12.5196C20.9685 13.1566 20.8653 13.6457 20.6561 14.0589C20.2369 14.8865 19.5128 15.4969 18.6532 15.7473C18.2239 15.8723 17.7472 15.872 17.1263 15.8716L17.0164 15.8715H10.0259L9.90883 15.8716C9.25242 15.8721 8.74917 15.8724 8.30189 15.7359C7.40543 15.4624 6.66397 14.7974 6.26605 13.91C6.0675 13.4673 5.98877 12.9449 5.88606 12.2636L5.86773 12.1422L4.95661 6.12396C4.86281 5.50436 4.83571 5.38182 4.79929 5.30058C4.6998 5.07874 4.51444 4.91249 4.29032 4.84411ZM6.80631 6.82135L7.56879 11.8578C7.69895 12.7175 7.74422 12.9601 7.82417 13.1384C8.01143 13.556 8.36035 13.869 8.78221 13.9977C8.96232 14.0526 9.19745 14.0615 10.0259 14.0615H17.0164C17.7987 14.0615 18.02 14.0534 18.193 14.003C18.5976 13.8852 18.9383 13.5979 19.1356 13.2085C19.2199 13.0419 19.2754 12.8167 19.4451 12.0142L20.0516 9.14642C20.1479 8.69112 20.2116 8.38802 20.2476 8.15311C20.2831 7.92175 20.2801 7.82349 20.2735 7.77398C20.2199 7.37224 19.9614 7.03355 19.5998 6.89144C19.5552 6.87393 19.4646 6.8495 19.242 6.83572C19.0159 6.82172 18.7206 6.82135 18.2767 6.82135H6.80631ZM7.64583 19.2402C7.64583 18.2684 8.39558 17.4805 9.32044 17.4805C10.2453 17.4805 10.9951 18.2684 10.9951 19.2402C10.9951 20.2121 10.2453 21 9.32044 21C8.39558 21 7.64583 20.2121 7.64583 19.2402ZM17.4543 17.4805C16.5294 17.4805 15.7797 18.2684 15.7797 19.2402C15.7797 20.2121 16.5294 21 17.4543 21C18.3791 21 19.1289 20.2121 19.1289 19.2402C19.1289 18.2684 18.3791 17.4805 17.4543 17.4805Z" fill="#A0DDFF"/>
</svg>
