<svg xmlns="http://www.w3.org/2000/svg" width="24" height="24" viewBox="0 0 24 24" fill="none">
<path d="M9.27931 16.7194C9.10042 16.5417 9 16.3012 9 16.0506C9 15.8 9.10042 15.5596 9.27931 15.3818L12.6796 11.9763L9.27931 8.61816C9.10041 8.44042 9 8.19999 9 7.94938C9 7.69877 9.10041 7.45834 9.27931 7.2806C9.36861 7.19169 9.47484 7.12112 9.59189 7.07296C9.70894 7.0248 9.83448 7 9.96129 7C10.0881 7 10.2136 7.0248 10.3307 7.07296C10.4477 7.12112 10.554 7.19169 10.6433 7.2806L14.7159 11.3028C14.8059 11.3909 14.8774 11.4959 14.9261 11.6115C14.9749 11.7271 15 11.8511 15 11.9763C15 12.1015 14.9749 12.2255 14.9261 12.3411C14.8774 12.4567 14.8059 12.5616 14.7159 12.6498L10.6433 16.7194C10.554 16.8083 10.4477 16.8789 10.3307 16.927C10.2136 16.9752 10.0881 17 9.96129 17C9.83449 17 9.70894 16.9752 9.59189 16.927C9.47484 16.8789 9.36861 16.8083 9.27931 16.7194Z" fill="#1774D8"/>
</svg>