<svg width="25" height="24" viewBox="0 0 25 24" fill="none" xmlns="http://www.w3.org/2000/svg">
<path d="M14.6118 10.5895H17.0311C17.1626 10.5901 17.293 10.5689 17.4149 10.5269C17.5367 10.485 17.6474 10.4232 17.7408 10.3451L22.3195 6.48538C22.4132 6.40704 22.4876 6.31383 22.5383 6.21114C22.5891 6.10844 22.6152 5.99829 22.6152 5.88704C22.6152 5.77579 22.5891 5.66564 22.5383 5.56294C22.4876 5.46025 22.4132 5.36704 22.3195 5.2887L19.9002 3.24928C19.8073 3.17029 19.6967 3.1076 19.5749 3.06481C19.4531 3.02203 19.3224 3 19.1904 3C19.0585 3 18.9278 3.02203 18.806 3.06481C18.6841 3.1076 18.5736 3.17029 18.4806 3.24928L13.902 7.10901C13.7193 7.2705 13.6157 7.48422 13.612 7.70735V9.74677C13.612 9.97027 13.7174 10.1846 13.9049 10.3427C14.0923 10.5007 14.3466 10.5895 14.6118 10.5895ZM15.6115 8.0613L19.1904 5.04431L20.1901 5.88704L16.6112 8.90403H15.6115V8.0613ZM21.6097 9.74677C21.3446 9.74677 21.0903 9.83556 20.9028 9.9936C20.7153 10.1516 20.61 10.366 20.61 10.5895V16.4886C20.61 16.7122 20.5047 16.9265 20.3172 17.0846C20.1297 17.2426 19.8754 17.3314 19.6103 17.3314H5.61436C5.34923 17.3314 5.09495 17.2426 4.90746 17.0846C4.71998 16.9265 4.61465 16.7122 4.61465 16.4886V8.38996L10.493 13.3537C10.7719 13.5919 11.1043 13.7811 11.4707 13.9102C11.8371 14.0393 12.2302 14.1058 12.6273 14.1058C13.0244 14.1058 13.4176 14.0393 13.784 13.9102C14.1504 13.7811 14.4827 13.5919 14.7617 13.3537C14.9449 13.1961 15.0475 12.9843 15.0475 12.7638C15.0475 12.5432 14.9449 12.3314 14.7617 12.1738C14.6686 12.0936 14.5574 12.0298 14.4347 11.9863C14.3119 11.9427 14.1801 11.9203 14.0469 11.9203C13.9137 11.9203 13.7819 11.9427 13.6592 11.9863C13.5364 12.0298 13.4252 12.0936 13.3321 12.1738C13.1453 12.3283 12.894 12.4147 12.6323 12.4147C12.3707 12.4147 12.1194 12.3283 11.9325 12.1738L6.02425 7.20171H10.6129C10.8781 7.20171 11.1323 7.11292 11.3198 6.95488C11.5073 6.79683 11.6126 6.58248 11.6126 6.35897C11.6126 6.13546 11.5073 5.92111 11.3198 5.76307C11.1323 5.60503 10.8781 5.51624 10.6129 5.51624H5.61436C4.81895 5.51624 4.05611 5.7826 3.49366 6.25673C2.93121 6.73086 2.61523 7.37392 2.61523 8.04444V16.4718C2.61523 17.1423 2.93121 17.7854 3.49366 18.2595C4.05611 18.7336 4.81895 19 5.61436 19H19.6103C20.4057 19 21.1686 18.7336 21.731 18.2595C22.2935 17.7854 22.6094 17.1423 22.6094 16.4718V10.5726C22.6094 10.3491 22.5041 10.1348 22.3166 9.97674C22.1291 9.8187 21.8749 9.72991 21.6097 9.72991V9.74677Z" fill="#9FDDFF"/>
</svg>
