<svg xmlns="http://www.w3.org/2000/svg" width="24" height="24" viewBox="0 0 24 24" fill="none">
<path d="M20.163 4.80252C19.1019 3.76726 17.695 3.13784 16.1982 3.02871C14.7015 2.91958 13.2142 3.338 12.0071 4.20788C10.7353 3.28534 9.15245 2.86702 7.57716 3.03715C6.00187 3.20728 4.55117 3.95323 3.51722 5.12478C2.48326 6.29633 1.94284 7.80646 2.00479 9.35106C2.06674 10.8957 2.72645 12.36 3.85108 13.4492L11.2974 20.7117C11.3903 20.803 11.5009 20.8755 11.6227 20.925C11.7445 20.9745 11.8751 21 12.0071 21C12.139 21 12.2696 20.9745 12.3914 20.925C12.5132 20.8755 12.6238 20.803 12.7167 20.7117L20.163 13.4492C20.7454 12.8816 21.2074 12.2076 21.5226 11.4658C21.8378 10.724 22 9.92886 22 9.12586C22 8.32287 21.8378 7.52775 21.5226 6.78593C21.2074 6.04411 20.7454 5.37014 20.163 4.80252ZM18.7537 12.0747L12.0071 18.645L5.26038 12.0747C4.66585 11.4924 4.26085 10.7519 4.09619 9.94602C3.93152 9.14013 4.01453 8.30475 4.33479 7.54469C4.65506 6.78463 5.19831 6.13373 5.89642 5.67364C6.59452 5.21356 7.41638 4.96477 8.2589 4.95849C9.38446 4.96118 10.4629 5.39944 11.2574 6.17702C11.3503 6.26839 11.4609 6.34091 11.5827 6.3904C11.7045 6.43989 11.8351 6.46537 11.9671 6.46537C12.099 6.46537 12.2297 6.43989 12.3515 6.3904C12.4733 6.34091 12.5838 6.26839 12.6767 6.17702C13.4946 5.48576 14.5513 5.12338 15.6328 5.16323C16.7143 5.20308 17.7399 5.64218 18.502 6.39167C19.2641 7.14115 19.7058 8.14503 19.7377 9.20014C19.7696 10.2552 19.3893 11.2828 18.6738 12.0747H18.7537Z" fill="#1774D8"/>
</svg>