<svg width="25" height="24" viewBox="0 0 25 24" fill="none" xmlns="http://www.w3.org/2000/svg">
<path d="M20.663 4.80252C19.6019 3.76726 18.195 3.13784 16.6982 3.02871C15.2015 2.91958 13.7142 3.338 12.5071 4.20788C11.2353 3.28534 9.65245 2.86702 8.07716 3.03715C6.50187 3.20728 5.05117 3.95323 4.01722 5.12478C2.98326 6.29633 2.44284 7.80646 2.50479 9.35106C2.56674 10.8957 3.22645 12.36 4.35108 13.4492L11.7974 20.7117C11.8903 20.803 12.0009 20.8755 12.1227 20.925C12.2445 20.9745 12.3751 21 12.5071 21C12.639 21 12.7696 20.9745 12.8914 20.925C13.0132 20.8755 13.1238 20.803 13.2167 20.7117L20.663 13.4492C21.2454 12.8816 21.7074 12.2076 22.0226 11.4658C22.3378 10.724 22.5 9.92886 22.5 9.12586C22.5 8.32287 22.3378 7.52775 22.0226 6.78593C21.7074 6.04411 21.2454 5.37014 20.663 4.80252ZM19.2537 12.0747L12.5071 18.645L5.76038 12.0747C5.16585 11.4924 4.76085 10.7519 4.59619 9.94602C4.43152 9.14013 4.51453 8.30475 4.83479 7.54469C5.15506 6.78463 5.69831 6.13373 6.39642 5.67364C7.09452 5.21356 7.91638 4.96477 8.7589 4.95849C9.88446 4.96118 10.9629 5.39944 11.7574 6.17702C11.8503 6.26839 11.9609 6.34091 12.0827 6.3904C12.2045 6.43989 12.3351 6.46537 12.4671 6.46537C12.599 6.46537 12.7297 6.43989 12.8515 6.3904C12.9733 6.34091 13.0838 6.26839 13.1767 6.17702C13.9946 5.48576 15.0513 5.12338 16.1328 5.16323C17.2143 5.20308 18.2399 5.64218 19.002 6.39167C19.7641 7.14115 20.2058 8.14503 20.2377 9.20014C20.2696 10.2552 19.8893 11.2828 19.1738 12.0747H19.2537Z" fill="#A0DDFF"/>
</svg>
