<svg xmlns="http://www.w3.org/2000/svg" width="24" height="24" viewBox="0 0 24 24" fill="none">
<path d="M14.8501 7.95005C14.8501 6.37523 13.5749 5.10005 12.0001 5.10005C10.4253 5.10005 9.1501 6.37523 9.1501 7.95005C9.1501 9.52487 10.4253 10.8 12.0001 10.8C13.5749 10.8 14.8501 9.52487 14.8501 7.95005ZM16.6501 7.95005C16.6501 10.519 14.569 12.6 12.0001 12.6C9.43117 12.6 7.3501 10.519 7.3501 7.95005C7.3501 5.38112 9.43117 3.30005 12.0001 3.30005C14.569 3.30005 16.6501 5.38112 16.6501 7.95005ZM5.9001 18.4286C5.9001 19.1975 5.80933 19.1 6.23539 19.1H17.7648C18.1909 19.1 18.1001 19.1975 18.1001 18.4286C18.1001 16.536 15.3219 15.4 12.0001 15.4C8.67829 15.4 5.9001 16.536 5.9001 18.4286ZM4.1001 18.4286C4.1001 15.1018 7.77289 13.6 12.0001 13.6C16.2273 13.6 19.9001 15.1018 19.9001 18.4286C19.9001 20.1642 19.2146 20.9 17.7648 20.9H6.23539C4.78564 20.9 4.1001 20.1642 4.1001 18.4286Z" fill="#A0DDFF"/>
</svg>