<svg width="256" height="32" viewBox="0 0 256 32" fill="none" xmlns="http://www.w3.org/2000/svg">
<path d="M0.891355 3.95751C-0.111288 4.95005 -0.342667 8.3094 0.582849 9.68368C0.968481 10.3708 5.59606 10.7526 15.7767 10.9816C23.875 11.1343 32.5903 11.5924 35.2897 11.8215L40.1487 12.3559L39.0689 10.1418C37.5264 7.16417 35.2897 5.40814 31.819 4.11021C27.8856 2.73592 2.27963 2.58323 0.891355 3.95751Z" fill="white"/>
<path d="M43.4653 4.03389C43.311 4.56833 43.2339 10.2945 43.311 16.7842L43.5424 28.6183L46.5503 28.8473C50.1753 29.1527 50.8694 28.3129 50.8694 23.4265V19.8381H57.1938H63.441L68.3 24.4191C73.0818 29 73.0818 29 77.7865 29C80.4088 29 82.4912 28.771 82.4912 28.3892C82.4912 27.5494 68.4542 14.0356 66.5261 13.0431C65.6005 12.585 61.7442 12.2032 57.8879 12.2032H50.8694V8.53848C50.8694 6.5534 50.4838 4.49198 49.9439 3.95754C48.7099 2.73595 44.0052 2.8123 43.4653 4.03389Z" fill="white"/>
<path d="M70.3046 6.477L66.6797 9.9127H71.4615C75.9349 9.9127 76.5519 9.68366 79.4055 7.16414C81.1023 5.63716 82.4906 4.11018 82.4906 3.72844C82.4906 3.34669 80.5624 3.0413 78.1715 3.0413C74.1609 3.0413 73.6982 3.27034 70.3046 6.477Z" fill="white"/>
<path d="M89.0467 4.1866C85.8074 5.33184 81.7197 9.14929 81.7197 11.058C81.7197 11.8979 82.7224 12.2032 85.8074 12.2032C88.0441 12.2032 90.2036 11.8979 90.6664 11.4398C91.052 11.058 97.8391 10.5999 106.015 10.5236L120.669 10.2945L120.9 7.77501C121.363 3.19407 120.823 3.04137 105.706 3.04137C96.0652 3.11772 91.2063 3.42311 89.0467 4.1866Z" fill="white"/>
<path d="M32.7443 14.4937C32.9756 14.8755 34.9809 15.2572 37.0633 15.2572C39.4542 15.2572 40.7654 14.9518 40.4569 14.4937C40.2255 14.0356 38.2202 13.7302 36.1378 13.7302C33.7469 13.7302 32.4358 14.0356 32.7443 14.4937Z" fill="white"/>
<path d="M80.5626 14.4937C80.2541 14.9518 81.5653 15.2572 83.9562 15.2572C86.0386 15.2572 88.0439 14.8755 88.2753 14.4937C88.5838 14.0356 87.2726 13.7302 84.8817 13.7302C82.7993 13.7302 80.794 14.0356 80.5626 14.4937Z" fill="white"/>
<path d="M15.3911 16.0207C15.3911 17.5476 15.7767 17.624 21.0213 17.3949C25.3404 17.2422 26.5744 16.9368 26.5744 16.0207C26.5744 15.1045 25.3404 14.7991 21.0213 14.6464C15.7767 14.4173 15.3911 14.4937 15.3911 16.0207Z" fill="white"/>
<path d="M32.7442 17.5477C32.4357 18.0058 33.9011 18.3112 36.6005 18.3112C39.3 18.3112 40.7654 18.0058 40.4569 17.5477C40.2255 17.0896 38.4516 16.7842 36.6005 16.7842C34.7495 16.7842 32.9756 17.0896 32.7442 17.5477Z" fill="white"/>
<path d="M80.5631 17.5477C80.2546 18.0058 81.72 18.3112 84.4194 18.3112C87.1188 18.3112 88.5842 18.0058 88.2757 17.5477C88.0443 17.0896 86.2704 16.7842 84.4194 16.7842C82.5683 16.7842 80.7944 17.0896 80.5631 17.5477Z" fill="white"/>
<path d="M16.625 21.1361C7.13848 21.2888 1.66251 21.6705 0.968373 22.2813C0.274235 22.8157 -0.0342701 24.2664 0.119983 25.8697L0.351362 28.6183L15.7766 28.771C30.5849 29 31.3562 28.9237 34.1327 27.244C35.7524 26.3278 37.8348 24.4191 38.6832 23.0448L40.2257 20.6016L35.6752 20.7543C33.2072 20.907 24.6462 21.0597 16.625 21.1361Z" fill="white"/>
<path d="M82.4136 23.1211C83.262 24.4954 85.2673 26.3278 86.8869 27.244C89.6635 28.9237 90.4348 29 105.243 28.771L120.668 28.6183L120.9 25.8697C121.054 24.2664 120.745 22.8157 120.128 22.3576C119.511 21.8995 111.413 21.3651 99.9984 21.1361L80.8711 20.7543L82.4136 23.1211Z" fill="white"/>
<path d="M129.285 5.63C129.568 5.35 129.913 5.12333 130.32 4.95C130.73 4.77667 131.198 4.69 131.725 4.69C132.255 4.69 132.738 4.78167 133.175 4.965C133.615 5.145 133.992 5.39833 134.305 5.725C134.622 6.05167 134.867 6.44167 135.04 6.895C135.213 7.345 135.3 7.84167 135.3 8.385C135.3 8.92167 135.218 9.41667 135.055 9.87C134.892 10.3233 134.658 10.7133 134.355 11.04C134.055 11.3667 133.69 11.6217 133.26 11.805C132.83 11.9883 132.348 12.08 131.815 12.08C131.218 12.08 130.703 11.9833 130.27 11.79C129.84 11.5967 129.478 11.3183 129.185 10.955L129.72 10.38C129.773 10.3233 129.837 10.295 129.91 10.295C129.983 10.295 130.058 10.3283 130.135 10.395C130.245 10.495 130.355 10.58 130.465 10.65C130.578 10.7167 130.697 10.7717 130.82 10.815C130.947 10.8583 131.083 10.89 131.23 10.91C131.38 10.93 131.547 10.94 131.73 10.94C132.007 10.94 132.267 10.8933 132.51 10.8C132.757 10.7067 132.975 10.57 133.165 10.39C133.358 10.21 133.518 9.99 133.645 9.73C133.775 9.46667 133.86 9.16667 133.9 8.83H130.55V7.83H133.885C133.838 7.51333 133.753 7.23167 133.63 6.985C133.507 6.735 133.352 6.525 133.165 6.355C132.978 6.185 132.763 6.05667 132.52 5.97C132.28 5.88 132.018 5.835 131.735 5.835C131.448 5.835 131.212 5.865 131.025 5.925C130.838 5.985 130.682 6.05 130.555 6.12C130.432 6.19 130.328 6.255 130.245 6.315C130.162 6.375 130.083 6.405 130.01 6.405C129.937 6.405 129.878 6.39 129.835 6.36C129.795 6.33 129.76 6.295 129.73 6.255L129.285 5.63ZM141.839 12H140.484V5.805H138.509C138.462 6.71167 138.396 7.49667 138.309 8.16C138.226 8.82 138.124 9.38333 138.004 9.85C137.887 10.3133 137.752 10.69 137.599 10.98C137.449 11.27 137.284 11.4967 137.104 11.66C136.924 11.82 136.731 11.93 136.524 11.99C136.317 12.0467 136.101 12.075 135.874 12.075C135.634 12.075 135.459 12.0533 135.349 12.01C135.239 11.9667 135.184 11.9033 135.184 11.82V10.98H135.569C135.656 10.98 135.742 10.97 135.829 10.95C135.919 10.93 136.007 10.8883 136.094 10.825C136.184 10.7583 136.271 10.6633 136.354 10.54C136.441 10.4167 136.522 10.2517 136.599 10.045C136.679 9.835 136.752 9.57833 136.819 9.275C136.889 8.97167 136.951 8.60667 137.004 8.18C137.061 7.75333 137.109 7.26 137.149 6.7C137.192 6.13667 137.224 5.49333 137.244 4.77H141.839V12ZM144.5 5.84V7.845H147.03V8.88H144.5V10.925H147.71V12H143.15V4.77H147.71V5.84H144.5ZM154.737 12H153.517C153.391 12 153.284 11.9667 153.197 11.9C153.114 11.8333 153.036 11.735 152.962 11.605L151.422 9.175C151.382 9.105 151.339 9.04833 151.292 9.005C151.249 8.95833 151.201 8.92167 151.147 8.895C151.097 8.865 151.039 8.845 150.972 8.835C150.909 8.825 150.836 8.82 150.752 8.82H149.947V12H148.602V4.77H149.947V7.8H150.627C150.764 7.8 150.882 7.77667 150.982 7.73C151.082 7.68333 151.176 7.59667 151.262 7.47L152.847 5.13C152.914 5.02333 152.992 4.93667 153.082 4.87C153.172 4.80333 153.281 4.77 153.407 4.77H154.557L152.592 7.67C152.509 7.79667 152.412 7.90167 152.302 7.985C152.192 8.06833 152.071 8.13333 151.937 8.18C152.137 8.23667 152.306 8.32667 152.442 8.45C152.582 8.57 152.716 8.73667 152.842 8.95L154.737 12ZM160.315 5.875H158.135V12H156.79V5.875H154.61V4.77H160.315V5.875ZM163.311 8.405C163.558 8.405 163.773 8.375 163.956 8.315C164.14 8.25167 164.291 8.16333 164.411 8.05C164.535 7.93333 164.626 7.79333 164.686 7.63C164.746 7.46333 164.776 7.27833 164.776 7.075C164.776 6.88167 164.746 6.70667 164.686 6.55C164.626 6.39333 164.536 6.26 164.416 6.15C164.296 6.04 164.145 5.95667 163.961 5.9C163.778 5.84 163.561 5.81 163.311 5.81H162.306V8.405H163.311ZM163.311 4.77C163.795 4.77 164.213 4.82667 164.566 4.94C164.92 5.05333 165.211 5.21167 165.441 5.415C165.671 5.61833 165.841 5.86167 165.951 6.145C166.065 6.42833 166.121 6.73833 166.121 7.075C166.121 7.425 166.063 7.74667 165.946 8.04C165.83 8.33 165.655 8.58 165.421 8.79C165.188 9 164.895 9.16333 164.541 9.28C164.191 9.39667 163.781 9.455 163.311 9.455H162.306V12H160.961V4.77H163.311ZM173.748 8.385C173.748 8.915 173.659 9.40667 173.483 9.86C173.309 10.31 173.063 10.7 172.743 11.03C172.423 11.36 172.038 11.6183 171.588 11.805C171.138 11.9883 170.638 12.08 170.088 12.08C169.541 12.08 169.043 11.9883 168.593 11.805C168.143 11.6183 167.756 11.36 167.433 11.03C167.113 10.7 166.864 10.31 166.688 9.86C166.511 9.40667 166.423 8.915 166.423 8.385C166.423 7.855 166.511 7.365 166.688 6.915C166.864 6.46167 167.113 6.07 167.433 5.74C167.756 5.41 168.143 5.15333 168.593 4.97C169.043 4.78333 169.541 4.69 170.088 4.69C170.454 4.69 170.799 4.73333 171.123 4.82C171.446 4.90333 171.743 5.02333 172.013 5.18C172.283 5.33333 172.524 5.52167 172.738 5.745C172.954 5.965 173.138 6.21167 173.288 6.485C173.438 6.75833 173.551 7.055 173.628 7.375C173.708 7.695 173.748 8.03167 173.748 8.385ZM172.373 8.385C172.373 7.98833 172.319 7.63333 172.213 7.32C172.106 7.00333 171.954 6.735 171.758 6.515C171.561 6.295 171.321 6.12667 171.038 6.01C170.758 5.89333 170.441 5.835 170.088 5.835C169.734 5.835 169.416 5.89333 169.133 6.01C168.853 6.12667 168.613 6.295 168.413 6.515C168.216 6.735 168.064 7.00333 167.958 7.32C167.851 7.63333 167.798 7.98833 167.798 8.385C167.798 8.78167 167.851 9.13833 167.958 9.455C168.064 9.76833 168.216 10.035 168.413 10.255C168.613 10.4717 168.853 10.6383 169.133 10.755C169.416 10.8717 169.734 10.93 170.088 10.93C170.441 10.93 170.758 10.8717 171.038 10.755C171.321 10.6383 171.561 10.4717 171.758 10.255C171.954 10.035 172.106 9.76833 172.213 9.455C172.319 9.13833 172.373 8.78167 172.373 8.385ZM181.524 8.385C181.524 8.915 181.435 9.40667 181.259 9.86C181.085 10.31 180.839 10.7 180.519 11.03C180.199 11.36 179.814 11.6183 179.364 11.805C178.914 11.9883 178.414 12.08 177.864 12.08C177.317 12.08 176.819 11.9883 176.369 11.805C175.919 11.6183 175.532 11.36 175.209 11.03C174.889 10.7 174.64 10.31 174.464 9.86C174.287 9.40667 174.199 8.915 174.199 8.385C174.199 7.855 174.287 7.365 174.464 6.915C174.64 6.46167 174.889 6.07 175.209 5.74C175.532 5.41 175.919 5.15333 176.369 4.97C176.819 4.78333 177.317 4.69 177.864 4.69C178.23 4.69 178.575 4.73333 178.899 4.82C179.222 4.90333 179.519 5.02333 179.789 5.18C180.059 5.33333 180.3 5.52167 180.514 5.745C180.73 5.965 180.914 6.21167 181.064 6.485C181.214 6.75833 181.327 7.055 181.404 7.375C181.484 7.695 181.524 8.03167 181.524 8.385ZM180.149 8.385C180.149 7.98833 180.095 7.63333 179.989 7.32C179.882 7.00333 179.73 6.735 179.534 6.515C179.337 6.295 179.097 6.12667 178.814 6.01C178.534 5.89333 178.217 5.835 177.864 5.835C177.51 5.835 177.192 5.89333 176.909 6.01C176.629 6.12667 176.389 6.295 176.189 6.515C175.992 6.735 175.84 7.00333 175.734 7.32C175.627 7.63333 175.574 7.98833 175.574 8.385C175.574 8.78167 175.627 9.13833 175.734 9.455C175.84 9.76833 175.992 10.035 176.189 10.255C176.389 10.4717 176.629 10.6383 176.909 10.755C177.192 10.8717 177.51 10.93 177.864 10.93C178.217 10.93 178.534 10.8717 178.814 10.755C179.097 10.6383 179.337 10.4717 179.534 10.255C179.73 10.035 179.882 9.76833 179.989 9.455C180.095 9.13833 180.149 8.78167 180.149 8.385ZM184.925 10.95C185.175 10.95 185.383 10.9233 185.55 10.87C185.72 10.8133 185.857 10.7367 185.96 10.64C186.063 10.5433 186.137 10.43 186.18 10.3C186.223 10.17 186.245 10.03 186.245 9.88C186.245 9.71667 186.223 9.56833 186.18 9.435C186.137 9.30167 186.063 9.19 185.96 9.1C185.857 9.00667 185.722 8.935 185.555 8.885C185.388 8.835 185.18 8.81 184.93 8.81H183.75V10.95H184.925ZM184.93 7.76C185.4 7.76 185.802 7.81167 186.135 7.915C186.472 8.01833 186.745 8.16 186.955 8.34C187.168 8.51667 187.325 8.72667 187.425 8.97C187.525 9.21 187.575 9.46833 187.575 9.745C187.575 10.085 187.515 10.3933 187.395 10.67C187.278 10.9467 187.107 11.185 186.88 11.385C186.653 11.5817 186.375 11.7333 186.045 11.84C185.718 11.9467 185.345 12 184.925 12H182.405V4.77H187.31V5.81H183.75V7.76H184.93ZM195.299 8.385C195.299 8.915 195.21 9.40667 195.034 9.86C194.86 10.31 194.614 10.7 194.294 11.03C193.974 11.36 193.589 11.6183 193.139 11.805C192.689 11.9883 192.189 12.08 191.639 12.08C191.092 12.08 190.594 11.9883 190.144 11.805C189.694 11.6183 189.307 11.36 188.984 11.03C188.664 10.7 188.415 10.31 188.239 9.86C188.062 9.40667 187.974 8.915 187.974 8.385C187.974 7.855 188.062 7.365 188.239 6.915C188.415 6.46167 188.664 6.07 188.984 5.74C189.307 5.41 189.694 5.15333 190.144 4.97C190.594 4.78333 191.092 4.69 191.639 4.69C192.005 4.69 192.35 4.73333 192.674 4.82C192.997 4.90333 193.294 5.02333 193.564 5.18C193.834 5.33333 194.075 5.52167 194.289 5.745C194.505 5.965 194.689 6.21167 194.839 6.485C194.989 6.75833 195.102 7.055 195.179 7.375C195.259 7.695 195.299 8.03167 195.299 8.385ZM193.924 8.385C193.924 7.98833 193.87 7.63333 193.764 7.32C193.657 7.00333 193.505 6.735 193.309 6.515C193.112 6.295 192.872 6.12667 192.589 6.01C192.309 5.89333 191.992 5.835 191.639 5.835C191.285 5.835 190.967 5.89333 190.684 6.01C190.404 6.12667 190.164 6.295 189.964 6.515C189.767 6.735 189.615 7.00333 189.509 7.32C189.402 7.63333 189.349 7.98833 189.349 8.385C189.349 8.78167 189.402 9.13833 189.509 9.455C189.615 9.76833 189.767 10.035 189.964 10.255C190.164 10.4717 190.404 10.6383 190.684 10.755C190.967 10.8717 191.285 10.93 191.639 10.93C191.992 10.93 192.309 10.8717 192.589 10.755C192.872 10.6383 193.112 10.4717 193.309 10.255C193.505 10.035 193.657 9.76833 193.764 9.455C193.87 9.13833 193.924 8.78167 193.924 8.385ZM198.53 8.405C198.777 8.405 198.992 8.375 199.175 8.315C199.358 8.25167 199.51 8.16333 199.63 8.05C199.753 7.93333 199.845 7.79333 199.905 7.63C199.965 7.46333 199.995 7.27833 199.995 7.075C199.995 6.88167 199.965 6.70667 199.905 6.55C199.845 6.39333 199.755 6.26 199.635 6.15C199.515 6.04 199.363 5.95667 199.18 5.9C198.997 5.84 198.78 5.81 198.53 5.81H197.525V8.405H198.53ZM198.53 4.77C199.013 4.77 199.432 4.82667 199.785 4.94C200.138 5.05333 200.43 5.21167 200.66 5.415C200.89 5.61833 201.06 5.86167 201.17 6.145C201.283 6.42833 201.34 6.73833 201.34 7.075C201.34 7.425 201.282 7.74667 201.165 8.04C201.048 8.33 200.873 8.58 200.64 8.79C200.407 9 200.113 9.16333 199.76 9.28C199.41 9.39667 199 9.455 198.53 9.455H197.525V12H196.18V4.77H198.53ZM207.806 4.77L204.886 10.995C204.783 11.2117 204.673 11.39 204.556 11.53C204.44 11.67 204.313 11.78 204.176 11.86C204.043 11.94 203.898 11.995 203.741 12.025C203.588 12.0583 203.423 12.075 203.246 12.075C203.006 12.075 202.831 12.0533 202.721 12.01C202.611 11.9667 202.556 11.9033 202.556 11.82V10.98H202.946C203.02 10.98 203.095 10.9733 203.171 10.96C203.248 10.9467 203.323 10.92 203.396 10.88C203.473 10.84 203.546 10.7833 203.616 10.71C203.686 10.6367 203.751 10.54 203.811 10.42L204.096 9.84L201.196 4.77H202.456C202.573 4.77 202.666 4.79833 202.736 4.855C202.806 4.91167 202.865 4.98333 202.911 5.07L204.316 7.72C204.393 7.86667 204.461 8.01167 204.521 8.155C204.585 8.29833 204.64 8.445 204.686 8.595C204.773 8.295 204.885 8.00333 205.021 7.72L206.246 5.07C206.283 4.99667 206.338 4.92833 206.411 4.865C206.485 4.80167 206.578 4.77 206.691 4.77H207.806ZM212.064 10.965V5.805H210.089C210.049 6.515 209.994 7.145 209.924 7.695C209.857 8.245 209.779 8.72833 209.689 9.145C209.599 9.56167 209.499 9.91833 209.389 10.215C209.279 10.5117 209.161 10.7617 209.034 10.965H212.064ZM214.539 10.965V13.335C214.539 13.4517 214.499 13.545 214.419 13.615C214.342 13.685 214.241 13.72 214.114 13.72H213.304V12H207.994V13.335C207.994 13.4517 207.954 13.545 207.874 13.615C207.797 13.685 207.696 13.72 207.569 13.72H206.759V10.965H207.549C207.642 10.915 207.734 10.835 207.824 10.725C207.917 10.615 208.007 10.46 208.094 10.26C208.181 10.06 208.262 9.80667 208.339 9.5C208.419 9.19333 208.491 8.82 208.554 8.38C208.617 7.93667 208.671 7.41833 208.714 6.825C208.761 6.23167 208.796 5.54667 208.819 4.77H213.414V10.965H214.539ZM221.97 8.385C221.97 8.915 221.882 9.40667 221.705 9.86C221.532 10.31 221.285 10.7 220.965 11.03C220.645 11.36 220.26 11.6183 219.81 11.805C219.36 11.9883 218.86 12.08 218.31 12.08C217.763 12.08 217.265 11.9883 216.815 11.805C216.365 11.6183 215.978 11.36 215.655 11.03C215.335 10.7 215.087 10.31 214.91 9.86C214.733 9.40667 214.645 8.915 214.645 8.385C214.645 7.855 214.733 7.365 214.91 6.915C215.087 6.46167 215.335 6.07 215.655 5.74C215.978 5.41 216.365 5.15333 216.815 4.97C217.265 4.78333 217.763 4.69 218.31 4.69C218.677 4.69 219.022 4.73333 219.345 4.82C219.668 4.90333 219.965 5.02333 220.235 5.18C220.505 5.33333 220.747 5.52167 220.96 5.745C221.177 5.965 221.36 6.21167 221.51 6.485C221.66 6.75833 221.773 7.055 221.85 7.375C221.93 7.695 221.97 8.03167 221.97 8.385ZM220.595 8.385C220.595 7.98833 220.542 7.63333 220.435 7.32C220.328 7.00333 220.177 6.735 219.98 6.515C219.783 6.295 219.543 6.12667 219.26 6.01C218.98 5.89333 218.663 5.835 218.31 5.835C217.957 5.835 217.638 5.89333 217.355 6.01C217.075 6.12667 216.835 6.295 216.635 6.515C216.438 6.735 216.287 7.00333 216.18 7.32C216.073 7.63333 216.02 7.98833 216.02 8.385C216.02 8.78167 216.073 9.13833 216.18 9.455C216.287 9.76833 216.438 10.035 216.635 10.255C216.835 10.4717 217.075 10.6383 217.355 10.755C217.638 10.8717 217.957 10.93 218.31 10.93C218.663 10.93 218.98 10.8717 219.26 10.755C219.543 10.6383 219.783 10.4717 219.98 10.255C220.177 10.035 220.328 9.76833 220.435 9.455C220.542 9.13833 220.595 8.78167 220.595 8.385ZM225.556 10.95C225.806 10.95 226.016 10.92 226.186 10.86C226.356 10.8 226.491 10.72 226.591 10.62C226.694 10.52 226.768 10.4033 226.811 10.27C226.858 10.1367 226.881 9.995 226.881 9.845C226.881 9.68833 226.856 9.54833 226.806 9.425C226.756 9.29833 226.678 9.19167 226.571 9.105C226.464 9.015 226.326 8.94667 226.156 8.9C225.989 8.85333 225.788 8.83 225.551 8.83H224.196V10.95H225.556ZM224.196 5.81V7.9H225.266C225.726 7.9 226.073 7.81667 226.306 7.65C226.543 7.48333 226.661 7.21833 226.661 6.855C226.661 6.47833 226.554 6.21 226.341 6.05C226.128 5.89 225.794 5.81 225.341 5.81H224.196ZM225.341 4.77C225.814 4.77 226.219 4.815 226.556 4.905C226.893 4.995 227.168 5.12333 227.381 5.29C227.598 5.45667 227.756 5.65833 227.856 5.895C227.956 6.13167 228.006 6.39833 228.006 6.695C228.006 6.865 227.981 7.02833 227.931 7.185C227.881 7.33833 227.803 7.48333 227.696 7.62C227.593 7.75333 227.459 7.875 227.296 7.985C227.136 8.095 226.944 8.18833 226.721 8.265C227.714 8.48833 228.211 9.025 228.211 9.875C228.211 10.1817 228.153 10.465 228.036 10.725C227.919 10.985 227.749 11.21 227.526 11.4C227.303 11.5867 227.028 11.7333 226.701 11.84C226.374 11.9467 226.001 12 225.581 12H222.851V4.77H225.341ZM232.84 9.27L231.96 6.865C231.917 6.75833 231.872 6.63167 231.825 6.485C231.779 6.33833 231.732 6.18 231.685 6.01C231.642 6.18 231.597 6.34 231.55 6.49C231.504 6.63667 231.459 6.765 231.415 6.875L230.54 9.27H232.84ZM235.215 12H234.175C234.059 12 233.964 11.9717 233.89 11.915C233.817 11.855 233.762 11.7817 233.725 11.695L233.185 10.22H230.19L229.65 11.695C229.624 11.7717 229.572 11.8417 229.495 11.905C229.419 11.9683 229.322 12 229.205 12H228.16L231 4.77H232.375L235.215 12ZM241.745 4.77V12H240.395V8.84H237V12H235.65V4.77H237V7.88H240.395V4.77H241.745ZM249.15 4.77V12H247.8V7.47C247.8 7.3 247.803 7.12167 247.81 6.935C247.82 6.74833 247.84 6.55 247.87 6.34C247.803 6.52667 247.73 6.7 247.65 6.86C247.573 7.01667 247.498 7.155 247.425 7.275L244.66 11.585C244.63 11.635 244.593 11.685 244.55 11.735C244.51 11.785 244.465 11.83 244.415 11.87C244.365 11.9067 244.31 11.9383 244.25 11.965C244.19 11.9883 244.128 12 244.065 12H243.055V4.77H244.405V9.3C244.405 9.47 244.4 9.65 244.39 9.84C244.383 10.0267 244.365 10.225 244.335 10.435C244.401 10.2483 244.473 10.075 244.55 9.915C244.63 9.755 244.708 9.615 244.785 9.495L247.545 5.185C247.575 5.135 247.61 5.085 247.65 5.035C247.693 4.985 247.74 4.94167 247.79 4.905C247.84 4.865 247.893 4.83333 247.95 4.81C248.01 4.78333 248.073 4.77 248.14 4.77H249.15ZM251.81 5.84V7.845H254.34V8.88H251.81V10.925H255.02V12H250.46V4.77H255.02V5.84H251.81ZM135.94 28H134.72C134.593 28 134.487 27.9667 134.4 27.9C134.317 27.8333 134.238 27.735 134.165 27.605L132.625 25.175C132.585 25.105 132.542 25.0483 132.495 25.005C132.452 24.9583 132.403 24.9217 132.35 24.895C132.3 24.865 132.242 24.845 132.175 24.835C132.112 24.825 132.038 24.82 131.955 24.82H131.15V28H129.805V20.77H131.15V23.8H131.83C131.967 23.8 132.085 23.7767 132.185 23.73C132.285 23.6833 132.378 23.5967 132.465 23.47L134.05 21.13C134.117 21.0233 134.195 20.9367 134.285 20.87C134.375 20.8033 134.483 20.77 134.61 20.77H135.76L133.795 23.67C133.712 23.7967 133.615 23.9017 133.505 23.985C133.395 24.0683 133.273 24.1333 133.14 24.18C133.34 24.2367 133.508 24.3267 133.645 24.45C133.785 24.57 133.918 24.7367 134.045 24.95L135.94 28ZM140.273 25.27L139.393 22.865C139.35 22.7583 139.305 22.6317 139.258 22.485C139.211 22.3383 139.165 22.18 139.118 22.01C139.075 22.18 139.03 22.34 138.983 22.49C138.936 22.6367 138.891 22.765 138.848 22.875L137.973 25.27H140.273ZM142.648 28H141.608C141.491 28 141.396 27.9717 141.323 27.915C141.25 27.855 141.195 27.7817 141.158 27.695L140.618 26.22H137.623L137.083 27.695C137.056 27.7717 137.005 27.8417 136.928 27.905C136.851 27.9683 136.755 28 136.638 28H135.593L138.433 20.77H139.808L142.648 28ZM145.602 26.95C145.852 26.95 146.06 26.9233 146.227 26.87C146.397 26.8133 146.534 26.7367 146.637 26.64C146.74 26.5433 146.814 26.43 146.857 26.3C146.9 26.17 146.922 26.03 146.922 25.88C146.922 25.7167 146.9 25.5683 146.857 25.435C146.814 25.3017 146.74 25.19 146.637 25.1C146.534 25.0067 146.399 24.935 146.232 24.885C146.065 24.835 145.857 24.81 145.607 24.81H144.427V26.95H145.602ZM145.607 23.76C146.077 23.76 146.479 23.8117 146.812 23.915C147.149 24.0183 147.422 24.16 147.632 24.34C147.845 24.5167 148.002 24.7267 148.102 24.97C148.202 25.21 148.252 25.4683 148.252 25.745C148.252 26.085 148.192 26.3933 148.072 26.67C147.955 26.9467 147.784 27.185 147.557 27.385C147.33 27.5817 147.052 27.7333 146.722 27.84C146.395 27.9467 146.022 28 145.602 28H143.082V20.77H147.987V21.81H144.427V23.76H145.607ZM150.431 21.84V23.845H152.961V24.88H150.431V26.925H153.641V28H149.081V20.77H153.641V21.84H150.431ZM160.363 28H159.008V21.805H157.033C156.986 22.7117 156.919 23.4967 156.833 24.16C156.749 24.82 156.648 25.3833 156.528 25.85C156.411 26.3133 156.276 26.69 156.123 26.98C155.973 27.27 155.808 27.4967 155.628 27.66C155.448 27.82 155.254 27.93 155.048 27.99C154.841 28.0467 154.624 28.075 154.398 28.075C154.158 28.075 153.983 28.0533 153.873 28.01C153.763 27.9667 153.708 27.9033 153.708 27.82V26.98H154.093C154.179 26.98 154.266 26.97 154.353 26.95C154.443 26.93 154.531 26.8883 154.618 26.825C154.708 26.7583 154.794 26.6633 154.878 26.54C154.964 26.4167 155.046 26.2517 155.123 26.045C155.203 25.835 155.276 25.5783 155.343 25.275C155.413 24.9717 155.474 24.6067 155.528 24.18C155.584 23.7533 155.633 23.26 155.673 22.7C155.716 22.1367 155.748 21.4933 155.768 20.77H160.363V28ZM164.194 26.95C164.444 26.95 164.652 26.9233 164.819 26.87C164.989 26.8133 165.126 26.7367 165.229 26.64C165.332 26.5433 165.406 26.43 165.449 26.3C165.492 26.17 165.514 26.03 165.514 25.88C165.514 25.7167 165.492 25.5683 165.449 25.435C165.406 25.3017 165.332 25.19 165.229 25.1C165.126 25.0067 164.991 24.935 164.824 24.885C164.657 24.835 164.449 24.81 164.199 24.81H163.019V26.95H164.194ZM164.199 23.76C164.669 23.76 165.071 23.8117 165.404 23.915C165.741 24.0183 166.014 24.16 166.224 24.34C166.437 24.5167 166.594 24.7267 166.694 24.97C166.794 25.21 166.844 25.4683 166.844 25.745C166.844 26.085 166.784 26.3933 166.664 26.67C166.547 26.9467 166.376 27.185 166.149 27.385C165.922 27.5817 165.644 27.7333 165.314 27.84C164.987 27.9467 164.614 28 164.194 28H161.674V20.77H163.019V23.76H164.199ZM167.341 29.225C167.281 29.175 167.251 29.1133 167.251 29.04C167.251 29.0133 167.259 28.9833 167.276 28.95C167.296 28.9167 167.319 28.8867 167.346 28.86C167.382 28.82 167.427 28.77 167.481 28.71C167.534 28.6533 167.587 28.5867 167.641 28.51C167.694 28.4367 167.742 28.355 167.786 28.265C167.832 28.1783 167.867 28.085 167.891 27.985C167.784 27.985 167.687 27.9667 167.601 27.93C167.514 27.89 167.439 27.8367 167.376 27.77C167.316 27.7033 167.267 27.625 167.231 27.535C167.197 27.445 167.181 27.3467 167.181 27.24C167.181 27.1467 167.197 27.06 167.231 26.98C167.267 26.8967 167.317 26.825 167.381 26.765C167.444 26.7017 167.521 26.6533 167.611 26.62C167.701 26.5833 167.799 26.565 167.906 26.565C168.032 26.565 168.142 26.5883 168.236 26.635C168.332 26.6783 168.411 26.74 168.471 26.82C168.534 26.8967 168.581 26.9867 168.611 27.09C168.644 27.19 168.661 27.2967 168.661 27.41C168.661 27.57 168.636 27.7383 168.586 27.915C168.539 28.0917 168.469 28.2683 168.376 28.445C168.282 28.6217 168.166 28.7933 168.026 28.96C167.889 29.1267 167.732 29.28 167.556 29.42L167.341 29.225ZM176.696 26.295C176.77 26.295 176.835 26.3233 176.891 26.38L177.421 26.955C177.128 27.3183 176.766 27.5967 176.336 27.79C175.91 27.9833 175.396 28.08 174.796 28.08C174.26 28.08 173.776 27.9883 173.346 27.805C172.92 27.6217 172.555 27.3667 172.251 27.04C171.948 26.7133 171.715 26.3233 171.551 25.87C171.391 25.4167 171.311 24.9217 171.311 24.385C171.311 23.8417 171.398 23.345 171.571 22.895C171.745 22.4417 171.988 22.0517 172.301 21.725C172.618 21.3983 172.995 21.145 173.431 20.965C173.868 20.7817 174.351 20.69 174.881 20.69C175.408 20.69 175.875 20.7767 176.281 20.95C176.691 21.1233 177.04 21.35 177.326 21.63L176.876 22.255C176.85 22.295 176.815 22.33 176.771 22.36C176.731 22.39 176.675 22.405 176.601 22.405C176.551 22.405 176.5 22.3917 176.446 22.365C176.393 22.335 176.335 22.3 176.271 22.26C176.208 22.2167 176.135 22.17 176.051 22.12C175.968 22.07 175.871 22.025 175.761 21.985C175.651 21.9417 175.523 21.9067 175.376 21.88C175.233 21.85 175.066 21.835 174.876 21.835C174.553 21.835 174.256 21.8933 173.986 22.01C173.72 22.1233 173.49 22.29 173.296 22.51C173.103 22.7267 172.953 22.9933 172.846 23.31C172.74 23.6233 172.686 23.9817 172.686 24.385C172.686 24.7917 172.743 25.1533 172.856 25.47C172.973 25.7867 173.13 26.0533 173.326 26.27C173.523 26.4867 173.755 26.6533 174.021 26.77C174.288 26.8833 174.575 26.94 174.881 26.94C175.065 26.94 175.23 26.93 175.376 26.91C175.526 26.89 175.663 26.8583 175.786 26.815C175.913 26.7717 176.031 26.7167 176.141 26.65C176.255 26.58 176.366 26.495 176.476 26.395C176.51 26.365 176.545 26.3417 176.581 26.325C176.618 26.305 176.656 26.295 176.696 26.295ZM180.747 26.95C180.997 26.95 181.207 26.92 181.377 26.86C181.547 26.8 181.682 26.72 181.782 26.62C181.886 26.52 181.959 26.4033 182.002 26.27C182.049 26.1367 182.072 25.995 182.072 25.845C182.072 25.6883 182.047 25.5483 181.997 25.425C181.947 25.2983 181.869 25.1917 181.762 25.105C181.656 25.015 181.517 24.9467 181.347 24.9C181.181 24.8533 180.979 24.83 180.742 24.83H179.387V26.95H180.747ZM179.387 21.81V23.9H180.457C180.917 23.9 181.264 23.8167 181.497 23.65C181.734 23.4833 181.852 23.2183 181.852 22.855C181.852 22.4783 181.746 22.21 181.532 22.05C181.319 21.89 180.986 21.81 180.532 21.81H179.387ZM180.532 20.77C181.006 20.77 181.411 20.815 181.747 20.905C182.084 20.995 182.359 21.1233 182.572 21.29C182.789 21.4567 182.947 21.6583 183.047 21.895C183.147 22.1317 183.197 22.3983 183.197 22.695C183.197 22.865 183.172 23.0283 183.122 23.185C183.072 23.3383 182.994 23.4833 182.887 23.62C182.784 23.7533 182.651 23.875 182.487 23.985C182.327 24.095 182.136 24.1883 181.912 24.265C182.906 24.4883 183.402 25.025 183.402 25.875C183.402 26.1817 183.344 26.465 183.227 26.725C183.111 26.985 182.941 27.21 182.717 27.4C182.494 27.5867 182.219 27.7333 181.892 27.84C181.566 27.9467 181.192 28 180.772 28H178.042V20.77H180.532ZM185.675 21.84V23.845H188.205V24.88H185.675V26.925H188.885V28H184.325V20.77H188.885V21.84H185.675ZM194.826 21.875H192.646V28H191.301V21.875H189.121V20.77H194.826V21.875ZM202.123 24.385C202.123 24.915 202.035 25.4067 201.858 25.86C201.685 26.31 201.438 26.7 201.118 27.03C200.798 27.36 200.413 27.6183 199.963 27.805C199.513 27.9883 199.013 28.08 198.463 28.08C197.917 28.08 197.418 27.9883 196.968 27.805C196.518 27.6183 196.132 27.36 195.808 27.03C195.488 26.7 195.24 26.31 195.063 25.86C194.887 25.4067 194.798 24.915 194.798 24.385C194.798 23.855 194.887 23.365 195.063 22.915C195.24 22.4617 195.488 22.07 195.808 21.74C196.132 21.41 196.518 21.1533 196.968 20.97C197.418 20.7833 197.917 20.69 198.463 20.69C198.83 20.69 199.175 20.7333 199.498 20.82C199.822 20.9033 200.118 21.0233 200.388 21.18C200.658 21.3333 200.9 21.5217 201.113 21.745C201.33 21.965 201.513 22.2117 201.663 22.485C201.813 22.7583 201.927 23.055 202.003 23.375C202.083 23.695 202.123 24.0317 202.123 24.385ZM200.748 24.385C200.748 23.9883 200.695 23.6333 200.588 23.32C200.482 23.0033 200.33 22.735 200.133 22.515C199.937 22.295 199.697 22.1267 199.413 22.01C199.133 21.8933 198.817 21.835 198.463 21.835C198.11 21.835 197.792 21.8933 197.508 22.01C197.228 22.1267 196.988 22.295 196.788 22.515C196.592 22.735 196.44 23.0033 196.333 23.32C196.227 23.6333 196.173 23.9883 196.173 24.385C196.173 24.7817 196.227 25.1383 196.333 25.455C196.44 25.7683 196.592 26.035 196.788 26.255C196.988 26.4717 197.228 26.6383 197.508 26.755C197.792 26.8717 198.11 26.93 198.463 26.93C198.817 26.93 199.133 26.8717 199.413 26.755C199.697 26.6383 199.937 26.4717 200.133 26.255C200.33 26.035 200.482 25.7683 200.588 25.455C200.695 25.1383 200.748 24.7817 200.748 24.385ZM207.81 21.875H205.63V28H204.285V21.875H202.105V20.77H207.81V21.875ZM209.807 21.84V23.845H212.337V24.88H209.807V26.925H213.017V28H208.457V20.77H213.017V21.84H209.807ZM219.784 28H218.444C218.35 28 218.275 27.9767 218.219 27.93C218.165 27.8833 218.122 27.83 218.089 27.77L216.414 24.995C216.387 25.0783 216.355 25.15 216.319 25.21L214.714 27.77C214.674 27.8267 214.627 27.88 214.574 27.93C214.524 27.9767 214.457 28 214.374 28H213.119L215.519 24.28L213.214 20.77H214.554C214.647 20.77 214.714 20.7833 214.754 20.81C214.797 20.8333 214.837 20.8733 214.874 20.93L216.519 23.58C216.552 23.4967 216.592 23.4133 216.639 23.33L218.149 20.955C218.185 20.8917 218.225 20.845 218.269 20.815C218.312 20.785 218.367 20.77 218.434 20.77H219.719L217.394 24.225L219.784 28ZM226.412 20.77V28H225.062V24.84H221.667V28H220.317V20.77H221.667V23.88H225.062V20.77H226.412ZM233.818 20.77V28H232.468V23.47C232.468 23.3 232.471 23.1217 232.478 22.935C232.488 22.7483 232.508 22.55 232.538 22.34C232.471 22.5267 232.398 22.7 232.318 22.86C232.241 23.0167 232.166 23.155 232.093 23.275L229.328 27.585C229.298 27.635 229.261 27.685 229.218 27.735C229.178 27.785 229.133 27.83 229.083 27.87C229.033 27.9067 228.978 27.9383 228.918 27.965C228.858 27.9883 228.796 28 228.733 28H227.723V20.77H229.073V25.3C229.073 25.47 229.068 25.65 229.058 25.84C229.051 26.0267 229.033 26.225 229.003 26.435C229.069 26.2483 229.141 26.075 229.218 25.915C229.298 25.755 229.376 25.615 229.453 25.495L232.213 21.185C232.243 21.135 232.278 21.085 232.318 21.035C232.361 20.985 232.408 20.9417 232.458 20.905C232.508 20.865 232.561 20.8333 232.618 20.81C232.678 20.7833 232.741 20.77 232.808 20.77H233.818ZM241.263 28H240.043C239.916 28 239.809 27.9667 239.723 27.9C239.639 27.8333 239.561 27.735 239.488 27.605L237.948 25.175C237.908 25.105 237.864 25.0483 237.818 25.005C237.774 24.9583 237.726 24.9217 237.673 24.895C237.623 24.865 237.564 24.845 237.498 24.835C237.434 24.825 237.361 24.82 237.278 24.82H236.473V28H235.128V20.77H236.473V23.8H237.153C237.289 23.8 237.408 23.7767 237.508 23.73C237.608 23.6833 237.701 23.5967 237.788 23.47L239.373 21.13C239.439 21.0233 239.518 20.9367 239.608 20.87C239.698 20.8033 239.806 20.77 239.933 20.77H241.083L239.118 23.67C239.034 23.7967 238.938 23.9017 238.828 23.985C238.718 24.0683 238.596 24.1333 238.463 24.18C238.663 24.2367 238.831 24.3267 238.968 24.45C239.108 24.57 239.241 24.7367 239.368 24.95L241.263 28ZM245.596 25.27L244.716 22.865C244.672 22.7583 244.627 22.6317 244.581 22.485C244.534 22.3383 244.487 22.18 244.441 22.01C244.397 22.18 244.352 22.34 244.306 22.49C244.259 22.6367 244.214 22.765 244.171 22.875L243.296 25.27H245.596ZM247.971 28H246.931C246.814 28 246.719 27.9717 246.646 27.915C246.572 27.855 246.517 27.7817 246.481 27.695L245.941 26.22H242.946L242.406 27.695C242.379 27.7717 242.327 27.8417 242.251 27.905C242.174 27.9683 242.077 28 241.961 28H240.916L243.756 20.77H245.131L247.971 28Z" fill="white" fill-opacity="0.8"/>
</svg>
