<svg xmlns="http://www.w3.org/2000/svg" width="92" height="20" viewBox="0 0 92 20" fill="none">
<path d="M0.677724 0.73648C-0.0846156 1.49997 -0.26054 4.08409 0.443158 5.14123C0.736366 5.6698 4.25486 5.96345 11.9955 6.13964C18.1529 6.2571 24.7794 6.60948 26.8318 6.78567L30.5263 7.19678L29.7053 5.49361C28.5324 3.20314 26.8318 1.85235 24.193 0.85394C21.2023 -0.2032 1.73327 -0.32066 0.677724 0.73648Z" fill="white"/>
<path d="M33.048 0.795296C32.9307 1.20641 32.8721 5.61115 32.9307 10.6032L33.1066 19.7064L35.3937 19.8825C38.1498 20.1175 38.6776 19.4714 38.6776 15.7127V12.9524H43.4862H48.2362L51.9306 16.4762C55.5663 20 55.5663 20 59.1435 20C61.1373 20 62.7206 19.8238 62.7206 19.5302C62.7206 18.8841 52.0479 8.48892 50.5818 7.72543C49.8781 7.37305 46.946 7.0794 44.014 7.0794H38.6776V4.26037C38.6776 2.73339 38.3844 1.14768 37.9739 0.736567C37.0356 -0.203114 33.4585 -0.144382 33.048 0.795296Z" fill="white"/>
<path d="M53.4549 2.67453L50.6987 5.31738H54.3345C57.7357 5.31738 58.2048 5.14119 60.3746 3.2031C61.6647 2.0285 62.7202 0.853905 62.7202 0.560255C62.7202 0.266605 61.2542 0.0316849 59.4363 0.0316849C56.387 0.0316849 56.0351 0.207875 53.4549 2.67453Z" fill="white"/>
<path d="M67.7052 0.912699C65.2423 1.79365 62.1343 4.73015 62.1343 6.1984C62.1343 6.84443 62.8966 7.07935 65.2423 7.07935C66.9429 7.07935 68.5848 6.84443 68.9367 6.49205C69.2299 6.1984 74.3904 5.84602 80.6064 5.78729L91.7483 5.6111L91.9242 3.67301C92.276 0.149209 91.8655 0.0317488 80.3718 0.0317488C73.0416 0.0904789 69.3472 0.325399 67.7052 0.912699Z" fill="white"/>
<path d="M24.8967 8.84141C25.0726 9.13506 26.5973 9.42871 28.1806 9.42871C29.9985 9.42871 30.9954 9.19379 30.7608 8.84141C30.5849 8.48903 29.0602 8.25411 27.4769 8.25411C25.659 8.25411 24.6621 8.48903 24.8967 8.84141Z" fill="white"/>
<path d="M61.2541 8.84141C61.0195 9.19379 62.0164 9.42871 63.8343 9.42871C65.4176 9.42871 66.9423 9.13506 67.1182 8.84141C67.3528 8.48903 66.3559 8.25411 64.538 8.25411C62.9547 8.25411 61.43 8.48903 61.2541 8.84141Z" fill="white"/>
<path d="M11.7021 10.016C11.7021 11.1906 11.9954 11.2493 15.983 11.0731C19.2669 10.9556 20.2052 10.7207 20.2052 10.016C20.2052 9.31121 19.2669 9.07629 15.983 8.95883C11.9954 8.78264 11.7021 8.84137 11.7021 10.016Z" fill="white"/>
<path d="M24.8966 11.1905C24.662 11.5429 25.7762 11.7778 27.8287 11.7778C29.8811 11.7778 30.9953 11.5429 30.7607 11.1905C30.5848 10.8382 29.2361 10.6032 27.8287 10.6032C26.4213 10.6032 25.0725 10.8382 24.8966 11.1905Z" fill="white"/>
<path d="M61.2545 11.1905C61.0199 11.5429 62.1341 11.7778 64.1866 11.7778C66.239 11.7778 67.3532 11.5429 67.1187 11.1905C66.9427 10.8382 65.594 10.6032 64.1866 10.6032C62.7792 10.6032 61.4304 10.8382 61.2545 11.1905Z" fill="white"/>
<path d="M12.6399 13.9507C5.42701 14.0682 1.26346 14.3618 0.73569 14.8317C0.207916 15.2428 -0.0266498 16.3587 0.0906332 17.592L0.266558 19.7063L11.9949 19.8237C23.254 19.9999 23.8405 19.9412 25.9515 18.6491C27.183 17.9444 28.7663 16.4761 29.4114 15.419L30.5842 13.5396L27.1244 13.6571C25.2479 13.7745 18.7386 13.892 12.6399 13.9507Z" fill="white"/>
<path d="M62.6616 15.4777C63.3067 16.5348 64.8313 17.9444 66.0628 18.6491C68.1739 19.9412 68.7603 19.9999 80.0195 19.8237L91.7478 19.7063L91.9237 17.592C92.041 16.3587 91.8064 15.2428 91.3373 14.8904C90.8682 14.538 84.7108 14.1269 76.0319 13.9507L61.4888 13.6571L62.6616 15.4777Z" fill="white"/>
</svg>