<svg width="24" height="24" viewBox="0 0 24 24" fill="none" xmlns="http://www.w3.org/2000/svg">
<path d="M20.9573 9.64006C20.8086 8.18789 20.2619 6.79659 19.3703 5.60166C18.4788 4.40673 17.2728 3.44889 15.8698 2.8214C14.4668 2.19391 12.9147 1.91817 11.3644 2.02102C9.81421 2.12388 8.31877 2.60182 7.02375 3.40831C5.91118 4.10667 4.97719 5.02767 4.28886 6.10515C3.60054 7.18262 3.17498 8.38984 3.04274 9.64006C2.91302 10.8821 3.07945 12.1357 3.52996 13.3098C3.98047 14.484 4.70375 15.5493 5.64734 16.4284L11.2589 21.706C11.3573 21.7992 11.4744 21.8731 11.6034 21.9236C11.7324 21.974 11.8708 22 12.0106 22C12.1504 22 12.2887 21.974 12.4178 21.9236C12.5468 21.8731 12.6639 21.7992 12.7623 21.706L18.3527 16.4284C19.2963 15.5493 20.0195 14.484 20.47 13.3098C20.9205 12.1357 21.087 10.8821 20.9573 9.64006ZM16.8704 15.027L12 19.5989L7.12962 15.027C6.41187 14.3532 5.86206 13.5385 5.51972 12.6414C5.17738 11.7443 5.05102 10.7872 5.14971 9.83884C5.24904 8.87585 5.57509 7.94562 6.10427 7.1154C6.63346 6.28517 7.35256 5.57571 8.20958 5.0383C9.33288 4.33784 10.6514 3.96419 12 3.96419C13.3486 3.96419 14.6671 4.33784 15.7904 5.0383C16.6448 5.57363 17.3624 6.27996 17.8914 7.10655C18.4205 7.93313 18.7479 8.85945 18.8503 9.81896C18.9522 10.7705 18.8274 11.7315 18.485 12.6322C18.1426 13.533 17.591 14.351 16.8704 15.027ZM12 6.0322C11.0577 6.0322 10.1365 6.29451 9.35299 6.78596C8.56947 7.27741 7.95879 7.97593 7.59818 8.79318C7.23756 9.61043 7.14321 10.5097 7.32705 11.3773C7.51089 12.2449 7.96466 13.0418 8.63099 13.6673C9.29732 14.2928 10.1463 14.7188 11.0705 14.8914C11.9947 15.0639 12.9527 14.9754 13.8233 14.6369C14.6939 14.2983 15.438 13.7251 15.9615 12.9896C16.4851 12.2541 16.7645 11.3893 16.7645 10.5048C16.7617 9.31937 16.2588 8.18328 15.3659 7.34508C14.473 6.50688 13.2628 6.03483 12 6.0322ZM12 12.9895C11.4765 12.9895 10.9647 12.8438 10.5294 12.5707C10.0941 12.2977 9.75488 11.9097 9.55454 11.4556C9.3542 11.0016 9.30178 10.502 9.40392 10.02C9.50605 9.53801 9.75815 9.09527 10.1283 8.74777C10.4985 8.40027 10.9701 8.16362 11.4836 8.06775C11.9971 7.97187 12.5293 8.02108 13.0129 8.20914C13.4966 8.39721 13.91 8.71568 14.2009 9.1243C14.4917 9.53291 14.6469 10.0133 14.6469 10.5048C14.6469 11.1637 14.3681 11.7958 13.8717 12.2617C13.3753 12.7277 12.702 12.9895 12 12.9895Z" fill="#9FDDFF"/>
</svg>
