<svg width="25" height="24" viewBox="0 0 25 24" fill="none" xmlns="http://www.w3.org/2000/svg">
<path d="M18.6321 13.8255C18.4555 13.8255 18.2708 13.7691 18.0942 13.7289C17.7365 13.6498 17.3849 13.5448 17.0424 13.4148C16.6699 13.2789 16.2605 13.286 15.8929 13.4346C15.5253 13.5833 15.2255 13.863 15.0512 14.22L14.8746 14.5824C14.0926 14.1461 13.374 13.6042 12.7389 12.9719C12.1085 12.335 11.5682 11.6143 11.1332 10.8301L11.4704 10.6046C11.8263 10.4298 12.1053 10.1291 12.2535 9.76047C12.4017 9.39181 12.4088 8.9812 12.2733 8.60765C12.1458 8.26335 12.0412 7.91097 11.9601 7.55281C11.92 7.37566 11.8879 7.19046 11.8638 7.00526C11.7663 6.43807 11.4701 5.92444 11.0285 5.55686C10.5869 5.18927 10.029 4.99189 9.45514 5.00026H7.0465C6.70048 4.997 6.35782 5.06855 6.04186 5.21004C5.72589 5.35153 5.44403 5.55964 5.21547 5.8202C4.9869 6.08076 4.817 6.38765 4.71733 6.71998C4.61765 7.05231 4.59054 7.40228 4.63785 7.74606C5.06558 11.1194 6.60172 14.2538 9.00364 16.6539C11.4056 19.0541 14.5364 20.5833 17.9015 21H18.2066C18.7986 21.0009 19.3703 20.783 19.8123 20.388C20.0663 20.1602 20.2692 19.8809 20.4076 19.5686C20.546 19.2563 20.6168 18.918 20.6152 18.5763V16.1606C20.6054 15.6013 20.4023 15.0627 20.0406 14.6369C19.6789 14.211 19.1811 13.9242 18.6321 13.8255ZM19.0335 18.6568C19.0334 18.7711 19.009 18.8841 18.9619 18.9882C18.9148 19.0924 18.8462 19.1853 18.7606 19.2607C18.6711 19.3388 18.5662 19.3971 18.4528 19.4318C18.3393 19.4665 18.2199 19.4768 18.1022 19.462C15.0953 19.0754 12.3024 17.6958 10.1639 15.5408C8.02537 13.3859 6.66305 10.5783 6.29179 7.56086C6.27901 7.44291 6.29021 7.32358 6.32471 7.2101C6.35921 7.09661 6.41629 6.99132 6.49251 6.90058C6.56775 6.81469 6.66036 6.74585 6.76419 6.69864C6.86801 6.65144 6.98067 6.62695 7.09467 6.6268H9.50332C9.69002 6.62264 9.87234 6.68388 10.0189 6.79998C10.1654 6.91609 10.267 7.0798 10.3062 7.26293C10.3383 7.48302 10.3785 7.70043 10.4266 7.91516C10.5194 8.33962 10.6428 8.75676 10.796 9.16325L9.67192 9.68664C9.57581 9.73087 9.48936 9.79369 9.41753 9.87152C9.34571 9.94934 9.28991 10.0406 9.25336 10.1401C9.2168 10.2396 9.20021 10.3454 9.20452 10.4514C9.20884 10.5573 9.23398 10.6614 9.27851 10.7576C10.434 13.2399 12.4236 15.2353 14.8987 16.3941C15.0942 16.4747 15.3134 16.4747 15.5089 16.3941C15.609 16.3582 15.701 16.3027 15.7796 16.2308C15.8581 16.1589 15.9217 16.0721 15.9665 15.9754L16.4643 14.8481C16.8794 14.997 17.303 15.1207 17.7329 15.2185C17.947 15.2668 18.1637 15.3071 18.3832 15.3393C18.5658 15.3786 18.729 15.4805 18.8448 15.6274C18.9606 15.7744 19.0216 15.9573 19.0175 16.1445L19.0335 18.6568Z" fill="#9FDDFF"/>
</svg>
