<svg width="32" height="32" viewBox="0 0 32 32" fill="none" xmlns="http://www.w3.org/2000/svg">
<path d="M14.3334 4.66667C19.6722 4.66667 24.0001 8.99458 24.0001 14.3333C24.0001 16.5216 23.273 18.5401 22.0471 20.1603L27.6096 25.7239C28.1303 26.2446 28.1303 27.0888 27.6096 27.6095C27.0889 28.1302 26.2446 28.1302 25.7239 27.6095L20.1604 22.0471C18.5402 23.2729 16.5217 24 14.3334 24C8.99466 24 4.66675 19.6721 4.66675 14.3333C4.66675 8.99458 8.99466 4.66667 14.3334 4.66667ZM14.3334 7.33333C10.4674 7.33333 7.33341 10.4673 7.33341 14.3333C7.33341 18.1993 10.4674 21.3333 14.3334 21.3333C18.1994 21.3333 21.3334 18.1993 21.3334 14.3333C21.3334 10.4673 18.1994 7.33333 14.3334 7.33333Z" fill="#1774D8"/>
</svg>
