<svg width="25" height="24" viewBox="0 0 25 24" fill="none" xmlns="http://www.w3.org/2000/svg">
<path d="M8.63494 11C8.43743 11 8.24437 11.0586 8.08015 11.1685C7.91593 11.2784 7.78794 11.4346 7.71236 11.6173C7.63678 11.8 7.617 12.0011 7.65553 12.1951C7.69406 12.3891 7.78917 12.5673 7.92883 12.7071C8.06848 12.847 8.24641 12.9422 8.44012 12.9808C8.63383 13.0194 8.83461 12.9996 9.01708 12.9239C9.19955 12.8482 9.35551 12.72 9.46524 12.5556C9.57496 12.3911 9.63353 12.1978 9.63353 12C9.63353 11.7348 9.52832 11.4804 9.34105 11.2929C9.15378 11.1054 8.89978 11 8.63494 11ZM12.6293 11C12.4318 11 12.2387 11.0586 12.0745 11.1685C11.9103 11.2784 11.7823 11.4346 11.7067 11.6173C11.6311 11.8 11.6114 12.0011 11.6499 12.1951C11.6884 12.3891 11.7835 12.5673 11.9232 12.7071C12.0629 12.847 12.2408 12.9422 12.4345 12.9808C12.6282 13.0194 12.829 12.9996 13.0115 12.9239C13.1939 12.8482 13.3499 12.72 13.4596 12.5556C13.5693 12.3911 13.6279 12.1978 13.6279 12C13.6279 11.7348 13.5227 11.4804 13.3354 11.2929C13.1481 11.1054 12.8942 11 12.6293 11ZM16.6237 11C16.4262 11 16.2331 11.0586 16.0689 11.1685C15.9047 11.2784 15.7767 11.4346 15.7011 11.6173C15.6255 11.8 15.6057 12.0011 15.6443 12.1951C15.6828 12.3891 15.7779 12.5673 15.9176 12.7071C16.0572 12.847 16.2352 12.9422 16.4289 12.9808C16.6226 13.0194 16.8234 12.9996 17.0058 12.9239C17.1883 12.8482 17.3443 12.72 17.454 12.5556C17.5637 12.3911 17.6223 12.1978 17.6223 12C17.6223 11.7348 17.5171 11.4804 17.3298 11.2929C17.1425 11.1054 16.8885 11 16.6237 11ZM12.6293 2C11.3179 2 10.0194 2.25866 8.80786 2.7612C7.59631 3.26375 6.49547 4.00035 5.56819 4.92893C3.69547 6.8043 2.64338 9.34784 2.64338 12C2.63465 14.3091 3.43306 16.5485 4.9002 18.33L2.90302 20.33C2.76445 20.4706 2.67059 20.6492 2.63327 20.8432C2.59595 21.0372 2.61684 21.2379 2.69331 21.42C2.77625 21.5999 2.91071 21.7511 3.07961 21.8544C3.24852 21.9577 3.44425 22.0083 3.64197 22H12.6293C15.2777 22 17.8177 20.9464 19.6904 19.0711C21.5631 17.1957 22.6152 14.6522 22.6152 12C22.6152 9.34784 21.5631 6.8043 19.6904 4.92893C17.8177 3.05357 15.2777 2 12.6293 2ZM12.6293 20H6.04858L6.97727 19.07C7.07163 18.9774 7.14669 18.8669 7.19812 18.7451C7.24954 18.6232 7.2763 18.4923 7.27685 18.36C7.2731 18.0962 7.16542 17.8446 6.97727 17.66C5.6697 16.352 4.85544 14.6305 4.67321 12.7888C4.49098 10.947 4.95207 9.09901 5.97791 7.55952C7.00375 6.02004 8.53087 4.88436 10.2991 4.34597C12.0673 3.80759 13.9673 3.8998 15.6752 4.60691C17.3832 5.31402 18.7935 6.59227 19.6658 8.22389C20.5382 9.85551 20.8186 11.7395 20.4594 13.555C20.1002 15.3705 19.1235 17.005 17.6957 18.1802C16.2679 19.3554 14.4775 19.9985 12.6293 20Z" fill="#9FDDFF"/>
</svg>
