<svg width="261" height="30" viewBox="0 0 261 30" fill="none" xmlns="http://www.w3.org/2000/svg">
<path d="M0.801483 3.88387C-0.100067 4.80006 -0.308117 7.901 0.524083 9.16957C0.870833 9.80386 5.03183 10.1562 14.186 10.3677C21.4678 10.5086 29.3043 10.9315 31.7316 11.1429L36.1006 11.6362L35.1297 9.59243C33.7427 6.84386 31.7316 5.22292 28.6108 4.02483C25.074 2.75626 2.04978 2.61531 0.801483 3.88387Z" fill="#1774D8"/>
<path d="M39.0829 3.95436C38.9442 4.44769 38.8748 9.73339 38.9442 15.7238L39.1522 26.6476L41.8569 26.859C45.1163 27.141 45.7405 26.3657 45.7405 21.8553V18.5429H51.4272H57.0445L61.4136 22.7714C65.7133 27 65.7133 27 69.9436 27C72.3015 27 74.174 26.7886 74.174 26.4362C74.174 25.661 61.5523 13.1867 59.8185 12.2705C58.9863 11.8477 55.5188 11.4953 52.0513 11.4953H45.7405V8.11244C45.7405 6.28006 45.3937 4.37721 44.9083 3.88388C43.7987 2.75627 39.5683 2.82674 39.0829 3.95436Z" fill="#1774D8"/>
<path d="M63.2165 6.20968L59.957 9.3811H64.2567C68.279 9.3811 68.8338 9.16968 71.3998 6.84397C72.9255 5.43445 74.1738 4.02493 74.1738 3.67255C74.1738 3.32017 72.44 3.03827 70.2902 3.03827C66.684 3.03827 66.2679 3.24969 63.2165 6.20968Z" fill="#1774D8"/>
<path d="M80.0682 4.09538C77.1555 5.15252 73.48 8.67632 73.48 10.4382C73.48 11.2135 74.3815 11.4954 77.1555 11.4954C79.1667 11.4954 81.1085 11.2135 81.5246 10.7906C81.8713 10.4382 87.9741 10.0154 95.3252 9.94489L108.502 9.73346L108.71 7.40775C109.126 3.1792 108.64 3.03824 95.0478 3.03824C86.3791 3.10872 82.01 3.39062 80.0682 4.09538Z" fill="#1774D8"/>
<path d="M29.4434 13.6094C29.6514 13.9618 31.4545 14.3142 33.327 14.3142C35.4768 14.3142 36.6558 14.0323 36.3784 13.6094C36.1703 13.1866 34.3672 12.9047 32.4948 12.9047C30.3449 12.9047 29.166 13.1866 29.4434 13.6094Z" fill="#1774D8"/>
<path d="M72.44 13.6094C72.1626 14.0323 73.3415 14.3142 75.4914 14.3142C77.3638 14.3142 79.1669 13.9618 79.375 13.6094C79.6524 13.1866 78.4734 12.9047 76.3236 12.9047C74.4511 12.9047 72.648 13.1866 72.44 13.6094Z" fill="#1774D8"/>
<path d="M13.8394 15.0192C13.8394 16.4287 14.1861 16.4992 18.9019 16.2877C22.7855 16.1468 23.8951 15.8649 23.8951 15.0192C23.8951 14.1735 22.7855 13.8915 18.9019 13.7506C14.1861 13.5392 13.8394 13.6096 13.8394 15.0192Z" fill="#1774D8"/>
<path d="M29.4432 16.4285C29.1658 16.8514 30.4835 17.1333 32.9107 17.1333C35.338 17.1333 36.6556 16.8514 36.3782 16.4285C36.1702 16.0057 34.5751 15.7238 32.9107 15.7238C31.2463 15.7238 29.6513 16.0057 29.4432 16.4285Z" fill="#1774D8"/>
<path d="M72.4398 16.4285C72.1624 16.8514 73.4801 17.1333 75.9073 17.1333C78.3346 17.1333 79.6522 16.8514 79.3748 16.4285C79.1668 16.0057 77.5717 15.7238 75.9073 15.7238C74.2429 15.7238 72.6479 16.0057 72.4398 16.4285Z" fill="#1774D8"/>
<path d="M14.9491 19.7409C6.41909 19.8818 1.49524 20.2342 0.871095 20.798C0.246945 21.2913 -0.0304548 22.6304 0.108245 24.1104L0.316295 26.6475L14.1863 26.7885C27.5015 26.9999 28.195 26.9294 30.6916 25.3789C32.1479 24.5332 34.0204 22.7713 34.7832 21.5028L36.1702 19.2475L32.0786 19.3885C29.8594 19.5294 22.1615 19.6704 14.9491 19.7409Z" fill="#1774D8"/>
<path d="M74.1048 21.5732C74.8676 22.8418 76.6707 24.5332 78.1271 25.3789C80.6237 26.9294 81.3172 26.9999 94.6324 26.7885L108.502 26.6475L108.71 24.1104C108.849 22.6304 108.572 21.2913 108.017 20.8685C107.462 20.4456 100.18 19.9523 89.9166 19.7409L72.7178 19.3885L74.1048 21.5732Z" fill="#1774D8"/>
<path d="M121.77 5.42041C121.419 5.42041 121.07 5.47054 120.723 5.5708C120.379 5.67106 120.042 5.79102 119.713 5.93066L119.187 4.58789C119.57 4.41602 119.978 4.28174 120.411 4.18506C120.844 4.0848 121.308 4.03467 121.802 4.03467C122.379 4.03467 122.893 4.12598 123.344 4.30859C123.799 4.48763 124.182 4.75081 124.493 5.09814C124.808 5.44548 125.046 5.86979 125.208 6.37109C125.372 6.8724 125.455 7.44352 125.455 8.08447C125.455 8.89014 125.319 9.59554 125.046 10.2007C124.778 10.8022 124.362 11.2713 123.8 11.6079C123.238 11.9409 122.52 12.1074 121.646 12.1074C121.195 12.1074 120.789 12.0752 120.427 12.0107C120.069 11.9499 119.702 11.8478 119.326 11.7046V10.3081C119.745 10.4406 120.132 10.5426 120.486 10.6143C120.844 10.6859 121.199 10.7217 121.55 10.7217C121.886 10.7217 122.184 10.6805 122.441 10.5981C122.703 10.5122 122.923 10.3869 123.102 10.2222C123.285 10.0539 123.426 9.84619 123.526 9.59912C123.63 9.34847 123.689 9.05664 123.704 8.72363H120.298V7.35938H123.693C123.682 7.05143 123.63 6.7793 123.537 6.54297C123.444 6.30306 123.313 6.09896 123.145 5.93066C122.977 5.76237 122.776 5.63525 122.543 5.54932C122.314 5.46338 122.056 5.42041 121.77 5.42041ZM133.076 12H131.417V5.5332H129.494C129.451 5.86979 129.404 6.23682 129.354 6.63428C129.304 7.03174 129.252 7.43278 129.198 7.8374C129.145 8.24202 129.087 8.62695 129.027 8.99219C128.969 9.35742 128.912 9.6779 128.855 9.95361C128.762 10.4119 128.634 10.8022 128.473 11.1245C128.316 11.4432 128.099 11.6867 127.823 11.855C127.551 12.0233 127.195 12.1074 126.755 12.1074C126.608 12.1074 126.466 12.0967 126.33 12.0752C126.198 12.0537 126.074 12.0251 125.96 11.9893V10.625C126.053 10.6572 126.146 10.6841 126.239 10.7056C126.332 10.7235 126.434 10.7324 126.545 10.7324C126.688 10.7324 126.807 10.6859 126.9 10.5928C126.996 10.4961 127.082 10.3332 127.157 10.104C127.233 9.87126 127.308 9.55078 127.383 9.14258C127.415 8.96354 127.458 8.7111 127.512 8.38525C127.566 8.05583 127.627 7.6709 127.695 7.23047C127.763 6.78646 127.832 6.30306 127.904 5.78027C127.979 5.25749 128.051 4.71322 128.119 4.14746H133.076V12ZM139.361 12H134.838V4.14746H139.361V5.51172H136.503V7.23584H139.162V8.6001H136.503V10.625H139.361V12ZM147.187 12H145.296L142.449 8.02002V12H140.784V4.14746H142.449V7.9502L145.264 4.14746H147.036L144.173 7.91797L147.187 12ZM150.984 12H149.319V5.5332H147.187V4.14746H153.117V5.5332H150.984V12ZM156.613 4.14746C157.627 4.14746 158.366 4.36589 158.832 4.80273C159.297 5.236 159.53 5.83398 159.53 6.59668C159.53 6.94043 159.478 7.26986 159.374 7.58496C159.27 7.89648 159.1 8.17399 158.864 8.41748C158.631 8.66097 158.32 8.85433 157.929 8.99756C157.539 9.13721 157.057 9.20703 156.484 9.20703H155.77V12H154.105V4.14746H156.613ZM156.527 5.51172H155.77V7.84277H156.318C156.629 7.84277 156.9 7.8016 157.129 7.71924C157.358 7.63688 157.535 7.50798 157.661 7.33252C157.786 7.15706 157.849 6.93148 157.849 6.65576C157.849 6.26904 157.741 5.98258 157.526 5.79639C157.312 5.60661 156.979 5.51172 156.527 5.51172ZM167.92 8.06299C167.92 8.66813 167.845 9.21956 167.694 9.71729C167.544 10.2114 167.315 10.6375 167.007 10.9956C166.702 11.3537 166.316 11.6294 165.847 11.8228C165.377 12.0125 164.822 12.1074 164.181 12.1074C163.541 12.1074 162.986 12.0125 162.516 11.8228C162.047 11.6294 161.659 11.3537 161.351 10.9956C161.047 10.6375 160.819 10.2096 160.669 9.71191C160.518 9.21419 160.443 8.66097 160.443 8.05225C160.443 7.23942 160.576 6.53223 160.841 5.93066C161.109 5.32552 161.521 4.85645 162.076 4.52344C162.631 4.19043 163.336 4.02393 164.192 4.02393C165.044 4.02393 165.744 4.19043 166.292 4.52344C166.844 4.85645 167.252 5.32552 167.517 5.93066C167.785 6.53581 167.92 7.24658 167.92 8.06299ZM162.189 8.06299C162.189 8.61084 162.257 9.0835 162.393 9.48096C162.533 9.87484 162.749 10.1792 163.043 10.394C163.336 10.6053 163.716 10.7109 164.181 10.7109C164.654 10.7109 165.037 10.6053 165.331 10.394C165.624 10.1792 165.838 9.87484 165.97 9.48096C166.106 9.0835 166.174 8.61084 166.174 8.06299C166.174 7.23942 166.02 6.59131 165.712 6.11865C165.404 5.646 164.898 5.40967 164.192 5.40967C163.723 5.40967 163.34 5.51709 163.043 5.73193C162.749 5.9432 162.533 6.24756 162.393 6.64502C162.257 7.0389 162.189 7.51156 162.189 8.06299ZM176.455 8.06299C176.455 8.66813 176.379 9.21956 176.229 9.71729C176.079 10.2114 175.849 10.6375 175.542 10.9956C175.237 11.3537 174.85 11.6294 174.381 11.8228C173.912 12.0125 173.357 12.1074 172.716 12.1074C172.075 12.1074 171.52 12.0125 171.051 11.8228C170.582 11.6294 170.194 11.3537 169.886 10.9956C169.581 10.6375 169.354 10.2096 169.204 9.71191C169.053 9.21419 168.978 8.66097 168.978 8.05225C168.978 7.23942 169.111 6.53223 169.376 5.93066C169.644 5.32552 170.056 4.85645 170.611 4.52344C171.166 4.19043 171.871 4.02393 172.727 4.02393C173.579 4.02393 174.279 4.19043 174.827 4.52344C175.379 4.85645 175.787 5.32552 176.052 5.93066C176.32 6.53581 176.455 7.24658 176.455 8.06299ZM170.724 8.06299C170.724 8.61084 170.792 9.0835 170.928 9.48096C171.067 9.87484 171.284 10.1792 171.578 10.394C171.871 10.6053 172.251 10.7109 172.716 10.7109C173.189 10.7109 173.572 10.6053 173.866 10.394C174.159 10.1792 174.372 9.87484 174.505 9.48096C174.641 9.0835 174.709 8.61084 174.709 8.06299C174.709 7.23942 174.555 6.59131 174.247 6.11865C173.939 5.646 173.432 5.40967 172.727 5.40967C172.258 5.40967 171.875 5.51709 171.578 5.73193C171.284 5.9432 171.067 6.24756 170.928 6.64502C170.792 7.0389 170.724 7.51156 170.724 8.06299ZM177.862 12V4.14746H182.825V5.52246H179.527V7.16064H180.182C180.92 7.16064 181.525 7.2627 181.998 7.4668C182.474 7.6709 182.825 7.95378 183.051 8.31543C183.28 8.6735 183.394 9.0835 183.394 9.54541C183.394 10.3224 183.135 10.9258 182.615 11.3555C182.1 11.7852 181.278 12 180.15 12H177.862ZM179.527 10.6357H180.086C180.591 10.6357 180.988 10.5552 181.278 10.394C181.568 10.2293 181.713 9.94645 181.713 9.54541C181.713 9.26611 181.642 9.05306 181.498 8.90625C181.359 8.75944 181.156 8.65918 180.891 8.60547C180.63 8.55176 180.317 8.5249 179.951 8.5249H179.527V10.6357ZM191.795 8.06299C191.795 8.66813 191.72 9.21956 191.569 9.71729C191.419 10.2114 191.19 10.6375 190.882 10.9956C190.577 11.3537 190.191 11.6294 189.722 11.8228C189.253 12.0125 188.698 12.1074 188.057 12.1074C187.416 12.1074 186.861 12.0125 186.392 11.8228C185.923 11.6294 185.534 11.3537 185.226 10.9956C184.922 10.6375 184.694 10.2096 184.544 9.71191C184.394 9.21419 184.318 8.66097 184.318 8.05225C184.318 7.23942 184.451 6.53223 184.716 5.93066C184.984 5.32552 185.396 4.85645 185.951 4.52344C186.506 4.19043 187.212 4.02393 188.067 4.02393C188.92 4.02393 189.62 4.19043 190.167 4.52344C190.719 4.85645 191.127 5.32552 191.392 5.93066C191.661 6.53581 191.795 7.24658 191.795 8.06299ZM186.064 8.06299C186.064 8.61084 186.132 9.0835 186.268 9.48096C186.408 9.87484 186.624 10.1792 186.918 10.394C187.212 10.6053 187.591 10.7109 188.057 10.7109C188.529 10.7109 188.912 10.6053 189.206 10.394C189.5 10.1792 189.713 9.87484 189.845 9.48096C189.981 9.0835 190.049 8.61084 190.049 8.06299C190.049 7.23942 189.895 6.59131 189.587 6.11865C189.279 5.646 188.773 5.40967 188.067 5.40967C187.598 5.40967 187.215 5.51709 186.918 5.73193C186.624 5.9432 186.408 6.24756 186.268 6.64502C186.132 7.0389 186.064 7.51156 186.064 8.06299ZM195.711 4.14746C196.724 4.14746 197.463 4.36589 197.929 4.80273C198.394 5.236 198.627 5.83398 198.627 6.59668C198.627 6.94043 198.575 7.26986 198.471 7.58496C198.368 7.89648 198.197 8.17399 197.961 8.41748C197.728 8.66097 197.417 8.85433 197.027 8.99756C196.636 9.13721 196.155 9.20703 195.582 9.20703H194.867V12H193.202V4.14746H195.711ZM195.625 5.51172H194.867V7.84277H195.415C195.727 7.84277 195.997 7.8016 196.226 7.71924C196.455 7.63688 196.633 7.50798 196.758 7.33252C196.883 7.15706 196.946 6.93148 196.946 6.65576C196.946 6.26904 196.839 5.98258 196.624 5.79639C196.409 5.60661 196.076 5.51172 195.625 5.51172ZM206.195 4.14746L203.762 9.70117C203.544 10.2025 203.311 10.634 203.064 10.9956C202.817 11.3537 202.504 11.6294 202.124 11.8228C201.744 12.0125 201.247 12.1074 200.631 12.1074C200.437 12.1074 200.228 12.0931 200.002 12.0645C199.777 12.0394 199.567 12 199.374 11.9463V10.5176C199.553 10.5856 199.746 10.6357 199.954 10.668C200.165 10.6966 200.364 10.7109 200.55 10.7109C200.794 10.7109 200.991 10.6698 201.141 10.5874C201.291 10.505 201.411 10.394 201.501 10.2544C201.59 10.1147 201.666 9.95898 201.726 9.78711L199.009 4.14746H200.77L202.237 7.54736C202.269 7.61898 202.31 7.71566 202.36 7.8374C202.414 7.95557 202.466 8.07731 202.516 8.20264C202.57 8.32438 202.611 8.4318 202.64 8.5249H202.699C202.727 8.43538 202.765 8.32796 202.811 8.20264C202.862 8.07373 202.913 7.94303 202.967 7.81055C203.021 7.67448 203.069 7.55273 203.112 7.44531L204.476 4.14746H206.195ZM213.113 4.14746V10.6143H214.161V14.2881H212.555V12H207.635V14.2881H206.029V10.6143H206.636C206.84 10.2061 207.037 9.77458 207.227 9.31982C207.416 8.86507 207.594 8.3763 207.758 7.85352C207.923 7.33073 208.072 6.76318 208.204 6.15088C208.337 5.53857 208.448 4.87077 208.537 4.14746H213.113ZM211.454 5.5332H209.859C209.805 5.91276 209.731 6.31738 209.638 6.74707C209.545 7.17676 209.434 7.6154 209.305 8.06299C209.18 8.507 209.039 8.94564 208.881 9.37891C208.727 9.81217 208.562 10.224 208.387 10.6143H211.454V5.5332ZM222.282 8.06299C222.282 8.66813 222.207 9.21956 222.057 9.71729C221.906 10.2114 221.677 10.6375 221.369 10.9956C221.065 11.3537 220.678 11.6294 220.209 11.8228C219.74 12.0125 219.185 12.1074 218.544 12.1074C217.903 12.1074 217.348 12.0125 216.879 11.8228C216.41 11.6294 216.021 11.3537 215.713 10.9956C215.409 10.6375 215.182 10.2096 215.031 9.71191C214.881 9.21419 214.806 8.66097 214.806 8.05225C214.806 7.23942 214.938 6.53223 215.203 5.93066C215.472 5.32552 215.883 4.85645 216.438 4.52344C216.993 4.19043 217.699 4.02393 218.555 4.02393C219.407 4.02393 220.107 4.19043 220.655 4.52344C221.206 4.85645 221.614 5.32552 221.879 5.93066C222.148 6.53581 222.282 7.24658 222.282 8.06299ZM216.551 8.06299C216.551 8.61084 216.619 9.0835 216.755 9.48096C216.895 9.87484 217.112 10.1792 217.405 10.394C217.699 10.6053 218.078 10.7109 218.544 10.7109C219.016 10.7109 219.4 10.6053 219.693 10.394C219.987 10.1792 220.2 9.87484 220.332 9.48096C220.468 9.0835 220.536 8.61084 220.536 8.06299C220.536 7.23942 220.383 6.59131 220.075 6.11865C219.767 5.646 219.26 5.40967 218.555 5.40967C218.085 5.40967 217.702 5.51709 217.405 5.73193C217.112 5.9432 216.895 6.24756 216.755 6.64502C216.619 7.0389 216.551 7.51156 216.551 8.06299ZM223.69 4.14746H226.133C227.179 4.14746 227.97 4.29427 228.507 4.58789C229.045 4.88151 229.313 5.39714 229.313 6.13477C229.313 6.43197 229.265 6.70052 229.168 6.94043C229.075 7.18034 228.939 7.37728 228.76 7.53125C228.581 7.68522 228.362 7.78548 228.105 7.83203V7.88574C228.366 7.93945 228.602 8.03255 228.814 8.16504C229.025 8.29395 229.193 8.48372 229.318 8.73438C229.447 8.98145 229.512 9.31087 229.512 9.72266C229.512 10.1989 229.395 10.6071 229.163 10.9473C228.93 11.2874 228.597 11.5488 228.164 11.7314C227.734 11.9105 227.222 12 226.628 12H223.69V4.14746ZM225.355 7.25732H226.321C226.805 7.25732 227.14 7.18213 227.326 7.03174C227.512 6.87777 227.605 6.65218 227.605 6.35498C227.605 6.0542 227.494 5.83936 227.272 5.71045C227.054 5.57796 226.706 5.51172 226.23 5.51172H225.355V7.25732ZM225.355 8.57861V10.625H226.44C226.941 10.625 227.29 10.5283 227.487 10.335C227.684 10.1416 227.782 9.882 227.782 9.55615C227.782 9.36279 227.739 9.19271 227.653 9.0459C227.567 8.89909 227.422 8.78451 227.218 8.70215C227.018 8.61979 226.74 8.57861 226.386 8.57861H225.355ZM235.667 12L235.098 10.1309H232.235L231.666 12H229.872L232.643 4.11523H234.679L237.461 12H235.667ZM234.7 8.73438L234.131 6.9082C234.095 6.78646 234.047 6.6307 233.986 6.44092C233.929 6.24756 233.87 6.05241 233.809 5.85547C233.752 5.65495 233.705 5.48128 233.669 5.33447C233.633 5.48128 233.583 5.6639 233.519 5.88232C233.458 6.09717 233.399 6.30127 233.342 6.49463C233.284 6.68799 233.243 6.82585 233.218 6.9082L232.654 8.73438H234.7ZM244.669 12H243.01V8.61084H239.9V12H238.235V4.14746H239.9V7.2251H243.01V4.14746H244.669V12ZM246.437 4.14746H247.935V7.93945C247.935 8.12565 247.932 8.33154 247.925 8.55713C247.921 8.78271 247.914 9.00472 247.903 9.22314C247.896 9.43799 247.889 9.62598 247.882 9.78711C247.874 9.94824 247.867 10.0557 247.86 10.1094H247.892L251.518 4.14746H253.51V12H252.028V8.22949C252.028 8.02897 252.032 7.81055 252.039 7.57422C252.046 7.33789 252.055 7.10872 252.066 6.88672C252.08 6.66471 252.093 6.47314 252.103 6.31201C252.114 6.1473 252.121 6.03809 252.125 5.98438H252.082L248.44 12H246.437V4.14746ZM259.795 12H255.272V4.14746H259.795V5.51172H256.937V7.23584H259.596V8.6001H256.937V10.625H259.795V12ZM126.19 27H124.3L121.453 23.02V27H119.788V19.1475H121.453V22.9502L124.268 19.1475H126.04L123.177 22.918L126.19 27ZM131.766 27L131.197 25.1309H128.334L127.764 27H125.97L128.742 19.1152H130.778L133.56 27H131.766ZM130.799 23.7344L130.23 21.9082C130.194 21.7865 130.146 21.6307 130.085 21.4409C130.027 21.2476 129.968 21.0524 129.907 20.8555C129.85 20.6549 129.804 20.4813 129.768 20.3345C129.732 20.4813 129.682 20.6639 129.617 20.8823C129.557 21.0972 129.497 21.3013 129.44 21.4946C129.383 21.688 129.342 21.8258 129.317 21.9082L128.753 23.7344H130.799ZM134.333 27V19.1475H139.296V20.5225H135.998V22.1606H136.654C137.391 22.1606 137.997 22.2627 138.469 22.4668C138.945 22.6709 139.296 22.9538 139.522 23.3154C139.751 23.6735 139.866 24.0835 139.866 24.5454C139.866 25.3224 139.606 25.9258 139.087 26.3555C138.571 26.7852 137.749 27 136.622 27H134.333ZM135.998 25.6357H136.557C137.062 25.6357 137.459 25.5552 137.749 25.394C138.039 25.2293 138.185 24.9465 138.185 24.5454C138.185 24.2661 138.113 24.0531 137.97 23.9062C137.83 23.7594 137.628 23.6592 137.363 23.6055C137.101 23.5518 136.788 23.5249 136.423 23.5249H135.998V25.6357ZM145.661 27H141.139V19.1475H145.661V20.5117H142.804V22.2358H145.463V23.6001H142.804V25.625H145.661V27ZM153.299 27H151.64V20.5332H149.717C149.674 20.8698 149.627 21.2368 149.577 21.6343C149.527 22.0317 149.475 22.4328 149.421 22.8374C149.368 23.242 149.31 23.627 149.249 23.9922C149.192 24.3574 149.135 24.6779 149.078 24.9536C148.984 25.4119 148.857 25.8022 148.696 26.1245C148.539 26.4432 148.322 26.6867 148.046 26.855C147.774 27.0233 147.418 27.1074 146.977 27.1074C146.831 27.1074 146.689 27.0967 146.553 27.0752C146.421 27.0537 146.297 27.0251 146.183 26.9893V25.625C146.276 25.6572 146.369 25.6841 146.462 25.7056C146.555 25.7235 146.657 25.7324 146.768 25.7324C146.911 25.7324 147.029 25.6859 147.122 25.5928C147.219 25.4961 147.305 25.3332 147.38 25.104C147.455 24.8713 147.531 24.5508 147.606 24.1426C147.638 23.9635 147.681 23.7111 147.735 23.3853C147.788 23.0558 147.849 22.6709 147.917 22.2305C147.985 21.7865 148.055 21.3031 148.127 20.7803C148.202 20.2575 148.274 19.7132 148.342 19.1475H153.299V27ZM155.061 27V19.1475H156.726V22.1606H157.381C158.119 22.1606 158.724 22.2627 159.197 22.4668C159.673 22.6709 160.024 22.9538 160.25 23.3154C160.479 23.6735 160.593 24.0835 160.593 24.5454C160.593 25.3224 160.334 25.9258 159.815 26.3555C159.299 26.7852 158.477 27 157.349 27H155.061ZM156.726 25.6357H157.285C157.79 25.6357 158.187 25.5552 158.477 25.394C158.767 25.2293 158.912 24.9465 158.912 24.5454C158.912 24.2661 158.841 24.0531 158.697 23.9062C158.558 23.7594 158.355 23.6592 158.09 23.6055C157.829 23.5518 157.516 23.5249 157.15 23.5249H156.726V25.6357ZM163.263 25.7217L163.344 25.8452C163.279 26.103 163.195 26.3805 163.091 26.6777C162.991 26.9749 162.88 27.2721 162.758 27.5693C162.64 27.8665 162.52 28.1494 162.398 28.418H161.217C161.288 28.1279 161.358 27.8236 161.426 27.5049C161.494 27.1862 161.557 26.8729 161.614 26.5649C161.675 26.257 161.723 25.9759 161.759 25.7217H163.263ZM170.756 20.4204C170.437 20.4204 170.155 20.4831 169.907 20.6084C169.664 20.7301 169.458 20.9074 169.29 21.1401C169.125 21.3729 169 21.654 168.914 21.9834C168.828 22.3128 168.785 22.6834 168.785 23.0952C168.785 23.6502 168.853 24.1247 168.989 24.5186C169.129 24.9089 169.344 25.2078 169.634 25.4155C169.924 25.6196 170.298 25.7217 170.756 25.7217C171.075 25.7217 171.393 25.6859 171.712 25.6143C172.034 25.5426 172.384 25.4406 172.76 25.3081V26.7046C172.412 26.8478 172.07 26.9499 171.734 27.0107C171.397 27.0752 171.019 27.1074 170.6 27.1074C169.791 27.1074 169.125 26.9409 168.602 26.6079C168.083 26.2713 167.698 25.8022 167.448 25.2007C167.197 24.5955 167.072 23.8901 167.072 23.0845C167.072 22.4901 167.152 21.9458 167.313 21.4517C167.474 20.9575 167.711 20.5296 168.022 20.168C168.334 19.8063 168.719 19.527 169.177 19.3301C169.635 19.1331 170.162 19.0347 170.756 19.0347C171.146 19.0347 171.537 19.0848 171.927 19.1851C172.321 19.2817 172.697 19.416 173.055 19.5879L172.518 20.9414C172.224 20.8018 171.929 20.68 171.632 20.5762C171.334 20.4723 171.043 20.4204 170.756 20.4204ZM174.215 19.1475H176.659C177.705 19.1475 178.496 19.2943 179.033 19.5879C179.57 19.8815 179.839 20.3971 179.839 21.1348C179.839 21.432 179.791 21.7005 179.694 21.9404C179.601 22.1803 179.465 22.3773 179.286 22.5312C179.107 22.6852 178.888 22.7855 178.63 22.832V22.8857C178.892 22.9395 179.128 23.0326 179.339 23.165C179.551 23.2939 179.719 23.4837 179.844 23.7344C179.973 23.9814 180.038 24.3109 180.038 24.7227C180.038 25.1989 179.921 25.6071 179.688 25.9473C179.456 26.2874 179.123 26.5488 178.689 26.7314C178.26 26.9105 177.748 27 177.153 27H174.215V19.1475ZM175.88 22.2573H176.847C177.331 22.2573 177.665 22.1821 177.852 22.0317C178.038 21.8778 178.131 21.6522 178.131 21.355C178.131 21.0542 178.02 20.8394 177.798 20.7104C177.579 20.578 177.232 20.5117 176.756 20.5117H175.88V22.2573ZM175.88 23.5786V25.625H176.965C177.467 25.625 177.816 25.5283 178.013 25.335C178.21 25.1416 178.308 24.882 178.308 24.5562C178.308 24.3628 178.265 24.1927 178.179 24.0459C178.093 23.8991 177.948 23.7845 177.744 23.7021C177.544 23.6198 177.266 23.5786 176.912 23.5786H175.88ZM185.908 27H181.386V19.1475H185.908V20.5117H183.051V22.2358H185.71V23.6001H183.051V25.625H185.908V27ZM190.361 27H188.696V20.5332H186.564V19.1475H192.494V20.5332H190.361V27ZM200.61 23.063C200.61 23.6681 200.534 24.2196 200.384 24.7173C200.234 25.2114 200.004 25.6375 199.696 25.9956C199.392 26.3537 199.005 26.6294 198.536 26.8228C198.067 27.0125 197.512 27.1074 196.871 27.1074C196.23 27.1074 195.675 27.0125 195.206 26.8228C194.737 26.6294 194.349 26.3537 194.041 25.9956C193.736 25.6375 193.509 25.2096 193.359 24.7119C193.208 24.2142 193.133 23.661 193.133 23.0522C193.133 22.2394 193.265 21.5322 193.53 20.9307C193.799 20.3255 194.211 19.8564 194.766 19.5234C195.321 19.1904 196.026 19.0239 196.882 19.0239C197.734 19.0239 198.434 19.1904 198.982 19.5234C199.534 19.8564 199.942 20.3255 200.207 20.9307C200.475 21.5358 200.61 22.2466 200.61 23.063ZM194.879 23.063C194.879 23.6108 194.947 24.0835 195.083 24.481C195.222 24.8748 195.439 25.1792 195.733 25.394C196.026 25.6053 196.406 25.7109 196.871 25.7109C197.344 25.7109 197.727 25.6053 198.021 25.394C198.314 25.1792 198.527 24.8748 198.66 24.481C198.796 24.0835 198.864 23.6108 198.864 23.063C198.864 22.2394 198.71 21.5913 198.402 21.1187C198.094 20.646 197.587 20.4097 196.882 20.4097C196.413 20.4097 196.03 20.5171 195.733 20.7319C195.439 20.9432 195.222 21.2476 195.083 21.645C194.947 22.0389 194.879 22.5116 194.879 23.063ZM205.046 27H203.381V20.5332H201.249V19.1475H207.179V20.5332H205.046V27ZM212.69 27H208.167V19.1475H212.69V20.5117H209.832V22.2358H212.491V23.6001H209.832V25.625H212.69V27ZM220.462 27H218.56L216.734 24.0298L214.908 27H213.125L215.73 22.9502L213.291 19.1475H215.128L216.82 21.9727L218.48 19.1475H220.274L217.808 23.0415L220.462 27ZM227.665 27H226.005V23.6108H222.895V27H221.23V19.1475H222.895V22.2251H226.005V19.1475H227.665V27ZM229.432 19.1475H230.93V22.9395C230.93 23.1257 230.927 23.3315 230.92 23.5571C230.916 23.7827 230.909 24.0047 230.898 24.2231C230.891 24.438 230.884 24.626 230.877 24.7871C230.87 24.9482 230.862 25.0557 230.855 25.1094H230.887L234.513 19.1475H236.506V27H235.023V23.2295C235.023 23.029 235.027 22.8105 235.034 22.5742C235.041 22.3379 235.05 22.1087 235.061 21.8867C235.075 21.6647 235.088 21.4731 235.098 21.312C235.109 21.1473 235.116 21.0381 235.12 20.9844H235.077L231.435 27H229.432V19.1475ZM244.67 27H242.779L239.933 23.02V27H238.268V19.1475H239.933V22.9502L242.747 19.1475H244.519L241.657 22.918L244.67 27ZM250.245 27L249.676 25.1309H246.813L246.244 27H244.45L247.221 19.1152H249.257L252.039 27H250.245ZM249.278 23.7344L248.709 21.9082C248.673 21.7865 248.625 21.6307 248.564 21.4409C248.507 21.2476 248.448 21.0524 248.387 20.8555C248.33 20.6549 248.283 20.4813 248.247 20.3345C248.211 20.4813 248.161 20.6639 248.097 20.8823C248.036 21.0972 247.977 21.3013 247.92 21.4946C247.862 21.688 247.821 21.8258 247.796 21.9082L247.232 23.7344H249.278Z" fill="#1774D8"/>
</svg>
