<svg xmlns="http://www.w3.org/2000/svg" width="32" height="32" viewBox="0 0 32 32" fill="none">
<path d="M28.0001 2.6665H4.00008C3.64646 2.6665 3.30732 2.80698 3.05727 3.05703C2.80722 3.30708 2.66675 3.64622 2.66675 3.99984V27.9998C2.66675 28.3535 2.80722 28.6926 3.05727 28.9426C3.30732 29.1927 3.64646 29.3332 4.00008 29.3332H28.0001C28.3537 29.3332 28.6928 29.1927 28.9429 28.9426C29.1929 28.6926 29.3334 28.3535 29.3334 27.9998V3.99984C29.3334 3.64622 29.1929 3.30708 28.9429 3.05703C28.6928 2.80698 28.3537 2.6665 28.0001 2.6665Z" fill="#1774D8"/>
<path d="M23.6571 10.3529C23.2 9.88235 22.5143 9.88235 22.0571 10.3529L13.4857 19.1765L9.94286 15.5294C9.48571 15.0588 8.8 15.0588 8.34286 15.5294C7.88571 16 7.88571 16.7059 8.34286 17.1765L12.6857 21.6471C12.9143 21.8824 13.1429 22 13.4857 22C13.8286 22 14.0571 21.8824 14.2857 21.6471L23.6571 12C24.1143 11.5294 24.1143 10.8235 23.6571 10.3529Z" fill="white"/>
</svg>