<svg width="24" height="24" viewBox="0 0 24 24" fill="none" xmlns="http://www.w3.org/2000/svg">
<path d="M21 2H3C2.73478 2 2.48043 2.10536 2.29289 2.29289C2.10536 2.48043 2 2.73478 2 3V21C2 21.2652 2.10536 21.5196 2.29289 21.7071C2.48043 21.8946 2.73478 22 3 22H21C21.2652 22 21.5196 21.8946 21.7071 21.7071C21.8946 21.5196 22 21.2652 22 21V3C22 2.73478 21.8946 2.48043 21.7071 2.29289C21.5196 2.10536 21.2652 2 21 2Z" fill="#1774D8"/>
<path d="M19.6571 6.35294C19.2 5.88235 18.5143 5.88235 18.0571 6.35294L9.48571 15.1765L5.94286 11.5294C5.48571 11.0588 4.8 11.0588 4.34286 11.5294C3.88571 12 3.88571 12.7059 4.34286 13.1765L8.68571 17.6471C8.91429 17.8824 9.14286 18 9.48571 18C9.82857 18 10.0571 17.8824 10.2857 17.6471L19.6571 8C20.1143 7.52941 20.1143 6.82353 19.6571 6.35294Z" fill="white"/>
</svg>
