<svg xmlns="http://www.w3.org/2000/svg" width="32" height="32" viewBox="0 0 32 32" fill="none">
<path d="M28.5893 28.5891L28.9429 28.9426L28.5893 28.5891C28.4331 28.7454 28.2211 28.8332 28.0001 28.8332H4.00008C3.77907 28.8332 3.56711 28.7454 3.41083 28.5891L3.05727 28.9426L3.41083 28.5891C3.25455 28.4328 3.16675 28.2209 3.16675 27.9998V3.99984C3.16675 3.77882 3.25455 3.56686 3.41083 3.41058C3.56711 3.2543 3.77907 3.1665 4.00008 3.1665H28.0001C28.2211 3.1665 28.4331 3.2543 28.5893 3.41058L28.9423 3.05763L28.5893 3.41058C28.7456 3.56686 28.8334 3.77882 28.8334 3.99984V27.9998C28.8334 28.2209 28.7456 28.4328 28.5893 28.5891Z" fill="#EEF2F6" stroke="#DCE6EF"/>
</svg>