<svg xmlns="http://www.w3.org/2000/svg" width="40" height="40" viewBox="0 0 40 40" fill="none">
<path d="M27.1308 10.4923L20 17.6231L12.8692 10.4923C12.554 10.1771 12.1265 10 11.6807 10C11.235 10 10.8075 10.1771 10.4923 10.4923C10.1771 10.8075 10 11.235 10 11.6807C10 12.1265 10.1771 12.554 10.4923 12.8692L17.6231 20L10.4923 27.1308C10.1771 27.446 10 27.8735 10 28.3193C10 28.765 10.1771 29.1925 10.4923 29.5077C10.8075 29.8229 11.235 30 11.6807 30C12.1265 30 12.554 29.8229 12.8692 29.5077L20 22.3769L27.1308 29.5077C27.446 29.8229 27.8735 30 28.3193 30C28.765 30 29.1925 29.8229 29.5077 29.5077C29.8229 29.1925 30 28.765 30 28.3193C30 27.8735 29.8229 27.446 29.5077 27.1308L22.3769 20L29.5077 12.8692C29.8229 12.554 30 12.1265 30 11.6807C30 11.235 29.8229 10.8075 29.5077 10.4923C29.1925 10.1771 28.765 10 28.3193 10C27.8735 10 27.446 10.1771 27.1308 10.4923Z" fill="white"/>
</svg>