<svg xmlns="http://www.w3.org/2000/svg" width="24" height="24" viewBox="0 0 24 24" fill="none">
<path d="M16.2785 6.2954L12 10.5739L7.72152 6.2954C7.5324 6.10628 7.2759 6.00003 7.00845 6.00003C6.74099 6.00003 6.48449 6.10628 6.29537 6.2954C6.10625 6.48452 6 6.74102 6 7.00848C6 7.27593 6.10625 7.53244 6.29537 7.72156L10.5738 12L6.29537 16.2785C6.10625 16.4676 6 16.7241 6 16.9916C6 17.259 6.10625 17.5155 6.29537 17.7047C6.48449 17.8938 6.74099 18 7.00845 18C7.2759 18 7.5324 17.8938 7.72152 17.7047L12 13.4262L16.2785 17.7047C16.4676 17.8938 16.7241 18 16.9916 18C17.259 18 17.5155 17.8938 17.7046 17.7047C17.8938 17.5155 18 17.259 18 16.9916C18 16.7241 17.8938 16.4676 17.7046 16.2785L13.4262 12L17.7046 7.72156C17.8938 7.53244 18 7.27593 18 7.00848C18 6.74102 17.8938 6.48452 17.7046 6.2954C17.5155 6.10628 17.259 6.00003 16.9916 6.00003C16.7241 6.00003 16.4676 6.10628 16.2785 6.2954Z" fill="black"/>
</svg>