<svg xmlns="http://www.w3.org/2000/svg" width="18" height="18" viewBox="0 0 18 18" fill="none">
<path d="M9 8.4C8.84087 8.4 8.68826 8.46321 8.57574 8.57573C8.46322 8.68826 8.4 8.84087 8.4 9V11.4C8.4 11.5591 8.46322 11.7117 8.57574 11.8243C8.68826 11.9368 8.84087 12 9 12C9.15913 12 9.31174 11.9368 9.42427 11.8243C9.53679 11.7117 9.6 11.5591 9.6 11.4V9C9.6 8.84087 9.53679 8.68826 9.42427 8.57573C9.31174 8.46321 9.15913 8.4 9 8.4ZM9.228 6.048C9.08192 5.98799 8.91808 5.98799 8.772 6.048C8.69835 6.07656 8.63106 6.11937 8.574 6.174C8.521 6.23232 8.47839 6.29929 8.448 6.372C8.41441 6.44321 8.39797 6.52129 8.4 6.6C8.39955 6.67896 8.41468 6.75724 8.44454 6.83034C8.4744 6.90345 8.51839 6.96993 8.574 7.026C8.63232 7.079 8.69929 7.12161 8.772 7.152C8.8629 7.18934 8.96158 7.20379 9.05937 7.19407C9.15716 7.18434 9.25106 7.15075 9.33283 7.09624C9.4146 7.04173 9.48172 6.96797 9.52831 6.88144C9.57489 6.79491 9.59951 6.69827 9.6 6.6C9.59779 6.44114 9.53564 6.28898 9.426 6.174C9.36894 6.11937 9.30165 6.07656 9.228 6.048ZM9 3C7.81331 3 6.65328 3.35189 5.66658 4.01118C4.67989 4.67047 3.91085 5.60754 3.45673 6.7039C3.0026 7.80025 2.88378 9.00665 3.11529 10.1705C3.3468 11.3344 3.91825 12.4035 4.75736 13.2426C5.59648 14.0818 6.66557 14.6532 7.82946 14.8847C8.99335 15.1162 10.1997 14.9974 11.2961 14.5433C12.3925 14.0891 13.3295 13.3201 13.9888 12.3334C14.6481 11.3467 15 10.1867 15 9C15 8.21207 14.8448 7.43185 14.5433 6.7039C14.2417 5.97594 13.7998 5.31451 13.2426 4.75736C12.6855 4.20021 12.0241 3.75825 11.2961 3.45672C10.5681 3.15519 9.78793 3 9 3ZM9 13.8C8.05065 13.8 7.12262 13.5185 6.33326 12.9911C5.54391 12.4636 4.92868 11.714 4.56538 10.8369C4.20208 9.95979 4.10702 8.99467 4.29223 8.06357C4.47744 7.13246 4.9346 6.27718 5.60589 5.60589C6.27718 4.93459 7.13246 4.47744 8.06357 4.29223C8.99468 4.10702 9.9598 4.20208 10.8369 4.56538C11.714 4.92868 12.4636 5.54391 12.9911 6.33326C13.5185 7.12262 13.8 8.05065 13.8 9C13.8 10.273 13.2943 11.4939 12.3941 12.3941C11.4939 13.2943 10.273 13.8 9 13.8Z" fill="#939EAA"/>
</svg>