<svg width="24" height="24" viewBox="0 0 24 24" fill="none" xmlns="http://www.w3.org/2000/svg">
<path d="M18.0169 13.8255C17.8402 13.8255 17.6556 13.7691 17.4789 13.7289C17.1212 13.6498 16.7697 13.5448 16.4271 13.4148C16.0547 13.2789 15.6453 13.286 15.2777 13.4346C14.9101 13.5833 14.6103 13.863 14.436 14.22L14.2594 14.5824C13.4774 14.1461 12.7588 13.6042 12.1237 12.9719C11.4933 12.335 10.953 11.6143 10.5179 10.8301L10.8551 10.6046C11.2111 10.4298 11.49 10.1291 11.6383 9.76047C11.7865 9.39181 11.7935 8.9812 11.658 8.60765C11.5305 8.26335 11.4259 7.91097 11.3449 7.55281C11.3048 7.37566 11.2726 7.19046 11.2486 7.00526C11.1511 6.43807 10.8548 5.92444 10.4133 5.55686C9.97167 5.18927 9.41373 4.99189 8.83991 5.00026H6.43126C6.08525 4.997 5.74259 5.06855 5.42662 5.21004C5.11066 5.35153 4.8288 5.55964 4.60023 5.8202C4.37167 6.08076 4.20177 6.38765 4.10209 6.71998C4.00242 7.05231 3.97531 7.40228 4.02261 7.74606C4.45034 11.1194 5.98649 14.2538 8.38841 16.6539C10.7903 19.0541 13.9211 20.5833 17.2862 21H17.5913C18.1834 21.0009 18.755 20.783 19.1971 20.388C19.4511 20.1602 19.654 19.8809 19.7924 19.5686C19.9308 19.2563 20.0016 18.918 20 18.5763V16.1606C19.9901 15.6013 19.7871 15.0627 19.4254 14.6369C19.0637 14.211 18.5659 13.9242 18.0169 13.8255ZM18.4183 18.6568C18.4182 18.7711 18.3937 18.8841 18.3467 18.9882C18.2996 19.0924 18.231 19.1853 18.1453 19.2607C18.0559 19.3388 17.951 19.3971 17.8376 19.4318C17.7241 19.4665 17.6046 19.4768 17.487 19.462C14.4801 19.0754 11.6871 17.6958 9.54863 15.5408C7.41013 13.3859 6.04781 10.5783 5.67655 7.56086C5.66377 7.44291 5.67497 7.32358 5.70947 7.2101C5.74397 7.09661 5.80106 6.99132 5.87727 6.90058C5.95251 6.81469 6.04512 6.74585 6.14895 6.69864C6.25278 6.65144 6.36544 6.62695 6.47944 6.6268H8.88808C9.07479 6.62264 9.25711 6.68388 9.40365 6.79998C9.55019 6.91609 9.65179 7.0798 9.69096 7.26293C9.72308 7.48302 9.76322 7.70043 9.8114 7.91516C9.90415 8.33962 10.0276 8.75676 10.1807 9.16325L9.05669 9.68664C8.96058 9.73087 8.87413 9.79369 8.8023 9.87152C8.73047 9.94934 8.67468 10.0406 8.63812 10.1401C8.60157 10.2396 8.58497 10.3454 8.58929 10.4514C8.5936 10.5573 8.61875 10.6614 8.66327 10.7576C9.81878 13.2399 11.8084 15.2353 14.2835 16.3941C14.4789 16.4747 14.6982 16.4747 14.8936 16.3941C14.9938 16.3582 15.0858 16.3027 15.1644 16.2308C15.2429 16.1589 15.3065 16.0721 15.3513 15.9754L15.8491 14.8481C16.2641 14.997 16.6878 15.1207 17.1176 15.2185C17.3317 15.2668 17.5485 15.3071 17.768 15.3393C17.9506 15.3786 18.1138 15.4805 18.2296 15.6274C18.3453 15.7744 18.4064 15.9573 18.4022 16.1445L18.4183 18.6568Z" fill="url(#paint0_linear_213_3841)"/>
<defs>
<linearGradient id="paint0_linear_213_3841" x1="12" y1="5" x2="12" y2="21" gradientUnits="userSpaceOnUse">
<stop stop-color="#00B6DB"/>
<stop offset="1" stop-color="#0078E8"/>
</linearGradient>
</defs>
</svg>
