<svg width="96" height="48" viewBox="0 0 96 48" fill="none" xmlns="http://www.w3.org/2000/svg">
<path d="M63.2508 15.252C61.689 14.6773 60.0383 14.3889 58.3762 14.4004C53.001 14.4004 49.2047 17.1352 49.1778 21.061C49.1442 23.9451 51.8756 25.5704 53.9417 26.5341C56.0615 27.5248 56.7703 28.1491 56.7636 29.0347C56.7501 30.3818 55.0705 30.9927 53.5082 30.9927C51.3615 30.9927 50.189 30.6906 48.385 29.9339L47.7165 29.6184L46.9538 34.1379C48.2607 34.6877 50.6157 35.1594 53.0481 35.2C58.7625 35.2 62.4983 32.4821 62.542 28.3053C62.589 26.0013 61.1108 24.2607 57.9999 22.8219C56.1085 21.889 54.9361 21.2647 54.9361 20.3179C54.9361 19.4799 55.9405 18.584 58.0402 18.584C59.4377 18.5499 60.8265 18.8147 62.1153 19.361L62.6193 19.5883L63.3818 15.2215L63.2508 15.252ZM77.1994 14.7668H73.0001C71.6932 14.7668 70.7089 15.1299 70.1378 16.4395L62.0615 34.9184H67.7761L68.9183 31.8883L75.8925 31.8952C76.0572 32.6043 76.5612 34.9184 76.5612 34.9184H81.6004L77.1994 14.7668ZM41.4478 14.5972H46.8935L43.4869 34.7589H38.0479L41.4478 14.5904V14.5972ZM27.6234 25.7095L28.1877 28.5088L33.5092 14.7668H39.2775L30.7074 34.8912H24.9526L20.2493 17.8511C20.173 17.5701 19.9942 17.3288 19.7487 17.1759C18.0535 16.2914 16.2574 15.6203 14.4004 15.1774L14.4743 14.7532H23.2393C24.4285 14.8007 25.386 15.1774 25.705 16.46L27.6201 25.7197V25.7095H27.6234ZM70.4804 27.7658L72.6506 22.1264C72.6237 22.1875 73.0975 20.9626 73.373 20.2059L73.7458 21.9466L75.0057 27.7624H70.477V27.7658H70.4804Z" fill="url(#paint0_linear_212_3478)"/>
<defs>
<linearGradient id="paint0_linear_212_3478" x1="48.0004" y1="14.4" x2="48.0004" y2="35.2" gradientUnits="userSpaceOnUse">
<stop stop-color="#00B6DB"/>
<stop offset="1" stop-color="#0078E8"/>
</linearGradient>
</defs>
</svg>
