<svg width="96" height="48" viewBox="0 0 96 48" fill="none" xmlns="http://www.w3.org/2000/svg">
<path fill-rule="evenodd" clip-rule="evenodd" d="M34.5927 4.80007C39.4047 4.80007 43.8241 6.458 47.293 9.22738C44.3745 11.8137 42.1975 15.2116 41.1234 19.063H42.8068C43.7981 15.8858 45.5989 13.0569 47.9727 10.8136C50.3465 13.0569 52.1473 15.8858 53.1386 19.063H54.8486C53.7594 15.2319 51.5794 11.8542 48.6629 9.28482C52.1386 6.48029 56.5754 4.79999 61.4081 4.79999C72.5601 4.79999 81.6004 13.754 81.6004 24.8C81.6004 35.8461 72.5601 44.8 61.4081 44.8C56.4949 44.8 51.99 43.0633 48.489 40.1744C51.6209 37.4761 53.9297 33.8589 54.9855 29.744H53.3388C52.4013 33.1977 50.5143 36.2696 47.9727 38.6717C45.431 36.2696 43.5466 33.1977 42.609 29.744H41.0417C42.1036 33.7993 44.3823 37.3659 47.4668 40.0387C43.9722 42.892 39.485 44.6069 34.5927 44.6069C23.4407 44.6069 14.4004 35.696 14.4004 24.7035C14.4004 13.711 23.4407 4.80007 34.5927 4.80007ZM55.1066 24.9043C55.1066 20.9601 57.4669 18.8595 59.8932 18.8595C60.9857 18.8595 62.2589 19.3734 62.2589 19.3734L61.9164 21.5963C61.9164 21.5963 61.0562 20.9961 59.9855 20.9961C58.5573 20.9961 57.2746 22.3584 57.2746 24.8339C57.2746 26.0542 57.8729 27.1897 59.3637 27.1897C60.0714 27.1897 61.1025 26.6733 61.1025 26.6733L60.7284 28.9587C60.7284 28.9587 59.5986 29.2459 58.8895 29.2456C56.3815 29.2456 55.1066 27.5198 55.1066 24.9043ZM78.181 19.0577L80.2911 19.0526L78.6842 28.8307H76.6346L76.7268 28.0977C76.7268 28.0977 76.0279 28.956 74.7669 28.956C73.0138 28.956 72.1588 27.3037 72.1588 25.6192C72.1588 23.0096 73.7654 20.7405 75.6941 20.7405C76.9346 20.7405 77.7279 21.8077 77.7279 21.8077L78.181 19.0577ZM18.1729 28.8829L19.8535 19.0813H22.9226L23.0306 25.0947L25.1039 19.0813H28.4337L26.774 28.8829H24.6217L25.8204 21.492L23.1175 28.8829H21.6685L21.479 21.492L20.1986 28.8829H18.1729ZM39.793 27.3176C39.793 26.4974 40.9722 19.7633 41.018 19.7177H43.0938L42.8831 20.923H43.9185L43.6524 22.8616H42.5538L41.9716 26.4384C41.9257 26.7206 42.0057 27.1011 42.7277 27.1011C42.8258 27.1011 42.9308 27.0841 43.029 27.0681C43.1153 27.0542 43.1962 27.0411 43.2625 27.0411L43.0017 28.7942C43.0017 28.7942 42.9869 28.7984 42.9693 28.8032C42.9545 28.8072 42.9372 28.812 42.9254 28.8152C42.9167 28.8176 42.9076 28.8203 42.8983 28.823C42.89 28.8254 42.8813 28.828 42.8725 28.8307C42.6055 28.9096 42.0943 29.0601 41.4474 29.0656C40.4804 29.0744 39.793 28.532 39.793 27.3176ZM63.0071 21.1657C63.0071 21.1657 64.0905 20.704 65.5044 20.704C66.2345 20.704 68.3367 20.7825 68.3364 23.2269L67.525 28.9873H65.7098L65.7785 28.1889C65.7742 28.1894 65.7604 28.2051 65.7367 28.2321C65.5729 28.4192 64.9335 29.1491 63.6629 29.1491C62.9013 29.1491 61.6714 28.7293 61.6714 26.895C61.6714 24.5669 63.5449 23.7929 65.3279 23.7929C65.6085 23.7929 66.2158 23.8451 66.2158 23.8451C66.2158 23.8451 66.2842 23.7027 66.2842 23.3181C66.2842 22.6851 65.7217 22.5981 64.9538 22.5981C63.6015 22.5981 62.7068 22.9659 62.7068 22.9659L63.0071 21.1657ZM28.9473 21.1761C28.9473 21.1761 30.0361 20.7144 31.4553 20.7144C32.1879 20.7144 34.2977 20.7944 34.2977 23.2373L33.4837 28.9952H31.6607L31.7294 28.1968C31.725 28.1973 31.7111 28.2129 31.6869 28.2403C31.522 28.4278 30.8802 29.1569 29.606 29.1569C28.8415 29.1569 27.6092 28.7361 27.6092 26.9029C27.6092 24.5761 29.4889 23.8033 31.2788 23.8033C31.5602 23.8033 32.1692 23.8557 32.1692 23.8557C32.1692 23.8557 32.2377 23.7129 32.2377 23.3286C32.2377 22.6958 31.6727 22.6085 30.902 22.6085C29.5449 22.6085 28.6471 22.9765 28.6471 22.9765L28.9473 21.1761ZM34.822 23.4043C34.822 21.3237 36.3697 20.7144 37.8937 20.7144C39.0709 20.7144 39.793 20.8761 39.793 20.8761L39.535 22.6947C39.535 22.6947 38.4159 22.6033 38.1255 22.6033C37.394 22.6033 36.9953 22.7648 36.9953 23.2763C36.9953 23.675 37.3649 23.8427 37.8172 24.048C38.5308 24.3718 39.4505 24.7893 39.4505 26.3549C39.4505 28.9973 36.9767 28.9789 36.3893 28.9745C36.3802 28.9745 36.3714 28.9744 36.3633 28.9744C36.3527 28.9742 36.3431 28.9742 36.3341 28.9742C34.7153 28.9742 34.1433 28.7656 34.0366 28.7267C34.0294 28.724 34.0242 28.7222 34.0212 28.7213L34.2977 26.9211C34.2983 26.9181 34.3314 26.928 34.3913 26.9459C34.6398 27.0205 35.3514 27.2342 36.126 27.2342C36.6814 27.2342 37.401 27.1795 37.401 26.5166C37.401 26.1257 37.0015 25.9256 36.517 25.6829C35.7705 25.3089 34.822 24.8339 34.822 23.4043ZM43.734 25.5174C43.734 22.9701 45.3018 20.7149 47.4194 20.7144C49.7317 20.7144 50.4228 22.3856 50.4228 23.7565C50.4228 24.3059 50.1461 25.6531 50.1461 25.6531H45.8652C45.8652 25.6531 45.469 27.3203 47.7303 27.3203C48.7917 27.3203 49.9669 26.8089 49.9669 26.8089L49.5981 28.8152C49.5981 28.8152 48.917 29.1569 47.3721 29.1569C45.6985 29.1569 43.734 28.4577 43.734 25.5174ZM53.4258 22.071C53.4258 22.071 54.1342 20.8005 55.0882 20.8005C55.3665 20.8005 55.4991 20.8293 55.4991 20.8293C55.2164 21.3925 54.9652 21.9065 54.7062 23.2373C53.4865 22.816 53.1953 24.6392 52.7833 27.2185C52.6954 27.7681 52.6021 28.3521 52.4934 28.956H50.3042L51.6345 20.9049H53.6154L53.4258 22.071ZM71.1631 22.071C71.1631 22.071 71.8714 20.8005 72.8253 20.8005C73.1034 20.8005 73.2364 20.8293 73.2364 20.8293C72.9538 21.3925 72.7028 21.9065 72.4433 23.2373C71.2228 22.8157 70.9303 24.6429 70.5169 27.2264C70.4293 27.7737 70.3362 28.355 70.2279 28.956H68.0413L69.3717 20.9049H71.3527L71.1631 22.071Z" fill="url(#paint0_linear_212_3480)"/>
<path d="M76.0251 22.6869C76.7906 22.6866 77.1843 23.1987 77.1843 24.4035C77.1843 25.4966 76.6275 26.9576 75.4746 26.9576C74.7093 26.9576 74.3496 26.3317 74.3496 25.3506C74.3496 23.7461 75.0909 22.6869 76.0251 22.6869Z" fill="url(#paint1_linear_212_3480)"/>
<path d="M65.9349 25.4701C65.929 25.4693 65.9301 25.4712 65.9576 25.4757C65.9972 25.8342 65.7389 27.516 64.4903 27.516C63.8464 27.516 63.6816 27.009 63.6816 26.7098C63.6816 26.1264 63.9884 25.4261 65.5072 25.4261C65.785 25.4266 65.8668 25.4504 65.9184 25.4654C65.921 25.4661 65.9234 25.4669 65.9258 25.4675C65.9285 25.4685 65.9322 25.4693 65.9349 25.4701Z" fill="url(#paint2_linear_212_3480)"/>
<path d="M48.3918 23.9833H46.0234C46.0234 23.8446 46.2474 22.5302 47.409 22.5302C48.5148 22.5302 48.418 23.6665 48.3953 23.9344C48.3932 23.9579 48.3918 23.9747 48.3918 23.9833Z" fill="url(#paint3_linear_212_3480)"/>
<path d="M31.9098 25.4835C31.9493 25.8419 31.6901 27.5211 30.4371 27.5211C29.7907 27.5211 29.623 27.0165 29.623 26.7176C29.623 26.1345 29.9315 25.4339 31.4566 25.4339C31.7358 25.4342 31.8192 25.4587 31.8712 25.4739C31.8795 25.4763 31.887 25.4785 31.8944 25.4803C31.8995 25.4816 31.9045 25.4827 31.9098 25.4835Z" fill="url(#paint4_linear_212_3480)"/>
<defs>
<linearGradient id="paint0_linear_212_3480" x1="48.0004" y1="4.79999" x2="48.0004" y2="44.8" gradientUnits="userSpaceOnUse">
<stop stop-color="#00B6DB"/>
<stop offset="1" stop-color="#0078E8"/>
</linearGradient>
<linearGradient id="paint1_linear_212_3480" x1="75.767" y1="22.6869" x2="75.767" y2="26.9576" gradientUnits="userSpaceOnUse">
<stop stop-color="#00B6DB"/>
<stop offset="1" stop-color="#0078E8"/>
</linearGradient>
<linearGradient id="paint2_linear_212_3480" x1="64.8215" y1="25.4261" x2="64.8215" y2="27.516" gradientUnits="userSpaceOnUse">
<stop stop-color="#00B6DB"/>
<stop offset="1" stop-color="#0078E8"/>
</linearGradient>
<linearGradient id="paint3_linear_212_3480" x1="47.2155" y1="22.5302" x2="47.2155" y2="23.9833" gradientUnits="userSpaceOnUse">
<stop stop-color="#00B6DB"/>
<stop offset="1" stop-color="#0078E8"/>
</linearGradient>
<linearGradient id="paint4_linear_212_3480" x1="30.7683" y1="25.4339" x2="30.7683" y2="27.5211" gradientUnits="userSpaceOnUse">
<stop stop-color="#00B6DB"/>
<stop offset="1" stop-color="#0078E8"/>
</linearGradient>
</defs>
</svg>
