<svg width="96" height="48" viewBox="0 0 96 48" fill="none" xmlns="http://www.w3.org/2000/svg">
<path d="M36.2017 29.68C35.6357 29.8707 35.2625 29.9173 34.8178 29.9173C33.8985 29.9173 33.389 29.5539 33.389 28.6114C33.389 27.6291 34.0362 27.3005 35.3073 27.3005C35.6175 27.3005 35.923 27.3453 36.0655 27.395V28.0987C36.0655 28.857 36.1071 29.3547 36.2017 29.68ZM39.4689 30.805C38.7902 29.7746 38.6126 29.1672 38.6126 27.868V25.2298C38.6126 23.8093 38.4466 23.2966 38.0718 22.7789C37.549 22.0454 36.6778 21.7269 35.0766 21.7269C33.9433 21.7269 32.8431 21.8496 31.778 22.1218L32.163 23.9968C32.883 23.8957 33.638 23.8093 34.1706 23.8093C35.8714 23.8093 36.0655 24.0549 36.0655 25.3309V25.8072C35.6873 25.7059 35.2625 25.633 34.7697 25.633C32.2094 25.633 30.857 26.8858 30.857 28.9598C30.857 30.9045 32.3023 31.9648 34.0628 31.9648C34.7199 31.9648 35.4068 31.8437 35.9511 31.6214C36.2796 31.4787 36.4223 31.3941 36.8471 31.1186C37.1026 31.4902 37.6154 31.8702 37.8244 31.9416L39.4689 30.805ZM64.795 29.68C64.2258 29.8707 63.8591 29.9173 63.4111 29.9173C62.4884 29.9173 61.9724 29.5539 61.9724 28.6114C61.9724 27.6291 62.6279 27.3005 63.9021 27.3005C64.2126 27.3005 64.5194 27.3453 64.6588 27.395V28.0987C64.6588 28.857 64.6986 29.3547 64.795 29.68ZM68.0653 30.805C67.3818 29.7746 67.2076 29.1672 67.2076 27.868V25.2298C67.2076 23.8093 67.0383 23.2966 66.6599 22.7789C66.1439 22.0454 65.2711 21.7269 63.6649 21.7269C62.5332 21.7269 61.4265 21.8496 60.3612 22.1218L60.7412 23.9968C61.463 23.8957 62.2196 23.8093 62.7673 23.8093C64.458 23.8093 64.6588 24.0549 64.6588 25.3309V25.8072C64.2805 25.7059 63.8591 25.633 63.3562 25.633C60.7927 25.633 59.4353 26.8858 59.4353 28.9598C59.4353 30.9045 60.8839 31.9648 62.6527 31.9648C63.3181 31.9648 63.9985 31.8437 64.5377 31.6214C64.8713 31.4787 65.009 31.3941 65.4337 31.1186C65.6926 31.4902 66.2054 31.8702 66.4161 31.9416L68.0653 30.805ZM88.0004 31.7442C88.0004 31.7442 86.5965 28.7525 86.2532 28.0722C85.8665 27.3054 85.5081 26.7762 84.7183 26.5853V26.5422C85.2476 26.441 85.669 26.1208 86.1303 25.1418C86.5668 24.1877 86.6962 23.9819 86.9534 23.7546C87.2055 23.529 87.5508 23.6102 87.5508 23.6102L87.6801 21.8464C87.3135 21.7966 86.907 21.7949 86.4871 21.8181C85.7902 21.8597 85.4302 22.0605 85.0866 22.4056C84.8178 22.6694 84.6353 23.0643 84.4097 23.5173C84.1706 24.0117 83.9815 24.4099 83.7327 24.9128C83.4854 25.4288 83.3692 25.6611 82.7039 25.6611H82.2708V17.8474H79.7071V31.7442H82.2708V27.7485L82.6209 27.7419C83.3559 27.7419 83.4854 27.9261 83.8737 28.701C84.3284 29.6253 85.1994 31.7442 85.1994 31.7442H88.0004ZM15.7805 31.7442H18.7391L14.2639 18.0797C13.7926 17.9221 13.2102 17.8242 12.588 17.8242C11.9093 17.8242 11.667 17.9138 11.1361 18.0797L6.40039 31.7442H9.23948C9.23948 31.7442 9.62277 30.5461 10.0741 29.0611H14.979C15.4171 30.5445 15.7805 31.7442 15.7805 31.7442ZM10.7942 26.7696C10.7942 26.7696 11.6139 24.0267 11.7417 23.6003C12.0669 22.4952 12.5614 20.7395 12.5614 20.7395H12.6427C12.6427 20.7395 13.1007 22.5582 13.3994 23.5803C13.5122 23.9869 14.2954 26.7696 14.2954 26.7696H10.7942ZM43.8361 25.2064C42.9318 25.2064 42.1967 25.9448 42.1967 26.8491C42.1967 27.7602 42.9318 28.4936 43.8361 28.4936C44.7422 28.4936 45.4738 27.7602 45.4738 26.8491C45.4738 25.9448 44.7422 25.2064 43.8361 25.2064ZM22.2517 17.8474H19.6815V31.7426H22.2517V17.8474ZM73.3172 23.9354C74.7375 23.9653 74.9134 24.259 74.9134 25.4504V31.7442H77.4604V25.2298C77.4604 23.8093 77.2945 23.2966 76.9162 22.7789C76.3935 22.0454 75.3663 21.7269 73.629 21.7269C71.91 21.7269 70.815 21.9094 69.4062 22.3293V31.7442H71.9798V24.0549C72.6551 23.957 72.7745 23.9354 73.3172 23.9354ZM28.6086 17.6002C27.0025 17.6002 26.1279 17.9187 25.6135 18.6506C25.2353 19.1699 25.0676 19.6942 25.0676 21.1179V22.3293H23.7916V24.4067H25.0676V31.7442H27.6164L27.6097 24.4067H30.1502V22.3293H27.6097L27.6164 21.2158C27.6164 19.9414 27.8105 19.6942 29.513 19.6942C29.6972 19.6942 29.9045 19.7042 30.1252 19.7208L30.5268 17.7246C29.898 17.6416 29.2542 17.6002 28.6086 17.6002ZM49.058 17.7296C49.9324 17.6782 51.8871 17.6051 53.1133 17.6051C53.3373 17.6051 53.5697 17.6069 53.802 17.6184C56.2129 17.6184 57.5951 19.3739 57.5951 21.4349C57.5951 22.837 56.953 23.7678 55.4481 24.3221C57.2185 24.7136 58.146 26.0958 58.146 27.7867C58.146 29.0278 57.7959 30.0134 57.1538 30.6854C56.3209 31.5053 55.0597 31.9648 53.3806 31.9648C51.8871 31.9648 50.0121 31.9184 49.058 31.8619V17.7296ZM53.1133 20.0062C52.6885 20.0062 52.1626 20.0144 51.6415 20.0328V23.3696H53.115C53.6991 23.3696 54.1687 23.207 54.4889 22.8934C54.7943 22.5981 54.9535 22.1798 54.9535 21.6837C54.9535 20.6168 54.3761 20.0128 53.3025 20.0062H53.1133ZM53.1665 29.5688H53.2777C54.6167 29.5688 55.4364 28.857 55.4463 27.4234C55.433 26.909 55.2356 26.4344 54.8822 26.0909C54.4956 25.7026 53.9479 25.5002 53.3058 25.5002H51.6415V29.5539C52.1111 29.5638 52.6289 29.5654 53.1665 29.5688Z" fill="url(#paint0_linear_212_3496)"/>
<defs>
<linearGradient id="paint0_linear_212_3496" x1="47.2004" y1="17.6002" x2="47.2004" y2="31.9648" gradientUnits="userSpaceOnUse">
<stop stop-color="#00B6DB"/>
<stop offset="1" stop-color="#0078E8"/>
</linearGradient>
</defs>
</svg>
