<svg width="24" height="24" viewBox="0 0 24 24" fill="none" xmlns="http://www.w3.org/2000/svg">
<path d="M13.9965 10.5895H16.4158C16.5474 10.5901 16.6778 10.5689 16.7996 10.5269C16.9214 10.485 17.0322 10.4232 17.1256 10.3451L21.7043 6.48538C21.798 6.40704 21.8724 6.31383 21.9231 6.21114C21.9739 6.10844 22 5.99829 22 5.88704C22 5.77579 21.9739 5.66564 21.9231 5.56294C21.8724 5.46025 21.798 5.36704 21.7043 5.2887L19.285 3.24928C19.1921 3.17029 19.0815 3.1076 18.9597 3.06481C18.8378 3.02203 18.7072 3 18.5752 3C18.4432 3 18.3126 3.02203 18.1907 3.06481C18.0689 3.1076 17.9583 3.17029 17.8654 3.24928L13.2867 7.10901C13.104 7.2705 13.0005 7.48422 12.9968 7.70735V9.74677C12.9968 9.97027 13.1021 10.1846 13.2896 10.3427C13.4771 10.5007 13.7314 10.5895 13.9965 10.5895ZM14.9962 8.0613L18.5752 5.04431L19.5749 5.88704L15.9959 8.90403H14.9962V8.0613ZM20.9945 9.74677C20.7294 9.74677 20.4751 9.83556 20.2876 9.9936C20.1001 10.1516 19.9948 10.366 19.9948 10.5895V16.4886C19.9948 16.7122 19.8895 16.9265 19.702 17.0846C19.5145 17.2426 19.2602 17.3314 18.9951 17.3314H4.99913C4.73399 17.3314 4.47971 17.2426 4.29223 17.0846C4.10475 16.9265 3.99942 16.7122 3.99942 16.4886V8.38996L9.87772 13.3537C10.1567 13.5919 10.489 13.7811 10.8554 13.9102C11.2218 14.0393 11.615 14.1058 12.0121 14.1058C12.4092 14.1058 12.8024 14.0393 13.1688 13.9102C13.5352 13.7811 13.8675 13.5919 14.1465 13.3537C14.3297 13.1961 14.4323 12.9843 14.4323 12.7638C14.4323 12.5432 14.3297 12.3314 14.1465 12.1738C14.0534 12.0936 13.9422 12.0298 13.8194 11.9863C13.6967 11.9427 13.5649 11.9203 13.4317 11.9203C13.2985 11.9203 13.1667 11.9427 13.0439 11.9863C12.9212 12.0298 12.81 12.0936 12.7169 12.1738C12.53 12.3283 12.2788 12.4147 12.0171 12.4147C11.7554 12.4147 11.5042 12.3283 11.3173 12.1738L5.40901 7.20171H9.99768C10.2628 7.20171 10.5171 7.11292 10.7046 6.95488C10.8921 6.79683 10.9974 6.58248 10.9974 6.35897C10.9974 6.13546 10.8921 5.92111 10.7046 5.76307C10.5171 5.60503 10.2628 5.51624 9.99768 5.51624H4.99913C4.20371 5.51624 3.44087 5.7826 2.87843 6.25673C2.31598 6.73086 2 7.37392 2 8.04444V16.4718C2 17.1423 2.31598 17.7854 2.87843 18.2595C3.44087 18.7336 4.20371 19 4.99913 19H18.9951C19.7905 19 20.5533 18.7336 21.1158 18.2595C21.6782 17.7854 21.9942 17.1423 21.9942 16.4718V10.5726C21.9942 10.3491 21.8889 10.1348 21.7014 9.97674C21.5139 9.8187 21.2596 9.72991 20.9945 9.72991V9.74677Z" fill="url(#paint0_linear_213_3836)"/>
<defs>
<linearGradient id="paint0_linear_213_3836" x1="12" y1="3" x2="12" y2="19" gradientUnits="userSpaceOnUse">
<stop stop-color="#00B6DB"/>
<stop offset="1" stop-color="#0078E8"/>
</linearGradient>
</defs>
</svg>
