<svg width="95" height="48" viewBox="0 0 95 48" fill="none" xmlns="http://www.w3.org/2000/svg">
<path d="M84.3742 13.4768V25.2119H80.1938V16.9799H76.1687V25.2119H71.9883V13.476H84.3742V13.4768Z" fill="url(#paint0_linear_213_3544)"/>
<path fill-rule="evenodd" clip-rule="evenodd" d="M63.4013 25.6316C67.1435 25.6316 69.9224 23.3316 69.9224 19.8448C69.9224 16.47 67.8721 14.2788 64.4456 14.2788C62.8642 14.2788 61.5593 14.8368 60.5765 15.7996C60.8111 13.8096 62.4899 12.3568 64.3382 12.3568C64.7648 12.3568 67.9763 12.35 67.9763 12.35L69.7923 8.86639C69.7923 8.86639 65.7604 8.95839 63.8861 8.95839C59.6036 9.03319 56.7109 12.9352 56.7109 17.6744C56.7109 23.1956 59.5322 25.6316 63.4013 25.6316ZM63.424 17.3644C64.8135 17.3644 65.7768 18.2796 65.7768 19.8444C65.7768 21.2528 64.9208 22.4132 63.424 22.4164C61.9923 22.4164 61.029 21.3412 61.029 19.8684C61.029 18.3032 61.9923 17.3644 63.424 17.3644Z" fill="url(#paint1_linear_213_3544)"/>
<path d="M53.3084 21.2831C53.3084 21.2831 52.3211 21.8535 50.8467 21.9615C49.1515 22.0119 47.6412 20.9387 47.6412 19.0319C47.6412 17.1719 48.974 16.1059 50.804 16.1059C51.9261 16.1059 53.4105 16.8855 53.4105 16.8855C53.4105 16.8855 54.4967 14.8875 55.0594 13.8883C54.029 13.1055 52.6567 12.6763 51.0606 12.6763C47.0322 12.6763 43.9121 15.3091 43.9121 19.0083C43.9121 22.7547 46.8447 25.3263 51.0606 25.2487C52.2389 25.2047 53.8646 24.7899 54.8554 24.1519L53.3084 21.2831Z" fill="url(#paint2_linear_213_3544)"/>
<path d="M0 10.4481L5.79888 20.838V27.1756L0.00678372 37.5452L0 10.4481Z" fill="url(#paint3_linear_213_3544)"/>
<path d="M22.2656 17.0572L27.6994 13.7188L38.8199 13.7084L22.2656 23.874V17.0572Z" fill="url(#paint4_linear_213_3544)"/>
<path d="M22.2348 10.3868L22.2656 24.1428L16.4531 20.5628V0L22.2348 10.3868Z" fill="url(#paint5_linear_213_3544)"/>
<path d="M38.8198 13.7084L27.6989 13.7188L22.2348 10.3868L16.4531 0L38.8198 13.7084Z" fill="url(#paint6_linear_213_3544)"/>
<path d="M22.2656 37.6027V30.9287L16.4531 27.4167L16.4563 47.9999L22.2656 37.6027Z" fill="url(#paint7_linear_213_3544)"/>
<path d="M27.6855 34.2948L5.79848 20.838L0 10.4481L38.7961 34.2812L27.6855 34.2948Z" fill="url(#paint8_linear_213_3544)"/>
<path d="M16.457 48L22.2655 37.6028L27.6857 34.2948L38.7962 34.2812L16.457 48Z" fill="url(#paint9_linear_213_3544)"/>
<path d="M0.00585938 37.5452L16.4995 27.4172L10.9544 24.0068L5.79796 27.1756L0.00585938 37.5452Z" fill="url(#paint10_linear_213_3544)"/>
<path d="M47.6429 33.11C47.5152 33.2732 47.3472 33.3964 47.1457 33.4796C46.9389 33.564 46.7177 33.6069 46.4944 33.606C46.2724 33.609 46.0517 33.5719 45.8428 33.4964C45.6552 33.4281 45.4837 33.3216 45.3392 33.1836C45.1965 33.0454 45.0845 32.8785 45.0104 32.694C44.9302 32.4918 44.8902 32.2759 44.8927 32.0584C44.8927 31.8424 44.9298 31.6424 45.0068 31.4528C45.0806 31.2628 45.188 31.1 45.3225 30.9632C45.4569 30.8236 45.6181 30.7172 45.7993 30.634C45.9841 30.554 46.1856 30.5108 46.407 30.5108C46.6457 30.5108 46.8671 30.5408 47.0687 30.6004C47.2702 30.6604 47.4414 30.7604 47.5822 30.9004L47.3372 31.3164C47.2187 31.2087 47.0791 31.127 46.9274 31.0764C46.7831 31.0298 46.6324 31.0063 46.4809 31.0068C46.3468 31.0068 46.2191 31.0332 46.095 31.0832C45.9727 31.1326 45.861 31.2049 45.7658 31.2964C45.6685 31.3905 45.5919 31.5038 45.5407 31.6292C45.4837 31.7588 45.4569 31.902 45.4569 32.0616C45.4569 32.2248 45.4869 32.3712 45.5439 32.4976C45.6014 32.6276 45.6784 32.7376 45.7758 32.8304C45.8731 32.924 45.9873 32.9936 46.1181 33.0404C46.2494 33.0904 46.3871 33.1136 46.5347 33.1136C46.7159 33.1136 46.8807 33.0768 47.0216 33.0068C47.1612 32.9392 47.2866 32.8455 47.3911 32.7308L47.6429 33.11ZM48.3344 33.536V30.574H48.8652V32.7808L50.591 30.574H51.1217V33.5364H50.591V31.3296L48.8652 33.5364H48.3344V33.536ZM54.6373 33.11C54.5067 33.2746 54.3354 33.402 54.1405 33.4796C53.9336 33.5639 53.7122 33.6069 53.4889 33.606C53.267 33.609 53.0464 33.5719 52.8376 33.4964C52.6499 33.4281 52.4783 33.3216 52.3336 33.1836C52.1909 33.0454 52.0789 32.8785 52.0048 32.694C51.9246 32.4918 51.8846 32.2759 51.8871 32.0584C51.8871 31.8424 51.9242 31.6424 52.0012 31.4528C52.0754 31.2628 52.1828 31.1 52.3169 30.9632C52.4513 30.8236 52.6126 30.7172 52.7937 30.634C52.9851 30.5495 53.1924 30.5075 53.4015 30.5108C53.6401 30.5108 53.8616 30.5408 54.0631 30.6004C54.2646 30.6604 54.4358 30.7604 54.577 30.9004L54.3316 31.3164C54.2133 31.2087 54.0739 31.1269 53.9222 31.0764C53.7779 31.0298 53.6272 31.0063 53.4757 31.0068C53.2089 31.0077 52.9528 31.1114 52.7602 31.2964C52.6638 31.3912 52.5873 31.5043 52.5351 31.6292C52.4781 31.7588 52.4513 31.902 52.4513 32.0616C52.4513 32.2248 52.4817 32.3712 52.5387 32.4976C52.5958 32.6276 52.6728 32.7376 52.7702 32.8304C52.8675 32.924 52.9821 32.9936 53.113 33.0404C53.2438 33.0868 53.3815 33.1136 53.5292 33.1136C53.7107 33.1136 53.8719 33.0768 54.016 33.0068C54.1556 32.9392 54.281 32.8455 54.3855 32.7308L54.6373 33.11ZM54.9094 30.574H57.6325V31.1H56.5379V33.536H56.0072V31.1H54.9126V30.574H54.9094Z" fill="url(#paint11_linear_213_3544)"/>
<path fill-rule="evenodd" clip-rule="evenodd" d="M60.111 33.5064C60.3125 33.4432 60.4837 33.3464 60.6314 33.2136L60.4701 32.8008C60.3728 32.8876 60.2419 32.9608 60.0843 33.0208C59.9262 33.0808 59.7483 33.1104 59.5535 33.1104C59.2614 33.1104 59.0196 33.034 58.8281 32.8776C58.6369 32.7208 58.5328 32.5016 58.5092 32.2216H60.8061C60.8297 32.1184 60.8397 32.002 60.8397 31.8656C60.8397 31.6624 60.8025 31.4796 60.7287 31.3132C60.66 31.1516 60.5596 31.0055 60.4334 30.8836C60.3055 30.7628 60.1548 30.669 59.9901 30.6076C59.8177 30.5405 59.6343 30.5066 59.4494 30.5076C59.2008 30.5076 58.9825 30.5508 58.7914 30.6308C58.6107 30.707 58.4472 30.8191 58.3109 30.9604C58.1786 31.1009 58.077 31.2675 58.0124 31.4496C57.9415 31.6435 57.9062 31.8487 57.9083 32.0552C57.9083 32.2884 57.9486 32.5012 58.0224 32.6912C58.0942 32.8752 58.2041 33.042 58.3448 33.1804C58.4825 33.3164 58.6501 33.42 58.8484 33.4932C59.0608 33.5687 59.2848 33.6058 59.51 33.6028C59.7141 33.6015 59.9167 33.5688 60.111 33.5064ZM58.7678 31.2264C58.9322 31.0768 59.1505 31.0036 59.4259 31.0036C59.6844 31.0036 59.8927 31.0736 60.044 31.2136C60.1952 31.3532 60.2754 31.5464 60.289 31.7924H58.4757C58.5014 31.5746 58.6052 31.3732 58.7678 31.2264Z" fill="url(#paint12_linear_213_3544)"/>
<path d="M61.5625 30.574H62.0461L63.1946 32.042L64.2824 30.574H64.7524V33.5364H64.2221V31.3764L63.1878 32.7508H63.1674L62.0932 31.376V33.536H61.5625V30.574Z" fill="url(#paint13_linear_213_3544)"/>
<path fill-rule="evenodd" clip-rule="evenodd" d="M66.1962 30.5839C66.0352 30.6261 65.8813 30.6922 65.7397 30.7799L65.8806 31.1999C66.0015 31.1399 66.1224 31.0899 66.2433 31.0467C66.3642 31.0031 66.5187 30.9831 66.7034 30.9831C66.8511 30.9831 66.9688 31.0067 67.0594 31.0531C67.1499 31.0963 67.217 31.1631 67.2641 31.2431C67.3111 31.3231 67.3415 31.4227 67.3582 31.5391C67.375 31.6555 67.3818 31.7819 67.3818 31.9187C67.2732 31.8429 67.1494 31.7917 67.0191 31.7687C66.893 31.7436 66.7649 31.7302 66.6364 31.7287C66.4783 31.7287 66.3307 31.7523 66.1894 31.7919C66.0486 31.8319 65.9277 31.8919 65.8303 31.9719C65.7309 32.0518 65.6506 32.1529 65.5953 32.2679C65.5361 32.3938 65.5062 32.5316 65.5079 32.6707C65.5079 32.9603 65.5921 33.1867 65.7597 33.3467C65.9277 33.5063 66.1491 33.5859 66.4245 33.5859C66.6731 33.5859 66.8714 33.5427 67.0222 33.4563C67.1735 33.3695 67.2944 33.2699 67.3818 33.1567V33.5395H67.8786V31.7223C67.8786 31.3359 67.7948 31.0367 67.6236 30.8267C67.4556 30.6171 67.1567 30.5107 66.7337 30.5107C66.5454 30.5107 66.3674 30.5371 66.1962 30.5839ZM67.0833 32.9839C66.9624 33.0703 66.8044 33.1099 66.6096 33.1099C66.4384 33.1099 66.304 33.0667 66.2102 32.9835C66.116 32.8971 66.0689 32.7839 66.0689 32.6439C66.0689 32.5611 66.0857 32.4911 66.1228 32.4279C66.1599 32.3647 66.2102 32.3147 66.2673 32.2747C66.3297 32.2329 66.399 32.2024 66.472 32.1847C66.5494 32.1647 66.6264 32.1547 66.707 32.1547C66.9692 32.1547 67.1938 32.2179 67.3786 32.3511V32.7271C67.2915 32.8249 67.1923 32.9115 67.0833 32.9839ZM72.5633 29.5319C72.6707 29.4823 72.7712 29.3991 72.8654 29.2759L72.5765 28.8599C72.5027 28.9599 72.4189 29.0295 72.3247 29.0663C72.2249 29.1054 72.1214 29.1344 72.0159 29.1527L71.9153 29.1707C71.8279 29.1859 71.7341 29.2027 71.6332 29.2195C71.4713 29.2495 71.3135 29.2987 71.1631 29.3659C70.9245 29.4691 70.7333 29.6087 70.5889 29.7851C70.4444 29.9615 70.3303 30.1611 70.2529 30.3811C70.1745 30.604 70.1216 30.8351 70.0953 31.0699C70.0681 31.3099 70.055 31.5391 70.055 31.7587C70.055 32.0419 70.0917 32.2979 70.1655 32.5275C70.2397 32.7575 70.3435 32.9503 70.4811 33.1067C70.6188 33.2667 70.7836 33.3867 70.9783 33.4731C71.1731 33.5595 71.3914 33.6027 71.6364 33.6027C71.8614 33.6027 72.0697 33.5595 72.2577 33.4795C72.4389 33.4027 72.6032 33.2908 72.7413 33.1503C72.8754 33.0135 72.9831 32.8503 73.057 32.6675C73.134 32.4843 73.1711 32.2879 73.1711 32.0815C73.1711 31.8587 73.1376 31.6559 73.0737 31.4759C73.0149 31.3043 72.9211 31.1468 72.7984 31.0135C72.6753 30.8824 72.5251 30.78 72.3582 30.7135C72.1744 30.641 71.9783 30.6048 71.7808 30.6071C71.6531 30.6071 71.529 30.6239 71.4081 30.6571C71.2905 30.6904 71.1776 30.7385 71.0721 30.8003C70.9698 30.8591 70.876 30.9318 70.7936 31.0163C70.713 31.0999 70.6459 31.1931 70.5989 31.2995H70.5853C70.5957 31.1631 70.6124 31.0235 70.6423 30.8803C70.6727 30.7371 70.7162 30.6003 70.7736 30.4707C70.8307 30.3411 70.9045 30.2243 70.9951 30.1179C71.0922 30.0105 71.2113 29.9254 71.3443 29.8683C71.4905 29.7985 71.6451 29.7482 71.8044 29.7187L71.9097 29.6995C72.0147 29.6803 72.1148 29.6619 72.2106 29.6419C72.3383 29.6155 72.4556 29.5815 72.5633 29.5319ZM70.6962 32.3779C70.6443 32.2099 70.6194 32.0346 70.6224 31.8587C70.6449 31.7578 70.6859 31.6619 70.7433 31.5759C70.8004 31.4859 70.8742 31.4063 70.9616 31.3359C71.1588 31.181 71.4026 31.0978 71.6531 31.0999C71.9656 31.0999 72.2006 31.1963 72.365 31.3863C72.5298 31.5791 72.6104 31.8187 72.6104 32.1083C72.6104 32.2515 72.5833 32.3815 72.5366 32.5011C72.4912 32.6191 72.4227 32.7267 72.335 32.8176C72.2473 32.9085 72.1423 32.9809 72.0262 33.0303C71.9053 33.0835 71.774 33.1103 71.6264 33.1103C71.4787 33.1103 71.3443 33.0803 71.2202 33.0203C71.0968 32.9615 70.9879 32.8763 70.9009 32.7707C70.8099 32.653 70.7406 32.52 70.6962 32.3779ZM77.2409 30.5739H76.7102V33.5363H77.2409V30.5739ZM73.9364 30.5739H74.4672V31.4627H74.9576C75.189 31.4627 75.377 31.4927 75.5282 31.5491C75.6795 31.6059 75.8004 31.6823 75.891 31.7755C75.9815 31.8687 76.0454 31.9787 76.0825 32.1015C76.1192 32.2247 76.1396 32.3511 76.1396 32.4843C76.1396 32.6175 76.1192 32.7443 76.0757 32.8707C76.0354 32.9971 75.9648 33.1067 75.8706 33.2067C75.7768 33.3067 75.6491 33.3867 75.4879 33.4467C75.3267 33.5063 75.132 33.5395 74.8969 33.5395H73.9333V30.5739H73.9364ZM74.4672 31.9583V33.0435H74.8534C75.1188 33.0435 75.3068 32.9971 75.4141 32.9035C75.5218 32.8103 75.5753 32.6775 75.5753 32.5011C75.5753 32.3211 75.5183 32.1851 75.4109 32.0915C75.3 31.9983 75.1152 31.9515 74.8602 31.9515H74.4672V31.9583Z" fill="url(#paint14_linear_213_3544)"/>
<path d="M80.7483 33.11C80.6207 33.2732 80.4527 33.3964 80.2511 33.4796C80.0444 33.5639 79.8231 33.6069 79.5999 33.606C79.3779 33.609 79.1571 33.5719 78.9483 33.4964C78.7606 33.4282 78.5891 33.3217 78.4447 33.1836C78.302 33.0453 78.1898 32.8785 78.1155 32.694C78.0356 32.4918 77.9958 32.2759 77.9981 32.0584C77.9981 31.8424 78.0349 31.6424 78.1123 31.4528C78.1861 31.2628 78.2934 31.1 78.4279 30.9632C78.5624 30.8236 78.7232 30.7172 78.9048 30.634C79.0961 30.5495 79.3034 30.5075 79.5125 30.5108C79.7507 30.5108 79.9726 30.5408 80.1741 30.6004C80.3756 30.6604 80.5468 30.7604 80.6877 30.9004L80.4427 31.3164C80.3242 31.2087 80.1846 31.127 80.0329 31.0764C79.8886 31.0298 79.7379 31.0063 79.5863 31.0068C79.4523 31.0068 79.3246 31.0332 79.2001 31.0832C79.0779 31.1326 78.9663 31.205 78.8713 31.2964C78.7747 31.3911 78.6982 31.5042 78.6462 31.6292C78.5891 31.7588 78.5624 31.902 78.5624 32.0616C78.5624 32.2248 78.5923 32.3712 78.6494 32.4976C78.7064 32.6276 78.7839 32.7376 78.8812 32.8304C78.9786 32.924 79.0927 32.9936 79.2236 33.0404C79.3549 33.0868 79.4926 33.1136 79.6402 33.1136C79.8214 33.1136 79.9826 33.0768 80.127 33.0068C80.2666 32.9392 80.392 32.8456 80.4966 32.7308L80.7483 33.11ZM81.0201 30.574H83.7436V31.1H82.6486V33.536H82.1183V31.1H81.0237V30.574H81.0201Z" fill="url(#paint15_linear_213_3544)"/>
<path fill-rule="evenodd" clip-rule="evenodd" d="M84.853 30.5744H84.3223V34.8544H84.853V33.4C84.9603 33.47 85.088 33.52 85.2357 33.5532C85.3833 33.5864 85.5377 33.6028 85.6958 33.6028C85.9308 33.6028 86.1423 33.5596 86.3338 33.48C86.5175 33.4012 86.684 33.2871 86.8239 33.144C86.9615 33.0004 87.0657 32.834 87.1395 32.6376C87.2133 32.4416 87.2504 32.2316 87.2504 32.0088C87.2504 31.7888 87.2169 31.586 87.1531 31.4028C87.093 31.2288 86.9994 31.0683 86.8777 30.9304C86.7583 30.7959 86.6102 30.6901 86.4444 30.6208C86.2631 30.5427 86.0674 30.5041 85.8701 30.5076C85.6622 30.5076 85.4675 30.5476 85.2828 30.6276C85.098 30.7076 84.9536 30.8036 84.853 30.9236V30.5744ZM85.2225 31.1236C85.3737 31.0436 85.5381 31.0036 85.7161 31.0036C85.8705 31.0036 86.0082 31.0268 86.1327 31.0768C86.2536 31.1268 86.3542 31.1968 86.4384 31.29C86.5222 31.3832 86.586 31.49 86.6263 31.616C86.6698 31.7424 86.6902 31.8792 86.6902 32.0288C86.6902 32.1888 86.6631 32.3316 86.6164 32.4648C86.5723 32.5911 86.5025 32.7068 86.4113 32.8044C86.3196 32.9009 86.2086 32.9768 86.0856 33.0272C85.9485 33.0848 85.8009 33.1131 85.6523 33.1104C85.5082 33.1104 85.3737 33.094 85.246 33.0608C85.1062 33.0227 84.9736 32.9619 84.8534 32.8808V31.4128C84.9472 31.3 85.0717 31.2036 85.2225 31.1236ZM91.3203 30.574H90.7895V33.5364H91.3203V30.574ZM88.0126 30.574H88.5433V31.4628H89.0334C89.2652 31.4628 89.4531 31.4928 89.6044 31.5492C89.7556 31.606 89.8765 31.6824 89.9671 31.7756C90.0577 31.8688 90.1215 31.9788 90.1583 32.1016C90.1954 32.2248 90.2153 32.3512 90.2153 32.4844C90.2153 32.6176 90.1954 32.7444 90.1519 32.8708C90.1116 32.9972 90.0409 33.1068 89.9468 33.2068C89.853 33.3068 89.7253 33.3868 89.5641 33.4468C89.4029 33.5064 89.2081 33.5396 88.9731 33.5396H88.0094V30.574H88.0126ZM88.5469 31.9584V33.0436H88.9332C89.1982 33.0436 89.3865 32.9972 89.4939 32.9036C89.6012 32.8104 89.6551 32.6776 89.6551 32.5012C89.6551 32.3212 89.598 32.1852 89.4907 32.0916C89.3797 31.9984 89.195 31.9516 88.94 31.9516H88.5469V31.9584Z" fill="url(#paint16_linear_213_3544)"/>
<path d="M93.8659 32.002L95.0008 33.5364H94.3496L93.4729 32.338L92.583 33.5364H91.9653L93.0934 32.0284L92.0323 30.574H92.684L93.4932 31.6924L94.3156 30.574H94.9338L93.8659 32.002ZM47.251 37.1976H45.6225V39.6672H45.0918V36.7052H47.7813V39.6672H47.251V37.1976ZM50.7933 37.2308H49.7458L49.7119 37.73C49.6752 38.1528 49.6249 38.4924 49.5543 38.7516C49.4837 39.0116 49.3963 39.2112 49.2957 39.3508C49.1951 39.4908 49.0774 39.5872 48.943 39.634C48.8042 39.6844 48.6575 39.7092 48.51 39.7072L48.4697 39.1944C48.5268 39.1976 48.5938 39.1844 48.6676 39.1512C48.7418 39.118 48.8157 39.0448 48.8859 38.9352C48.9565 38.8216 49.0204 38.662 49.0774 38.4556C49.1345 38.246 49.1716 37.9732 49.1916 37.63L49.2454 36.708H51.324V39.6704H50.7933V37.2304V37.2308Z" fill="url(#paint17_linear_213_3544)"/>
<path fill-rule="evenodd" clip-rule="evenodd" d="M52.7529 36.7119C52.5813 36.7583 52.4269 36.8247 52.296 36.9079L52.4372 37.3275C52.5581 37.2675 52.6791 37.2175 52.7996 37.1743C52.9205 37.1311 53.0753 37.1111 53.2597 37.1111C53.4077 37.1111 53.525 37.1343 53.6156 37.1807C53.7066 37.2243 53.7736 37.2907 53.8207 37.3707C53.8674 37.4507 53.8977 37.5507 53.9145 37.6667C53.9312 37.7835 53.938 37.9099 53.938 38.0463C53.8294 37.9706 53.7056 37.9195 53.5753 37.8967C53.4492 37.8716 53.3211 37.8582 53.1926 37.8567C53.035 37.8567 52.887 37.8799 52.7461 37.9199C52.6048 37.9599 52.4839 38.0199 52.3866 38.0999C52.2872 38.1798 52.2069 38.2809 52.1515 38.3959C52.0925 38.5219 52.0628 38.6596 52.0645 38.7987C52.0645 39.0879 52.1483 39.3147 52.3163 39.4743C52.4839 39.6339 52.7058 39.7139 52.9811 39.7139C53.2297 39.7139 53.4277 39.6707 53.5789 39.5839C53.7297 39.4975 53.8506 39.3975 53.938 39.2843V39.6671H54.4352V37.8499C54.4352 37.4639 54.351 37.1643 54.1798 36.9547C54.0119 36.7447 53.713 36.6387 53.29 36.6387C53.1085 36.6389 52.9279 36.6638 52.7529 36.7119ZM53.6427 39.1111C53.5222 39.1979 53.3642 39.2379 53.1695 39.2379C52.9947 39.2379 52.8638 39.1947 52.77 39.1111C52.6759 39.0247 52.6288 38.9115 52.6288 38.7719C52.6288 38.6887 52.6455 38.6187 52.6826 38.5555C52.7194 38.4923 52.77 38.4423 52.8271 38.4023C52.8842 38.3623 52.9544 38.3323 53.0318 38.3123C53.1086 38.2925 53.1876 38.2825 53.2668 38.2827C53.5286 38.2827 53.7537 38.3459 53.9384 38.4787V38.8547C53.8512 38.9525 53.7518 39.0387 53.6427 39.1111Z" fill="url(#paint18_linear_213_3544)"/>
<path d="M54.9551 36.7051H57.6785V37.2307H56.5836V39.6671H56.0532V37.2311H54.9587V36.7051H54.9551Z" fill="url(#paint19_linear_213_3544)"/>
<path fill-rule="evenodd" clip-rule="evenodd" d="M60.1583 39.6372C60.3598 39.574 60.531 39.4772 60.6786 39.3444L60.5174 38.9316C60.42 39.0184 60.2891 39.0916 60.1311 39.1516C59.9735 39.2116 59.7955 39.2412 59.6008 39.2412C59.3087 39.2412 59.0669 39.1648 58.8753 39.0084C58.6838 38.852 58.5801 38.6324 58.5565 38.3524H60.8534C60.8765 38.2496 60.8869 38.1328 60.8869 37.9964C60.8869 37.7936 60.8498 37.6104 60.776 37.444C60.7072 37.2824 60.6067 37.1365 60.4803 37.0148C60.3526 36.8938 60.202 36.7998 60.0374 36.7384C59.865 36.6714 59.6815 36.6375 59.4967 36.6384C59.248 36.6384 59.0298 36.6816 58.8386 36.7616C58.6578 36.8376 58.4943 36.9498 58.3582 37.0912C58.2259 37.2318 58.1241 37.3984 58.0593 37.5804C57.9885 37.7743 57.9533 37.9795 57.9551 38.186C57.9551 38.4192 57.9955 38.632 58.0693 38.822C58.1435 39.0116 58.254 39.1748 58.3917 39.3112C58.5294 39.4476 58.6974 39.5508 58.8957 39.624C59.1079 39.6996 59.3317 39.7369 59.5569 39.734C59.7552 39.734 59.9567 39.7004 60.1583 39.6372ZM58.8119 37.354C58.9763 37.2044 59.1946 37.1312 59.4699 37.1312C59.7321 37.1312 59.9368 37.2044 60.088 37.3408C60.2389 37.4808 60.3195 37.6736 60.333 37.92H58.5198C58.5454 37.702 58.6492 37.5009 58.8119 37.354ZM61.1455 36.7052H61.8171L62.841 38.1332L61.7464 39.6672H61.0952L62.2433 38.1328L61.1455 36.7052ZM62.9719 36.7052H63.5026V39.6672H62.9719V36.7052ZM65.3997 39.6672L64.2313 38.1328L65.3227 36.7048H64.6642L63.6335 38.1328L64.7417 39.6672H65.3997ZM67.8243 39.6372C68.0258 39.574 68.197 39.4772 68.3446 39.3444L68.1834 38.9316C68.086 39.0184 67.9551 39.0916 67.7975 39.1516C67.6395 39.2116 67.4615 39.2412 67.2668 39.2412C66.9747 39.2412 66.7329 39.1648 66.5413 39.0084C66.3502 38.852 66.2461 38.6324 66.2225 38.3524H68.5194C68.5429 38.2496 68.5529 38.1328 68.5529 37.9964C68.5529 37.7936 68.5162 37.6104 68.442 37.444C68.3732 37.2825 68.2728 37.1366 68.1467 37.0148C68.0189 36.8938 67.8681 36.7998 67.7034 36.7384C67.531 36.6713 67.3475 36.6374 67.1627 36.6384C66.9144 36.6384 66.6962 36.6816 66.5046 36.7616C66.324 36.8377 66.1607 36.9499 66.0246 37.0912C65.892 37.2316 65.7902 37.3982 65.7257 37.5804C65.6548 37.7743 65.6195 37.9795 65.6216 38.186C65.6216 38.4192 65.6619 38.632 65.7357 38.822C65.8095 39.0116 65.9204 39.1748 66.0581 39.3112C66.1958 39.4476 66.3634 39.5508 66.5617 39.624C66.774 39.6996 66.998 39.7368 67.2233 39.734C67.4274 39.7325 67.63 39.6998 67.8243 39.6372ZM66.4779 37.354C66.6427 37.2044 66.861 37.1312 67.1363 37.1312C67.3949 37.1312 67.6028 37.2044 67.754 37.3408C67.9053 37.4808 67.9859 37.6736 67.999 37.92H66.1858C66.2114 37.702 66.3152 37.5009 66.4779 37.354ZM70.7057 35.71C70.3933 35.71 70.2221 35.5368 70.1954 35.1908H69.695C69.695 35.3236 69.7185 35.4436 69.762 35.5568C69.8059 35.67 69.8697 35.7664 69.9535 35.8464C70.0373 35.9264 70.1451 35.9896 70.2692 36.0392C70.3933 36.0892 70.5377 36.1124 70.7022 36.1124C70.8534 36.1124 70.9879 36.0892 71.1088 36.0392C71.2297 35.9928 71.3302 35.9264 71.4176 35.8464C71.5014 35.7664 71.5689 35.67 71.6156 35.5568C71.6626 35.4436 71.6862 35.3236 71.6862 35.1908H71.1894C71.1658 35.5368 71.001 35.71 70.7057 35.71ZM69.2716 36.7048V39.6672H69.8023L71.5282 37.4604V39.6672H72.0589V36.7048H71.5282L69.8023 38.9116V36.7048H69.2716Z" fill="url(#paint20_linear_213_3544)"/>
<defs>
<linearGradient id="paint0_linear_213_3544" x1="78.1812" y1="13.476" x2="78.1812" y2="25.2119" gradientUnits="userSpaceOnUse">
<stop stop-color="#00B6DB"/>
<stop offset="1" stop-color="#0078E8"/>
</linearGradient>
<linearGradient id="paint1_linear_213_3544" x1="63.3167" y1="8.86639" x2="63.3167" y2="25.6316" gradientUnits="userSpaceOnUse">
<stop stop-color="#00B6DB"/>
<stop offset="1" stop-color="#0078E8"/>
</linearGradient>
<linearGradient id="paint2_linear_213_3544" x1="49.4857" y1="12.6763" x2="49.4857" y2="25.2504" gradientUnits="userSpaceOnUse">
<stop stop-color="#00B6DB"/>
<stop offset="1" stop-color="#0078E8"/>
</linearGradient>
<linearGradient id="paint3_linear_213_3544" x1="2.89944" y1="10.4481" x2="2.89944" y2="37.5452" gradientUnits="userSpaceOnUse">
<stop stop-color="#00B6DB"/>
<stop offset="1" stop-color="#0078E8"/>
</linearGradient>
<linearGradient id="paint4_linear_213_3544" x1="30.5428" y1="13.7084" x2="30.5428" y2="23.874" gradientUnits="userSpaceOnUse">
<stop stop-color="#00B6DB"/>
<stop offset="1" stop-color="#0078E8"/>
</linearGradient>
<linearGradient id="paint5_linear_213_3544" x1="19.3593" y1="0" x2="19.3593" y2="24.1428" gradientUnits="userSpaceOnUse">
<stop stop-color="#00B6DB"/>
<stop offset="1" stop-color="#0078E8"/>
</linearGradient>
<linearGradient id="paint6_linear_213_3544" x1="27.6365" y1="0" x2="27.6365" y2="13.7188" gradientUnits="userSpaceOnUse">
<stop stop-color="#00B6DB"/>
<stop offset="1" stop-color="#0078E8"/>
</linearGradient>
<linearGradient id="paint7_linear_213_3544" x1="19.3593" y1="27.4167" x2="19.3593" y2="47.9999" gradientUnits="userSpaceOnUse">
<stop stop-color="#00B6DB"/>
<stop offset="1" stop-color="#0078E8"/>
</linearGradient>
<linearGradient id="paint8_linear_213_3544" x1="19.398" y1="10.4481" x2="19.398" y2="34.2948" gradientUnits="userSpaceOnUse">
<stop stop-color="#00B6DB"/>
<stop offset="1" stop-color="#0078E8"/>
</linearGradient>
<linearGradient id="paint9_linear_213_3544" x1="27.6266" y1="34.2812" x2="27.6266" y2="48" gradientUnits="userSpaceOnUse">
<stop stop-color="#00B6DB"/>
<stop offset="1" stop-color="#0078E8"/>
</linearGradient>
<linearGradient id="paint10_linear_213_3544" x1="8.25267" y1="24.0068" x2="8.25267" y2="37.5452" gradientUnits="userSpaceOnUse">
<stop stop-color="#00B6DB"/>
<stop offset="1" stop-color="#0078E8"/>
</linearGradient>
<linearGradient id="paint11_linear_213_3544" x1="51.2625" y1="30.5106" x2="51.2625" y2="33.6062" gradientUnits="userSpaceOnUse">
<stop stop-color="#00B6DB"/>
<stop offset="1" stop-color="#0078E8"/>
</linearGradient>
<linearGradient id="paint12_linear_213_3544" x1="59.3739" y1="30.5076" x2="59.3739" y2="33.603" gradientUnits="userSpaceOnUse">
<stop stop-color="#00B6DB"/>
<stop offset="1" stop-color="#0078E8"/>
</linearGradient>
<linearGradient id="paint13_linear_213_3544" x1="63.1575" y1="30.574" x2="63.1575" y2="33.5364" gradientUnits="userSpaceOnUse">
<stop stop-color="#00B6DB"/>
<stop offset="1" stop-color="#0078E8"/>
</linearGradient>
<linearGradient id="paint14_linear_213_3544" x1="71.3744" y1="28.8599" x2="71.3744" y2="33.6027" gradientUnits="userSpaceOnUse">
<stop stop-color="#00B6DB"/>
<stop offset="1" stop-color="#0078E8"/>
</linearGradient>
<linearGradient id="paint15_linear_213_3544" x1="80.8708" y1="30.5106" x2="80.8708" y2="33.6062" gradientUnits="userSpaceOnUse">
<stop stop-color="#00B6DB"/>
<stop offset="1" stop-color="#0078E8"/>
</linearGradient>
<linearGradient id="paint16_linear_213_3544" x1="87.8213" y1="30.5074" x2="87.8213" y2="34.8544" gradientUnits="userSpaceOnUse">
<stop stop-color="#00B6DB"/>
<stop offset="1" stop-color="#0078E8"/>
</linearGradient>
<linearGradient id="paint17_linear_213_3544" x1="70.0463" y1="30.574" x2="70.0463" y2="39.7073" gradientUnits="userSpaceOnUse">
<stop stop-color="#00B6DB"/>
<stop offset="1" stop-color="#0078E8"/>
</linearGradient>
<linearGradient id="paint18_linear_213_3544" x1="53.2498" y1="36.6387" x2="53.2498" y2="39.7139" gradientUnits="userSpaceOnUse">
<stop stop-color="#00B6DB"/>
<stop offset="1" stop-color="#0078E8"/>
</linearGradient>
<linearGradient id="paint19_linear_213_3544" x1="56.3168" y1="36.7051" x2="56.3168" y2="39.6671" gradientUnits="userSpaceOnUse">
<stop stop-color="#00B6DB"/>
<stop offset="1" stop-color="#0078E8"/>
</linearGradient>
<linearGradient id="paint20_linear_213_3544" x1="65.007" y1="35.1908" x2="65.007" y2="39.7341" gradientUnits="userSpaceOnUse">
<stop stop-color="#00B6DB"/>
<stop offset="1" stop-color="#0078E8"/>
</linearGradient>
</defs>
</svg>
