<svg xmlns="http://www.w3.org/2000/svg" width="20" height="20" viewBox="0 0 20 20" fill="none">
<path d="M14.9986 7.50038C14.9986 7.27953 14.9108 7.06772 14.7545 6.91155C14.5982 6.75538 14.3863 6.66764 14.1652 6.66764H4.5069L6.42357 4.76065C6.58049 4.60384 6.66865 4.39117 6.66865 4.1694C6.66865 3.94764 6.58049 3.73496 6.42357 3.57816C6.26665 3.42135 6.05382 3.33325 5.8319 3.33325C5.60999 3.33325 5.39716 3.42135 5.24024 3.57816L1.9069 6.90914C1.79127 7.02624 1.71294 7.17495 1.6818 7.33649C1.65065 7.49803 1.66809 7.66518 1.7319 7.81683C1.79442 7.9689 1.90058 8.09908 2.03702 8.19096C2.17345 8.28284 2.33405 8.33231 2.49857 8.33313H14.1652C14.3863 8.33313 14.5982 8.24539 14.7545 8.08922C14.9108 7.93305 14.9986 7.72124 14.9986 7.50038ZM18.2652 12.1816C18.2027 12.0295 18.0966 11.8993 17.9601 11.8075C17.8237 11.7156 17.6631 11.6661 17.4986 11.6653H5.8319C5.61089 11.6653 5.39893 11.753 5.24265 11.9092C5.08637 12.0654 4.99857 12.2772 4.99857 12.498C4.99857 12.7189 5.08637 12.9307 5.24265 13.0869C5.39893 13.243 5.61089 13.3308 5.8319 13.3308H15.4902L13.5736 15.2378C13.4955 15.3152 13.4335 15.4073 13.3912 15.5088C13.3489 15.6102 13.3271 15.7191 13.3271 15.829C13.3271 15.9389 13.3489 16.0478 13.3912 16.1493C13.4335 16.2507 13.4955 16.3428 13.5736 16.4203C13.651 16.4983 13.7432 16.5603 13.8448 16.6025C13.9463 16.6448 14.0552 16.6666 14.1652 16.6666C14.2752 16.6666 14.3842 16.6448 14.4857 16.6025C14.5873 16.5603 14.6794 16.4983 14.7569 16.4203L18.0902 13.0893C18.2059 12.9722 18.2842 12.8235 18.3153 12.6619C18.3465 12.5004 18.3291 12.3332 18.2652 12.1816Z" fill="#ADBAC8"/>
</svg>