<svg xmlns="http://www.w3.org/2000/svg" width="20" height="20" viewBox="0 0 20 20" fill="none">
<path d="M16.8026 4.0021C15.9183 3.13939 14.7459 2.61487 13.4986 2.52393C12.2513 2.43299 11.012 2.78167 10.006 3.50656C8.9462 2.73778 7.62713 2.38918 6.31438 2.53096C5.00164 2.67273 3.79273 3.29436 2.9311 4.27065C2.06947 5.24694 1.61912 6.50538 1.67074 7.79255C1.72237 9.07972 2.27213 10.3 3.20931 11.2077L9.41459 17.2597C9.49202 17.3358 9.58414 17.3963 9.68564 17.4375C9.78714 17.4788 9.896 17.5 10.006 17.5C10.1159 17.5 10.2248 17.4788 10.3263 17.4375C10.4278 17.3963 10.5199 17.3358 10.5973 17.2597L16.8026 11.2077C17.2879 10.7347 17.6729 10.173 17.9356 9.55483C18.1982 8.93665 18.3334 8.27405 18.3334 7.60489C18.3334 6.93573 18.1982 6.27312 17.9356 5.65494C17.6729 5.03676 17.2879 4.47511 16.8026 4.0021ZM15.6282 10.0623L10.006 15.5375L4.38374 10.0623C3.88829 9.57704 3.55079 8.95993 3.41357 8.28835C3.27635 7.61677 3.34552 6.92063 3.61241 6.28724C3.87929 5.65386 4.33201 5.11144 4.91376 4.72804C5.49551 4.34463 6.1804 4.13731 6.8825 4.13208C7.82047 4.13432 8.71918 4.49953 9.38127 5.14752C9.4587 5.22366 9.55082 5.28409 9.65232 5.32534C9.75382 5.36658 9.86269 5.38781 9.97264 5.38781C10.0826 5.38781 10.1915 5.36658 10.293 5.32534C10.3945 5.28409 10.4866 5.22366 10.564 5.14752C11.2456 4.57146 12.1262 4.26948 13.0274 4.30269C13.9287 4.3359 14.7833 4.70182 15.4184 5.32639C16.0535 5.95096 16.4216 6.78753 16.4482 7.66678C16.4748 8.54603 16.1578 9.40229 15.5616 10.0623H15.6282Z" fill="#ADBAC8"/>
</svg>