<svg xmlns="http://www.w3.org/2000/svg" width="20" height="20" viewBox="0 0 20 20" fill="none">
<path d="M18.163 2.80252C17.1019 1.76726 15.695 1.13784 14.1982 1.02871C12.7015 0.919584 11.2142 1.338 10.0071 2.20788C8.73534 1.28534 7.15245 0.867017 5.57716 1.03715C4.00187 1.20728 2.55117 1.95323 1.51722 3.12478C0.483262 4.29633 -0.0571552 5.80646 0.00479304 7.35106C0.0667413 8.89567 0.726454 10.36 1.85108 11.4492L9.2974 18.7117C9.39032 18.803 9.50087 18.8755 9.62267 18.925C9.74447 18.9745 9.87511 19 10.0071 19C10.139 19 10.2696 18.9745 10.3914 18.925C10.5132 18.8755 10.6238 18.803 10.7167 18.7117L18.163 11.4492C18.7454 10.8816 19.2074 10.2076 19.5226 9.4658C19.8378 8.72398 20 7.92886 20 7.12586C20 6.32287 19.8378 5.52775 19.5226 4.78593C19.2074 4.04411 18.7454 3.37014 18.163 2.80252Z" fill="#1774D8"/>
</svg>