<svg xmlns="http://www.w3.org/2000/svg" width="24" height="24" viewBox="0 0 24 24" fill="none">
<g opacity="0.2">
<path d="M17.4012 13.8116C16.8696 13.8151 16.3454 13.9362 15.8663 14.1661C15.3871 14.3961 14.965 14.7292 14.6301 15.1415L10.0416 13.0299C10.2573 12.3701 10.2573 11.6589 10.0416 10.9992L14.6301 8.88759C15.1713 9.5399 15.926 9.98029 16.7607 10.131C17.5955 10.2818 18.4567 10.1332 19.1924 9.71147C19.9282 9.28976 20.4911 8.62204 20.7819 7.82617C21.0726 7.0303 21.0726 6.15743 20.7816 5.3616C20.4907 4.56578 19.9277 3.89817 19.1919 3.4766C18.4561 3.05502 17.5948 2.90658 16.7601 3.05748C15.9253 3.20837 15.1708 3.64889 14.6296 4.30131C14.0885 4.95372 13.7955 5.77608 13.8023 6.62325C13.805 6.83731 13.8261 7.05075 13.8653 7.26122L9.11486 9.44469C8.6084 8.95011 7.96705 8.61579 7.27118 8.48362C6.57532 8.35146 5.85587 8.42732 5.20298 8.70171C4.55009 8.97609 3.99279 9.4368 3.60091 10.0261C3.20903 10.6154 3 11.3071 3 12.0145C3 12.722 3.20903 13.4137 3.60091 14.003C3.99279 14.5923 4.55009 15.053 5.20298 15.3274C5.85587 15.6017 6.57532 15.6776 7.27118 15.5454C7.96705 15.4133 8.6084 15.079 9.11486 14.5844L13.8653 16.7678C13.8261 16.9783 13.805 17.1917 13.8023 17.4058C13.8023 18.1167 14.0134 18.8116 14.4088 19.4026C14.8043 19.9937 15.3664 20.4544 16.024 20.7264C16.6816 20.9984 17.4052 21.0696 18.1033 20.9309C18.8014 20.7923 19.4426 20.4499 19.9459 19.9473C20.4492 19.4446 20.792 18.8042 20.9308 18.107C21.0697 17.4098 20.9984 16.6871 20.7261 16.0304C20.4537 15.3736 19.9924 14.8123 19.4006 14.4174C18.8087 14.0224 18.1129 13.8116 17.4012 13.8116ZM17.4012 4.82615C17.7571 4.82615 18.105 4.93155 18.4009 5.12902C18.6968 5.32649 18.9274 5.60715 19.0636 5.93553C19.1998 6.26391 19.2354 6.62524 19.166 6.97384C19.0966 7.32245 18.9252 7.64266 18.6735 7.89398C18.4219 8.14531 18.1013 8.31647 17.7522 8.38581C17.4032 8.45515 17.0414 8.41956 16.7126 8.28355C16.3838 8.14753 16.1027 7.91719 15.905 7.62166C15.7073 7.32613 15.6018 6.97868 15.6018 6.62325C15.6018 6.14663 15.7913 5.68953 16.1288 5.35251C16.4662 5.01549 16.9239 4.82615 17.4012 4.82615ZM6.60468 13.8116C6.24879 13.8116 5.90089 13.7062 5.60498 13.5088C5.30906 13.3113 5.07843 13.0306 4.94223 12.7022C4.80604 12.3739 4.77041 12.0125 4.83984 11.6639C4.90927 11.3153 5.08065 10.9951 5.3323 10.7438C5.58395 10.4925 5.90458 10.3213 6.25363 10.252C6.60268 10.1826 6.96448 10.2182 7.29328 10.3542C7.62208 10.4902 7.90311 10.7206 8.10084 11.0161C8.29856 11.3116 8.40409 11.6591 8.40409 12.0145C8.40409 12.4911 8.21451 12.9482 7.87706 13.2853C7.5396 13.6223 7.08191 13.8116 6.60468 13.8116ZM17.4012 19.2029C17.0453 19.2029 16.6974 19.0975 16.4015 18.9C16.1056 18.7026 15.8749 18.4219 15.7387 18.0935C15.6025 17.7652 15.5669 17.4038 15.6363 17.0552C15.7058 16.7066 15.8771 16.3864 16.1288 16.1351C16.3804 15.8837 16.7011 15.7126 17.0501 15.6432C17.3992 15.5739 17.761 15.6095 18.0898 15.7455C18.4186 15.8815 18.6996 16.1119 18.8973 16.4074C19.095 16.7029 19.2006 17.0504 19.2006 17.4058C19.2006 17.8824 19.011 18.3395 18.6735 18.6765C18.3361 19.0136 17.8784 19.2029 17.4012 19.2029Z" fill="black"/>
</g>
</svg>