<svg xmlns="http://www.w3.org/2000/svg" width="32" height="32" viewBox="0 0 32 32" fill="none">
<path d="M7.71023 21.29C7.61513 21.199 7.50298 21.1276 7.38023 21.08C7.13677 20.98 6.86369 20.98 6.62023 21.08C6.49748 21.1276 6.38534 21.199 6.29023 21.29C6.19919 21.3851 6.12783 21.4972 6.08023 21.62C6.00365 21.8021 5.98273 22.0028 6.0201 22.1968C6.05748 22.3908 6.15147 22.5694 6.29023 22.71C6.38743 22.7983 6.49905 22.8694 6.62023 22.92C6.73993 22.9729 6.86936 23.0002 7.00023 23.0002C7.1311 23.0002 7.26053 22.9729 7.38023 22.92C7.50142 22.8694 7.61303 22.7983 7.71023 22.71C7.84899 22.5694 7.94299 22.3908 7.98036 22.1968C8.01773 22.0028 7.99681 21.8021 7.92023 21.62C7.87264 21.4972 7.80127 21.3851 7.71023 21.29ZM11.0002 11H25.0002C25.2654 11 25.5198 10.8946 25.7073 10.7071C25.8949 10.5196 26.0002 10.2652 26.0002 10C26.0002 9.73478 25.8949 9.48043 25.7073 9.29289C25.5198 9.10536 25.2654 9 25.0002 9H11.0002C10.735 9 10.4807 9.10536 10.2931 9.29289C10.1056 9.48043 10.0002 9.73478 10.0002 10C10.0002 10.2652 10.1056 10.5196 10.2931 10.7071C10.4807 10.8946 10.735 11 11.0002 11ZM7.71023 15.29C7.56961 15.1512 7.39104 15.0572 7.19705 15.0199C7.00306 14.9825 6.80234 15.0034 6.62023 15.08C6.49905 15.1306 6.38743 15.2017 6.29023 15.29C6.19919 15.3851 6.12783 15.4972 6.08023 15.62C6.02733 15.7397 6 15.8691 6 16C6 16.1309 6.02733 16.2603 6.08023 16.38C6.13087 16.5012 6.2019 16.6128 6.29023 16.71C6.38743 16.7983 6.49905 16.8694 6.62023 16.92C6.73993 16.9729 6.86936 17.0002 7.00023 17.0002C7.1311 17.0002 7.26053 16.9729 7.38023 16.92C7.50142 16.8694 7.61303 16.7983 7.71023 16.71C7.79856 16.6128 7.86959 16.5012 7.92023 16.38C7.97314 16.2603 8.00047 16.1309 8.00047 16C8.00047 15.8691 7.97314 15.7397 7.92023 15.62C7.87264 15.4972 7.80127 15.3851 7.71023 15.29ZM25.0002 15H11.0002C10.735 15 10.4807 15.1054 10.2931 15.2929C10.1056 15.4804 10.0002 15.7348 10.0002 16C10.0002 16.2652 10.1056 16.5196 10.2931 16.7071C10.4807 16.8946 10.735 17 11.0002 17H25.0002C25.2654 17 25.5198 16.8946 25.7073 16.7071C25.8949 16.5196 26.0002 16.2652 26.0002 16C26.0002 15.7348 25.8949 15.4804 25.7073 15.2929C25.5198 15.1054 25.2654 15 25.0002 15ZM7.71023 9.29C7.61513 9.19896 7.50298 9.12759 7.38023 9.08C7.19812 9.00342 6.99741 8.9825 6.80342 9.01987C6.60943 9.05725 6.43086 9.15124 6.29023 9.29C6.2019 9.3872 6.13087 9.49882 6.08023 9.62C6.02733 9.7397 6 9.86913 6 10C6 10.1309 6.02733 10.2603 6.08023 10.38C6.13087 10.5012 6.2019 10.6128 6.29023 10.71C6.38743 10.7983 6.49905 10.8694 6.62023 10.92C6.80234 10.9966 7.00306 11.0175 7.19705 10.9801C7.39104 10.9428 7.56961 10.8488 7.71023 10.71C7.79856 10.6128 7.86959 10.5012 7.92023 10.38C7.97314 10.2603 8.00047 10.1309 8.00047 10C8.00047 9.86913 7.97314 9.7397 7.92023 9.62C7.86959 9.49882 7.79856 9.3872 7.71023 9.29ZM25.0002 21H11.0002C10.735 21 10.4807 21.1054 10.2931 21.2929C10.1056 21.4804 10.0002 21.7348 10.0002 22C10.0002 22.2652 10.1056 22.5196 10.2931 22.7071C10.4807 22.8946 10.735 23 11.0002 23H25.0002C25.2654 23 25.5198 22.8946 25.7073 22.7071C25.8949 22.5196 26.0002 22.2652 26.0002 22C26.0002 21.7348 25.8949 21.4804 25.7073 21.2929C25.5198 21.1054 25.2654 21 25.0002 21Z" fill="black"/>
</svg>