<svg xmlns="http://www.w3.org/2000/svg" width="24" height="24" viewBox="0 0 24 24" fill="none">
<path d="M14.7207 16.7194C14.8996 16.5417 15 16.3012 15 16.0506C15 15.8 14.8996 15.5596 14.7207 15.3818L11.3204 11.9763L14.7207 8.61816C14.8996 8.44042 15 8.19999 15 7.94938C15 7.69877 14.8996 7.45834 14.7207 7.2806C14.6314 7.19169 14.5252 7.12112 14.4081 7.07296C14.2911 7.0248 14.1655 7 14.0387 7C13.9119 7 13.7864 7.0248 13.6693 7.07296C13.5523 7.12112 13.446 7.19169 13.3567 7.2806L9.28412 11.3028C9.19409 11.3909 9.12264 11.4959 9.07387 11.6115C9.02511 11.7271 9 11.8511 9 11.9763C9 12.1015 9.02511 12.2255 9.07387 12.3411C9.12264 12.4567 9.19409 12.5616 9.28412 12.6498L13.3567 16.7194C13.446 16.8083 13.5523 16.8789 13.6693 16.927C13.7864 16.9752 13.9119 17 14.0387 17C14.1655 17 14.2911 16.9752 14.4081 16.927C14.5252 16.8789 14.6314 16.8083 14.7207 16.7194Z" fill="#939EAA"/>
</svg>