<svg xmlns="http://www.w3.org/2000/svg" width="16" height="16" viewBox="0 0 16 16" fill="none">
<path d="M11.1466 6.18621C11.0281 6.06694 10.8678 6 10.7007 6C10.5337 6 10.3734 6.06694 10.2549 6.18621L7.98451 8.45305L5.74576 6.18621C5.62727 6.06694 5.46699 6 5.29991 6C5.13284 6 4.97255 6.06694 4.85406 6.18621C4.79478 6.24574 4.74774 6.31656 4.71563 6.39459C4.68352 6.47263 4.66699 6.55632 4.66699 6.64086C4.66699 6.72539 4.68352 6.80909 4.71563 6.88712C4.74774 6.96515 4.79478 7.03598 4.85406 7.0955L7.5355 9.81059C7.59429 9.8706 7.66424 9.91824 7.7413 9.95075C7.81837 9.98326 7.90103 10 7.98451 10C8.068 10 8.15066 9.98326 8.22773 9.95075C8.30479 9.91824 8.37474 9.8706 8.43353 9.81059L11.1466 7.0955C11.2059 7.03598 11.2529 6.96515 11.285 6.88712C11.3171 6.80909 11.3337 6.72539 11.3337 6.64086C11.3337 6.55632 11.3171 6.47263 11.285 6.39459C11.2529 6.31656 11.2059 6.24574 11.1466 6.18621Z" fill="black"/>
</svg>