<svg xmlns="http://www.w3.org/2000/svg" width="24" height="24" viewBox="0 0 24 24" fill="none">
<path fill-rule="evenodd" clip-rule="evenodd" d="M5.06909 3.54034C5.83867 3.12902 6.5958 3.00076 8.18547 3.00076H11.1029C11.6001 3.00076 12.0032 3.40371 12.0032 3.90076C12.0032 4.39782 11.6001 4.80076 11.1029 4.80076H8.18547C6.67879 4.80076 6.28747 4.9303 5.91818 5.12768C5.57593 5.3106 5.31274 5.57365 5.12973 5.91565C4.93228 6.28463 4.80267 6.67562 4.80267 8.18138V15.8201C4.80267 17.3259 4.93228 17.7169 5.12973 18.0859C5.31274 18.4279 5.57593 18.6909 5.91818 18.8739C6.28747 19.0712 6.67879 19.2008 8.18547 19.2008H11.1029C11.6001 19.2008 12.0032 19.6037 12.0032 20.1008C12.0032 20.5978 11.6001 21.0008 11.1029 21.0008H8.18547C6.5958 21.0008 5.83867 20.8725 5.06909 20.4612C4.41306 20.1105 3.89278 19.5906 3.5419 18.9349C3.13029 18.1657 3.00195 17.4089 3.00195 15.8201V8.18138C3.00195 6.59261 3.13029 5.83584 3.5419 5.06664C3.89278 4.41094 4.41306 3.89099 5.06909 3.54034Z" fill="#939EAA"/>
<path fill-rule="evenodd" clip-rule="evenodd" d="M16.3607 8.26059C16.7123 7.90911 17.2824 7.90911 17.634 8.26058L20.7382 11.3636C20.9071 11.5324 21.002 11.7613 21.002 12C21.002 12.2387 20.9071 12.4676 20.7382 12.6364L17.634 15.7394C17.2824 16.0909 16.7123 16.0909 16.3607 15.7394C16.0091 15.3879 16.0091 14.8181 16.3607 14.4666L17.9279 12.9H10.9028C10.4055 12.9 10.0024 12.497 10.0024 12C10.0024 11.5029 10.4055 11.1 10.9028 11.1H17.9279L16.3607 9.53338C16.0091 9.18191 16.0091 8.61206 16.3607 8.26059Z" fill="#939EAA"/>
</svg>