<svg xmlns="http://www.w3.org/2000/svg" width="64" height="64" viewBox="0 0 64 64" fill="none">
<path fill-rule="evenodd" clip-rule="evenodd" d="M5.59961 32C5.59961 17.4197 17.4193 5.60001 31.9996 5.60001C46.5799 5.60001 58.3996 17.4197 58.3996 32C58.3996 46.5803 46.5799 58.4 31.9996 58.4C17.4193 58.4 5.59961 46.5803 5.59961 32ZM31.9996 10.4C43.929 10.4 53.5996 20.0707 53.5996 32C53.5996 37.1 51.8321 41.7872 48.8762 45.4825L18.5172 15.1234C22.2124 12.1675 26.8996 10.4 31.9996 10.4ZM10.3996 32C10.3996 43.9294 20.0703 53.6 31.9996 53.6C37.0996 53.6 41.7868 51.8325 45.4821 48.8766L15.1231 18.5176C12.1671 22.2128 10.3996 26.9 10.3996 32Z" fill="black"/>
</svg>