<svg xmlns="http://www.w3.org/2000/svg" width="20" height="20" viewBox="0 0 20 20" fill="none">
<path fill-rule="evenodd" clip-rule="evenodd" d="M5.94665 13.4091C5.94665 13.0325 5.54826 12.7273 5.05682 12.7273C4.56538 12.7273 4.16699 13.0325 4.16699 13.4091L4.16699 16.8182C4.16699 17.1947 4.56538 17.5 5.05682 17.5L9.50598 17.5C9.99742 17.5 10.3958 17.1947 10.3958 16.8182C10.3958 16.4416 9.99742 16.1364 9.50598 16.1364L7.20506 16.1364L13.1013 11.6185C13.4488 11.3522 13.4488 10.9205 13.1013 10.6542L9.77569 8.10606L15.573 3.66394C15.9205 3.39767 15.9205 2.96597 15.573 2.6997C15.2255 2.43343 14.6621 2.43343 14.3146 2.6997L7.88807 7.62394C7.54057 7.89021 7.54057 8.32191 7.88807 8.58818L11.2137 11.1364L5.94665 15.1721L5.94665 13.4091Z" fill="#ADBAC8"/>
</svg>