<svg xmlns="http://www.w3.org/2000/svg" width="20" height="20" viewBox="0 0 20 20" fill="none">
<path d="M14.9988 7.50038C14.9988 7.27953 14.911 7.06772 14.7547 6.91155C14.5985 6.75538 14.3865 6.66764 14.1655 6.66764H4.50715L6.42381 4.76065C6.58073 4.60384 6.66889 4.39117 6.66889 4.1694C6.66889 3.94764 6.58073 3.73496 6.42381 3.57816C6.26689 3.42135 6.05407 3.33325 5.83215 3.33325C5.61023 3.33325 5.3974 3.42135 5.24048 3.57816L1.90715 6.90914C1.79152 7.02624 1.71319 7.17495 1.68204 7.33649C1.6509 7.49803 1.66833 7.66518 1.73215 7.81683C1.79466 7.9689 1.90083 8.09908 2.03726 8.19096C2.1737 8.28284 2.33429 8.33231 2.49881 8.33313H14.1655C14.3865 8.33313 14.5985 8.24539 14.7547 8.08922C14.911 7.93305 14.9988 7.72124 14.9988 7.50038ZM18.2655 12.1816C18.203 12.0295 18.0968 11.8993 17.9604 11.8075C17.8239 11.7156 17.6633 11.6661 17.4988 11.6653H5.83215C5.61113 11.6653 5.39917 11.753 5.24289 11.9092C5.08661 12.0654 4.99881 12.2772 4.99881 12.498C4.99881 12.7189 5.08661 12.9307 5.24289 13.0869C5.39917 13.243 5.61113 13.3308 5.83215 13.3308H15.4905L13.5738 15.2378C13.4957 15.3152 13.4337 15.4073 13.3914 15.5088C13.3491 15.6102 13.3273 15.7191 13.3273 15.829C13.3273 15.9389 13.3491 16.0478 13.3914 16.1493C13.4337 16.2507 13.4957 16.3428 13.5738 16.4203C13.6513 16.4983 13.7435 16.5603 13.845 16.6025C13.9466 16.6448 14.0555 16.6666 14.1655 16.6666C14.2755 16.6666 14.3844 16.6448 14.486 16.6025C14.5875 16.5603 14.6797 16.4983 14.7571 16.4203L18.0905 13.0893C18.2061 12.9722 18.2844 12.8235 18.3156 12.6619C18.3467 12.5004 18.3293 12.3332 18.2655 12.1816Z" fill="#ADBAC8"/>
</svg>