<svg xmlns="http://www.w3.org/2000/svg" width="20" height="20" viewBox="0 0 20 20" fill="none">
<path d="M17.5 9.99823C17.9602 9.99823 18.3333 10.3698 18.3333 10.8281C18.3333 13.3613 16.7102 14.9777 14.1667 14.9777L7.93083 14.9769L7.93136 16.4307C7.93136 16.642 7.81283 16.7183 7.65753 16.6312L7.60451 16.5961L4.71653 14.3967C4.54187 14.2637 4.53602 14.0364 4.71653 13.8989L7.60451 11.6995C7.77917 11.5665 7.93136 11.6361 7.93136 11.8649L7.93083 13.3171L14.1667 13.3179C15.7318 13.3179 16.6031 12.5058 16.6633 10.9985L16.6667 10.8281C16.6667 10.3698 17.0398 9.99823 17.5 9.99823ZM13.2435 3.40037L16.1315 5.59975C16.312 5.73723 16.3062 5.96456 16.1315 6.09758L13.2435 8.29697C13.063 8.43444 12.9167 8.3664 12.9167 8.13155V6.6778L6.66667 6.67858C5.10154 6.67858 4.23025 7.49062 4.17002 8.99798L4.16667 9.16832C4.16667 9.62667 3.79357 9.99823 3.33333 9.99823C2.8731 9.99823 2.5 9.62667 2.5 9.16832C2.5 6.63519 4.1231 5.01876 6.66667 5.01876L12.9175 5.01876L12.9167 3.56579C12.9167 3.33696 13.0688 3.26735 13.2435 3.40037Z" fill="#ADBAC8"/>
</svg>