<svg xmlns="http://www.w3.org/2000/svg" width="20" height="20" viewBox="0 0 20 20" fill="none">
<path fill-rule="evenodd" clip-rule="evenodd" d="M5.49999 15.7798L5.49998 3.87259C5.49998 3.39067 5.83576 3 6.24998 3C6.66419 3 6.99998 3.39067 6.99998 3.87259L6.99999 15.7798C6.99999 16.2617 6.6642 16.6523 6.24999 16.6523C5.83578 16.6523 5.49999 16.2617 5.49999 15.7798Z" fill="#ADBAC8"/>
<path fill-rule="evenodd" clip-rule="evenodd" d="M9.78032 12.0602C10.0732 12.401 10.0732 12.9535 9.78032 13.2942L6.83924 16.716C6.51381 17.0947 5.98617 17.0947 5.66073 16.716L2.71967 13.2942C2.42678 12.9535 2.42678 12.401 2.71967 12.0602C3.01256 11.7194 3.48744 11.7194 3.78033 12.0602L6.24999 14.9335L8.71966 12.0602C9.01256 11.7195 9.48743 11.7195 9.78032 12.0602Z" fill="#ADBAC8"/>
<path fill-rule="evenodd" clip-rule="evenodd" d="M13.8333 15.7798L13.8333 3.87259C13.8333 3.39067 14.1691 3 14.5833 3C14.9975 3 15.3333 3.39067 15.3333 3.87259L15.3333 15.7798C15.3333 16.2617 14.9975 16.6523 14.5833 16.6523C14.1691 16.6523 13.8333 16.2617 13.8333 15.7798Z" fill="#ADBAC8"/>
<path fill-rule="evenodd" clip-rule="evenodd" d="M18.1137 12.0602C18.4066 12.401 18.4065 12.9535 18.1137 13.2942L15.1726 16.716C14.8471 17.0947 14.3195 17.0947 13.9941 16.716L11.053 13.2942C10.7601 12.9535 10.7601 12.401 11.053 12.0602C11.3459 11.7194 11.8208 11.7194 12.1137 12.0602L14.5833 14.9335L17.053 12.0602C17.3459 11.7195 17.8208 11.7195 18.1137 12.0602Z" fill="#ADBAC8"/>
</svg>