<svg xmlns="http://www.w3.org/2000/svg" width="20" height="20" viewBox="0 0 20 20" fill="none">
<path d="M10.0003 9.11032C10.0003 9.18688 10.0312 9.26069 10.087 9.31734C10.2108 9.44311 10.4217 9.45238 10.5579 9.33805L14.1315 6.33858C14.1445 6.32763 14.157 6.31612 14.1688 6.30408C14.3752 6.09446 14.3585 5.77006 14.1315 5.5795L10.5579 2.58004C10.4965 2.52854 10.4166 2.5 10.3337 2.5C10.1496 2.5 10.0003 2.63779 10.0003 2.80776L10.0003 5.18964C6.31843 5.18964 3.33366 7.94541 3.33366 11.3448C3.33366 14.7442 6.31843 17.5 10.0003 17.5C13.6822 17.5 16.667 14.7442 16.667 11.3448C16.667 10.9199 16.2939 10.5754 15.8337 10.5754C15.3734 10.5754 15.0003 10.9199 15.0003 11.3448C15.0003 13.8944 12.7617 15.9612 10.0003 15.9612C7.2389 15.9612 5.00033 13.8944 5.00033 11.3448C5.00033 8.79526 7.2389 6.72844 10.0003 6.72844L10.0003 9.11032Z" fill="#ADBAC8"/>
</svg>