<svg xmlns="http://www.w3.org/2000/svg" width="24" height="24" viewBox="0 0 24 24" fill="none">
<path d="M16.7194 14.7207C16.5417 14.8996 16.3012 15 16.0506 15C15.8 15 15.5596 14.8996 15.3818 14.7207L11.9763 11.3204L8.61816 14.7207C8.44042 14.8996 8.19999 15 7.94938 15C7.69877 15 7.45834 14.8996 7.2806 14.7207C7.19169 14.6314 7.12112 14.5252 7.07296 14.4081C7.0248 14.2911 7 14.1655 7 14.0387C7 13.9119 7.0248 13.7864 7.07296 13.6693C7.12112 13.5523 7.19169 13.446 7.2806 13.3567L11.3028 9.28412C11.3909 9.19409 11.4959 9.12264 11.6115 9.07387C11.7271 9.02511 11.8511 9 11.9763 9C12.1015 9 12.2255 9.02511 12.3411 9.07387C12.4567 9.12264 12.5616 9.19409 12.6498 9.28412L16.7194 13.3567C16.8083 13.446 16.8789 13.5523 16.927 13.6693C16.9752 13.7864 17 13.9119 17 14.0387C17 14.1655 16.9752 14.2911 16.927 14.4081C16.8789 14.5252 16.8083 14.6314 16.7194 14.7207Z" fill="black"/>
</svg>