<svg width="48" height="48" viewBox="0 0 48 48" fill="none" xmlns="http://www.w3.org/2000/svg">
<path d="M40.046 19.5403V19.2162C40.0582 15.9733 38.9776 12.8121 36.9632 10.1973C34.9488 7.58252 32.1066 5.65193 28.8545 4.68926H28.7344C27.0547 4.20166 25.3047 3.97003 23.5491 4.00295C19.3684 4.22141 15.4329 5.95083 12.5457 8.83825C9.65854 11.7257 8.03736 15.5534 8.01305 19.5403C6.83986 19.9333 5.82372 20.6634 5.10489 21.6298C4.38606 22.5961 4 23.7512 4 24.9354C4 26.1197 4.38606 27.2747 5.10489 28.2411C5.82372 29.2075 6.83986 29.9376 8.01305 30.3306C8.42541 34.0954 10.2932 37.5796 13.2534 40.1059C16.2136 42.6322 20.0545 44.0201 24.0295 43.9997H24.49C28.3339 43.8225 31.9875 42.3541 34.8024 39.8552C37.6172 37.3564 39.4112 33.9886 39.8659 30.3497C41.0528 29.9789 42.0889 29.265 42.8298 28.3072C43.5706 27.3494 43.9794 26.1955 43.9992 25.0061C44.0191 23.8167 43.6489 22.651 42.9404 21.6713C42.2318 20.6917 41.2201 19.9467 40.046 19.5403ZM24.3899 40.1868C21.4917 40.2667 18.661 39.3456 16.4201 37.5937C14.1792 35.8418 12.6794 33.3772 12.1974 30.6547H35.7616C35.273 33.232 33.8836 35.5763 31.8192 37.3067C29.7548 39.0372 27.1366 40.0522 24.3899 40.1868ZM38.044 26.8419H10.0151C9.48413 26.8419 8.9749 26.641 8.59944 26.2835C8.22398 25.926 8.01305 25.4411 8.01305 24.9354C8.01305 24.4298 8.22398 23.9449 8.59944 23.5874C8.9749 23.2299 9.48413 23.029 10.0151 23.029H14.0192C14.5502 23.029 15.0594 22.8282 15.4349 22.4707C15.8104 22.1131 16.0213 21.6282 16.0213 21.1226C16.0213 20.617 15.8104 20.1321 15.4349 19.7746C15.0594 19.417 14.5502 19.2162 14.0192 19.2162H12.0172C12.1068 17.2385 12.7004 15.3113 13.7468 13.6008C14.7932 11.8903 16.2609 10.4479 18.0234 9.39812V15.4033C18.0234 15.909 18.2343 16.3939 18.6098 16.7514C18.9852 17.1089 19.4944 17.3098 20.0254 17.3098C20.5564 17.3098 21.0656 17.1089 21.4411 16.7514C21.8166 16.3939 22.0275 15.909 22.0275 15.4033V7.94924C22.5709 7.86279 23.119 7.80551 23.6692 7.77766H24.0295C24.7005 7.78666 25.3698 7.84402 26.0316 7.94924V15.4033C26.0316 15.909 26.2425 16.3939 26.618 16.7514C26.9935 17.1089 27.5027 17.3098 28.0337 17.3098C28.5646 17.3098 29.0739 17.1089 29.4493 16.7514C29.8248 16.3939 30.0357 15.909 30.0357 15.4033V9.34093C30.885 9.80919 31.6773 10.3654 32.3982 10.9995C33.5525 12.0669 34.4698 13.3443 35.0957 14.7557C35.7217 16.1672 36.0434 17.684 36.0419 19.2162H34.0399C33.5089 19.2162 32.9996 19.417 32.6242 19.7746C32.2487 20.1321 32.0378 20.617 32.0378 21.1226C32.0378 21.6282 32.2487 22.1131 32.6242 22.4707C32.9996 22.8282 33.5089 23.029 34.0399 23.029H38.044C38.575 23.029 39.0842 23.2299 39.4596 23.5874C39.8351 23.9449 40.046 24.4298 40.046 24.9354C40.046 25.4411 39.8351 25.926 39.4596 26.2835C39.0842 26.641 38.575 26.8419 38.044 26.8419Z" fill="#1774D8"/>
</svg>
