<svg width="48" height="48" viewBox="0 0 48 48" fill="none" xmlns="http://www.w3.org/2000/svg">
<path d="M24 2C36.1503 2 46 11.8497 46 24C46 36.1503 36.1503 46 24 46C11.8497 46 2 36.1503 2 24C2 11.8497 11.8497 2 24 2ZM24 5.6C13.838 5.6 5.6 13.838 5.6 24C5.6 34.162 13.838 42.4 24 42.4C34.162 42.4 42.4 34.162 42.4 24C42.4 13.838 34.162 5.6 24 5.6ZM26.5057 14C30.2139 14 33.22 17.0061 33.22 20.7143C33.22 24.4225 30.2139 27.4286 26.5057 27.4286L22 27.428V30H25C25.8284 30 26.5 30.6716 26.5 31.5C26.5 32.3285 25.8284 33 25 33H22V34.3C22 35.2389 21.2389 36 20.3 36C19.3611 36 18.6 35.2389 18.6 34.3L18.598 33H17C16.1716 33 15.5 32.3285 15.5 31.5C15.5 30.6716 16.1716 30 17 30H18.598V27.428L17.2143 27.4286C16.2675 27.4286 15.5 26.6611 15.5 25.7143C15.5 24.7675 16.2675 24 17.2143 24H18.598L18.6 15.7C18.6 14.7611 19.3611 14 20.3 14H26.5057ZM26.5714 17.1429H22V24H26.5714C28.465 24 30 22.465 30 20.5715C30 18.6779 28.465 17.1429 26.5714 17.1429Z" fill="#1774D8"/>
</svg>
