<svg width="48" height="48" viewBox="0 0 48 48" fill="none" xmlns="http://www.w3.org/2000/svg">
<path d="M32.2 18C33.1941 18 34 17.1941 34 16.2C34 15.2059 33.1941 14.4 32.2 14.4H15.7998C14.8057 14.4 13.9998 15.2059 13.9998 16.2C13.9998 17.1941 14.8057 18 15.7998 18H32.2Z" fill="#1774D8"/>
<path d="M34 24C34 24.9941 33.1941 25.8 32.2 25.8H15.8C14.8059 25.8 14 24.9941 14 24C14 23.0059 14.8059 22.2 15.8 22.2H32.2C33.1941 22.2 34 23.0059 34 24Z" fill="#1774D8"/>
<path d="M22.2 33.6008C23.1941 33.6008 24 32.7949 24 31.8008C24 30.8067 23.1941 30.0008 22.2 30.0008H15.8C14.8059 30.0008 14 30.8067 14 31.8008C14 32.7949 14.8059 33.6008 15.8 33.6008H22.2Z" fill="#1774D8"/>
<path fill-rule="evenodd" clip-rule="evenodd" d="M29.0768 6H18.9232C17.0282 5.99998 15.4967 5.99997 14.2558 6.10135C12.9773 6.20581 11.8496 6.42683 10.8049 6.95914C9.14906 7.80283 7.80283 9.14906 6.95914 10.8049C6.42683 11.8496 6.20581 12.9773 6.10135 14.2558C5.99997 15.4967 5.99998 17.0282 6 18.9232V29.0768C5.99998 30.9718 5.99997 32.5033 6.10135 33.7442C6.20581 35.0227 6.42683 36.1504 6.95914 37.1951C7.80283 38.8509 9.14906 40.1972 10.8049 41.0409C11.8496 41.5732 12.9773 41.7942 14.2558 41.8987C15.4967 42 17.0282 42 18.9232 42H29.0768C30.9718 42 32.5033 42 33.7442 41.8987C35.0227 41.7942 36.1504 41.5732 37.1951 41.0409C38.8509 40.1972 40.1972 38.8509 41.0409 37.1951C41.5732 36.1504 41.7942 35.0227 41.8987 33.7442C42 32.5033 42 30.9718 42 29.0768V18.9232C42 17.0282 42 15.4967 41.8987 14.2558C41.7942 12.9773 41.5732 11.8496 41.0409 10.8049C40.1972 9.14906 38.8509 7.80283 37.1951 6.95914C36.1504 6.42683 35.0227 6.20581 33.7442 6.10135C32.5033 5.99997 30.9718 5.99998 29.0768 6ZM12.4393 10.1668C12.8919 9.93613 13.493 9.77567 14.549 9.68939C15.626 9.6014 17.0101 9.6 19 9.6H29C30.9899 9.6 32.3741 9.6014 33.451 9.68939C34.507 9.77567 35.1081 9.93613 35.5608 10.1668C36.5392 10.6653 37.3347 11.4608 37.8332 12.4393C38.0639 12.8919 38.2243 13.493 38.3106 14.549C38.3986 15.626 38.4 17.0101 38.4 19V29C38.4 30.9899 38.3986 32.3741 38.3106 33.451C38.2243 34.507 38.0639 35.1081 37.8332 35.5608C37.3347 36.5392 36.5392 37.3347 35.5608 37.8332C35.1081 38.0639 34.507 38.2243 33.451 38.3106C32.374 38.3986 30.9899 38.4 29 38.4H19C17.0101 38.4 15.626 38.3986 14.549 38.3106C13.493 38.2243 12.8919 38.0639 12.4393 37.8332C11.4608 37.3347 10.6653 36.5392 10.1668 35.5608C9.93613 35.1081 9.77567 34.507 9.68939 33.451C9.6014 32.374 9.6 30.9899 9.6 29V19C9.6 17.0101 9.6014 15.626 9.68939 14.549C9.77567 13.493 9.93613 12.8919 10.1668 12.4393C10.6653 11.4608 11.4608 10.6653 12.4393 10.1668Z" fill="#1774D8"/>
</svg>
