<svg width="48" height="48" viewBox="0 0 48 48" fill="none" xmlns="http://www.w3.org/2000/svg">
<path fill-rule="evenodd" clip-rule="evenodd" d="M16.3819 19.7372L17.4954 18.6302C17.5941 18.5321 17.6632 18.4084 17.6948 18.2732L19.5683 10.2638C20.2466 7.36413 23.1187 5.5241 26.055 6.10801C28.6461 6.62326 30.5112 8.88513 30.5112 11.5122V15.7281H30.7027C34.2529 15.7281 37.1973 16.478 39.2218 18.4907C41.2463 20.5033 42.0005 23.4307 42.0005 26.9602V28.8639C42.0005 32.522 40.9405 35.4169 38.8168 37.3775C36.7162 39.3167 33.8392 40.096 30.7027 40.096L16.2442 40.096C15.6343 40.94 14.7425 41.5665 13.7009 41.844C13.1086 42.0018 12.4407 42.0008 11.7262 41.9998L11.554 41.9997L11.3817 41.9998C10.6673 42.0008 9.99936 42.0018 9.40706 41.844C7.82112 41.4215 6.58236 40.19 6.1574 38.6132C5.99869 38.0244 5.99964 37.3604 6.00065 36.6501V22.9815C5.99964 22.2711 5.99869 21.6072 6.1574 21.0183C6.58236 19.4416 7.82112 18.21 9.40706 17.7875C9.99937 17.6298 10.6672 17.6307 11.3817 17.6317L11.554 17.6319L11.7262 17.6317C12.4407 17.6307 13.1085 17.6298 13.7009 17.7875C14.8238 18.0867 15.7727 18.7915 16.3819 19.7372ZM22.9255 11.04C23.1821 9.94328 24.2684 9.24733 25.379 9.46818C26.359 9.66306 27.0644 10.5186 27.0644 11.5122V17.4415C27.0644 18.3878 27.836 19.1549 28.7878 19.1549H30.7027C33.8546 19.1549 35.6973 19.8328 36.7846 20.9137C37.8718 21.9946 38.5537 23.8266 38.5537 26.9602V28.8639C38.5537 31.8689 37.6988 33.7333 36.4715 34.8664C35.221 36.0208 33.3108 36.6692 30.7027 36.6693C29.5492 36.6693 17.1073 36.6878 17.1073 36.6501L17.1071 23.8624L19.9327 21.0533C20.4867 20.5024 20.8745 19.8082 21.052 19.0494L22.9255 11.04ZM13.6603 23.1632V36.4788C13.6603 37.4744 13.6455 37.636 13.6212 37.7263C13.5149 38.1205 13.2052 38.4284 12.8088 38.534C12.7179 38.5582 12.5553 38.573 11.554 38.573C10.5526 38.573 10.39 38.5582 10.2992 38.534C9.90267 38.4284 9.59298 38.1205 9.48674 37.7263C9.46239 37.636 9.44759 37.4744 9.44759 36.4788V23.1527C9.44759 22.1572 9.46239 21.9955 9.48674 21.9052C9.59298 21.511 9.90267 21.2031 10.2992 21.0975C10.39 21.0733 10.5526 21.0586 11.554 21.0586C12.5553 21.0586 12.7179 21.0733 12.8088 21.0975C13.2052 21.2031 13.5149 21.511 13.6212 21.9052C13.6456 21.9958 13.6542 22.1701 13.6603 23.1632Z" fill="#1774D8"/>
</svg>
