<svg width="48" height="48" viewBox="0 0 48 48" fill="none" xmlns="http://www.w3.org/2000/svg">
<path d="M15.5156 21.5156C16.7023 21.5156 17.8623 21.1637 18.849 20.5044C19.8357 19.8451 20.6047 18.908 21.0588 17.8117C21.513 16.7153 21.6318 15.5089 21.4003 14.345C21.1688 13.1811 20.5973 12.112 19.7582 11.2729C18.9191 10.4338 17.85 9.86237 16.6861 9.63086C15.5222 9.39934 14.3158 9.51816 13.2195 9.97229C12.1231 10.4264 11.186 11.1955 10.5268 12.1821C9.86746 13.1688 9.51557 14.3289 9.51557 15.5156C9.51731 17.1063 10.15 18.6314 11.2748 19.7563C12.3997 20.8811 13.9248 21.5138 15.5156 21.5156ZM15.5156 13.5156C15.9111 13.5156 16.2978 13.6329 16.6267 13.8526C16.9556 14.0724 17.212 14.3847 17.3633 14.7502C17.5147 15.1157 17.5543 15.5178 17.4771 15.9057C17.4 16.2937 17.2095 16.6501 16.9298 16.9298C16.6501 17.2095 16.2937 17.4 15.9057 17.4771C15.5178 17.5543 15.1157 17.5147 14.7502 17.3633C14.3847 17.212 14.0724 16.9556 13.8526 16.6267C13.6329 16.2978 13.5156 15.9111 13.5156 15.5156C13.5159 14.9852 13.7268 14.4767 14.1017 14.1017C14.4767 13.7267 14.9852 13.5159 15.5156 13.5156ZM32.4843 26.4843C31.2976 26.4843 30.1376 26.8362 29.1509 27.4955C28.1642 28.1548 27.3952 29.0919 26.9411 30.1882C26.4869 31.2846 26.3681 32.491 26.5996 33.6549C26.8311 34.8188 27.4026 35.8879 28.2417 36.727C29.0808 37.5661 30.1499 38.1375 31.3138 38.369C32.4777 38.6005 33.6841 38.4817 34.7804 38.0276C35.8768 37.5735 36.8139 36.8044 37.4731 35.8177C38.1324 34.8311 38.4843 33.671 38.4843 32.4843C38.4826 30.8936 37.8499 29.3684 36.725 28.2436C35.6002 27.1188 34.0751 26.4861 32.4843 26.4843ZM32.4843 34.4843C32.0888 34.4843 31.7021 34.367 31.3732 34.1473C31.0443 33.9275 30.7879 33.6151 30.6366 33.2497C30.4852 32.8842 30.4456 32.4821 30.5228 32.0941C30.5999 31.7062 30.7904 31.3498 31.0701 31.0701C31.3498 30.7904 31.7062 30.5999 32.0941 30.5228C32.4821 30.4456 32.8842 30.4852 33.2497 30.6366C33.6151 30.7879 33.9275 31.0443 34.1473 31.3732C34.367 31.7021 34.4843 32.0888 34.4843 32.4843C34.484 33.0147 34.2731 33.5232 33.8981 33.8981C33.5232 34.2731 33.0147 34.484 32.4843 34.4843ZM39.4139 8.58595C39.2283 8.40019 39.0078 8.25283 38.7652 8.15229C38.5226 8.05175 38.2625 8 37.9999 8C37.7373 8 37.4772 8.05175 37.2346 8.15229C36.9919 8.25283 36.7715 8.40019 36.5858 8.58595L8.58583 36.5859C8.39822 36.7712 8.2491 36.9918 8.14705 37.2349C8.045 37.478 7.99204 37.7389 7.99122 38.0026C7.9904 38.2663 8.04172 38.5275 8.14225 38.7713C8.24278 39.015 8.39051 39.2365 8.57696 39.4229C8.76341 39.6094 8.98489 39.7571 9.22865 39.8576C9.47242 39.9581 9.73365 40.0094 9.99733 40.0086C10.261 40.0078 10.5219 39.9548 10.765 39.8528C11.0081 39.7507 11.2287 39.6016 11.4139 39.4139L39.4139 11.4139C39.5997 11.2283 39.747 11.0079 39.8476 10.7652C39.9481 10.5226 39.9998 10.2626 39.9998 9.99995C39.9998 9.73733 39.9481 9.47728 39.8476 9.23466C39.747 8.99204 39.5997 8.77161 39.4139 8.58595Z" fill="#1774D8"/>
</svg>
