<svg width="48" height="48" viewBox="0 0 48 48" fill="none" xmlns="http://www.w3.org/2000/svg">
<path d="M2 24.9474V34.4211C2 34.9236 2.21071 35.4055 2.58579 35.7608C2.96086 36.1162 3.46957 36.3158 4 36.3158H6C6 37.8233 6.63214 39.2691 7.75736 40.3351C8.88258 41.4011 10.4087 42 12 42C13.5913 42 15.1174 41.4011 16.2426 40.3351C17.3679 39.2691 18 37.8233 18 36.3158H30C30 37.8233 30.6321 39.2691 31.7574 40.3351C32.8826 41.4011 34.4087 42 36 42C37.5913 42 39.1174 41.4011 40.2426 40.3351C41.3679 39.2691 42 37.8233 42 36.3158H44C44.5304 36.3158 45.0391 36.1162 45.4142 35.7608C45.7893 35.4055 46 34.9236 46 34.4211V11.6842C46 10.1767 45.3679 8.73086 44.2426 7.66487C43.1174 6.59887 41.5913 6 40 6H22C20.4087 6 18.8826 6.59887 17.7574 7.66487C16.6321 8.73086 16 10.1767 16 11.6842V15.4737H12C11.0685 15.4737 10.1499 15.6791 9.31672 16.0738C8.48359 16.4684 7.75888 17.0414 7.2 17.7474L2.4 23.8105C2.3415 23.8929 2.29445 23.982 2.26 24.0758L2.14 24.2842C2.05173 24.4955 2.00431 24.7202 2 24.9474ZM34 36.3158C34 35.941 34.1173 35.5747 34.3371 35.2631C34.5568 34.9515 34.8692 34.7087 35.2346 34.5653C35.6001 34.4219 36.0022 34.3844 36.3902 34.4575C36.7781 34.5306 37.1345 34.711 37.4142 34.976C37.6939 35.241 37.8844 35.5786 37.9616 35.9461C38.0387 36.3137 37.9991 36.6947 37.8478 37.0409C37.6964 37.3871 37.44 37.683 37.1111 37.8912C36.7822 38.0994 36.3956 38.2105 36 38.2105C35.4696 38.2105 34.9609 38.0109 34.5858 37.6556C34.2107 37.3002 34 36.8183 34 36.3158ZM20 11.6842C20 11.1817 20.2107 10.6998 20.5858 10.3444C20.9609 9.9891 21.4696 9.78947 22 9.78947H40C40.5304 9.78947 41.0391 9.9891 41.4142 10.3444C41.7893 10.6998 42 11.1817 42 11.6842V32.5263H40.44C39.8776 31.9402 39.1922 31.4718 38.4276 31.1514C37.663 30.8309 36.8361 30.6653 36 30.6653C35.1639 30.6653 34.337 30.8309 33.5724 31.1514C32.8078 31.4718 32.1224 31.9402 31.56 32.5263H20V11.6842ZM16 23.0526H8L10.4 20.0211C10.5863 19.7857 10.8279 19.5947 11.1056 19.4632C11.3833 19.3316 11.6895 19.2632 12 19.2632H16V23.0526ZM10 36.3158C10 35.941 10.1173 35.5747 10.3371 35.2631C10.5568 34.9515 10.8692 34.7087 11.2346 34.5653C11.6001 34.4219 12.0022 34.3844 12.3902 34.4575C12.7781 34.5306 13.1345 34.711 13.4142 34.976C13.6939 35.241 13.8844 35.5786 13.9616 35.9461C14.0387 36.3137 13.9991 36.6947 13.8478 37.0409C13.6964 37.3871 13.44 37.683 13.1111 37.8912C12.7822 38.0994 12.3956 38.2105 12 38.2105C11.4696 38.2105 10.9609 38.0109 10.5858 37.6556C10.2107 37.3002 10 36.8183 10 36.3158ZM6 26.8421H16V32.1095C14.8197 31.1101 13.2703 30.5931 11.6894 30.6712C10.1085 30.7493 8.62425 31.4161 7.56 32.5263H6V26.8421Z" fill="#1774D8"/>
</svg>
