<svg width="48" height="48" viewBox="0 0 48 48" fill="none" xmlns="http://www.w3.org/2000/svg">
<path d="M42 22H39.86C39.4136 18.48 37.8098 15.2082 35.3008 12.6992C32.7918 10.1902 29.52 8.58639 26 8.14V6C26 5.46957 25.7893 4.96086 25.4142 4.58579C25.0391 4.21071 24.5304 4 24 4C23.4696 4 22.9609 4.21071 22.5858 4.58579C22.2107 4.96086 22 5.46957 22 6V8.14C18.48 8.58639 15.2082 10.1902 12.6992 12.6992C10.1902 15.2082 8.58639 18.48 8.14 22H6C5.46957 22 4.96086 22.2107 4.58579 22.5858C4.21071 22.9609 4 23.4696 4 24C4 24.5304 4.21071 25.0391 4.58579 25.4142C4.96086 25.7893 5.46957 26 6 26H8.14C8.58639 29.52 10.1902 32.7918 12.6992 35.3008C15.2082 37.8098 18.48 39.4136 22 39.86V42C22 42.5304 22.2107 43.0391 22.5858 43.4142C22.9609 43.7893 23.4696 44 24 44C24.5304 44 25.0391 43.7893 25.4142 43.4142C25.7893 43.0391 26 42.5304 26 42V39.86C29.52 39.4136 32.7918 37.8098 35.3008 35.3008C37.8098 32.7918 39.4136 29.52 39.86 26H42C42.5304 26 43.0391 25.7893 43.4142 25.4142C43.7893 25.0391 44 24.5304 44 24C44 23.4696 43.7893 22.9609 43.4142 22.5858C43.0391 22.2107 42.5304 22 42 22ZM24 36C21.6266 36 19.3065 35.2962 17.3332 33.9776C15.3598 32.6591 13.8217 30.7849 12.9134 28.5922C12.0052 26.3995 11.7676 23.9867 12.2306 21.6589C12.6936 19.3311 13.8365 17.1929 15.5147 15.5147C17.1929 13.8365 19.3311 12.6936 21.6589 12.2306C23.9867 11.7676 26.3995 12.0052 28.5922 12.9134C30.7849 13.8217 32.6591 15.3598 33.9776 17.3332C35.2962 19.3065 36 21.6266 36 24C36 27.1826 34.7357 30.2348 32.4853 32.4853C30.2348 34.7357 27.1826 36 24 36ZM24 18C22.8133 18 21.6533 18.3519 20.6666 19.0112C19.6799 19.6705 18.9108 20.6075 18.4567 21.7039C18.0026 22.8003 17.8838 24.0067 18.1153 25.1705C18.3468 26.3344 18.9182 27.4035 19.7574 28.2426C20.5965 29.0818 21.6656 29.6532 22.8295 29.8847C23.9933 30.1162 25.1997 29.9974 26.2961 29.5433C27.3925 29.0892 28.3295 28.3201 28.9888 27.3334C29.6481 26.3467 30 25.1867 30 24C30 22.4087 29.3679 20.8826 28.2426 19.7574C27.1174 18.6321 25.5913 18 24 18ZM24 26C23.6044 26 23.2178 25.8827 22.8889 25.6629C22.56 25.4432 22.3036 25.1308 22.1522 24.7654C22.0009 24.3999 21.9613 23.9978 22.0384 23.6098C22.1156 23.2219 22.3061 22.8655 22.5858 22.5858C22.8655 22.3061 23.2219 22.1156 23.6098 22.0384C23.9978 21.9613 24.3999 22.0009 24.7654 22.1522C25.1308 22.3036 25.4432 22.56 25.6629 22.8889C25.8827 23.2178 26 23.6044 26 24C26 24.5304 25.7893 25.0391 25.4142 25.4142C25.0391 25.7893 24.5304 26 24 26Z" fill="#1774D8"/>
</svg>
