<svg width="48" height="48" viewBox="0 0 48 48" fill="none" xmlns="http://www.w3.org/2000/svg">
<path d="M24 3.99988C35.0431 3.99988 44 12.9537 44 23.9999C44 35.046 35.0431 43.9999 24 43.9999C12.9538 43.9999 4 35.046 4 23.9999C4 12.9537 12.9538 3.99988 24 3.99988ZM24 7.99988C15.1631 7.99988 8 15.163 8 23.9999C8 32.8368 15.1631 39.9999 24 39.9999C32.8345 39.9999 40 32.8368 40 23.9999C40 15.163 32.8345 7.99988 24 7.99988ZM22.6777 14.0922C23.7823 14.0922 24.6777 14.9876 24.6777 16.0922V23.76L32.199 26.2716C33.2452 26.6258 33.8063 27.7611 33.4521 28.8073C33.0979 29.8536 31.9626 30.4146 30.9164 30.0604L22.0364 27.0543C21.2242 26.7793 20.6777 26.0173 20.6777 25.1599V16.0922C20.6777 14.9876 21.5731 14.0922 22.6777 14.0922Z" fill="#1774D8"/>
</svg>
