<svg xmlns="http://www.w3.org/2000/svg" width="64" height="64" viewBox="0 0 64 64" fill="none">
<path d="M38.8162 34.3874L45.6762 41.1981L55.7709 35.3674C57.1209 34.6923 57.9854 33.3244 58.0157 31.8154C57.9611 30.3558 57.1016 29.047 55.784 28.4169C54.9454 27.9638 47.7553 23.7919 45.0574 22.2216L45.0496 22.2163L12.37 3.34901C11.0341 2.50351 9.34643 2.44282 7.95329 3.19015C7.8203 3.28053 7.69321 3.37925 7.57275 3.48573L38.8162 34.3874Z" fill="#D8E5F2"/>
<path d="M55.7842 28.4167C54.9995 27.9928 48.6977 24.3379 45.6748 22.5801L38.7505 29.4544L7.42773 60.5293C7.55571 60.6459 7.69221 60.7527 7.83611 60.849C8.39323 61.168 9.0248 61.3342 9.66683 61.3307C10.4461 61.3209 11.2093 61.1073 11.8804 60.7109C12.9168 60.1093 45.0496 41.56 45.0496 41.56L55.771 35.3673C57.121 34.6922 57.9854 33.3244 58.0158 31.8153C57.9613 30.3558 57.1018 29.0468 55.7842 28.4167Z" fill="#A1BEDC"/>
<path d="M36.2933 31.8921L7.57734 3.49023C6.5495 4.28581 5.93185 5.50975 5.98457 6.82813V57.4557C5.95006 58.6621 6.50865 59.779 7.43233 60.5249L36.2933 31.8921Z" fill="white"/>
<path d="M55.7842 28.4167C53.7994 27.3479 46.7973 23.2331 45.6748 22.5801L38.7507 29.4544L36.2935 31.8919L38.8164 34.3874L45.6764 41.198L55.7712 35.3673C57.1211 34.6922 57.9856 33.3244 58.016 31.8153C57.9614 30.3557 57.1019 29.0468 55.7842 28.4167Z" fill="#3E86CD"/>
</svg>